Junicode-Italic.ufo
<glyph name=".null" format="1">
  <advance width="1024"/>
  <unicode hex="0000"/>
  <outline>
    <contour>
      <point x="353.5" y="1194" type="qcurve" smooth="yes"/>
      <point x="645.5" y="1194"/>
      <point x="645.5" y="995" type="qcurve" smooth="yes"/>
      <point x="645.5" y="906"/>
      <point x="529.5" y="844" type="qcurve" smooth="yes"/>
      <point x="424.5" y="788" type="line" smooth="yes"/>
      <point x="310.5" y="726"/>
      <point x="310.5" y="637" type="qcurve" smooth="yes"/>
      <point x="310.5" y="562"/>
      <point x="385.5" y="426" type="qcurve" smooth="yes"/>
      <point x="393.5" y="418"/>
      <point x="408.5" y="419" type="qcurve" smooth="yes"/>
      <point x="430.5" y="423"/>
      <point x="430.5" y="438" type="qcurve" smooth="yes"/>
      <point x="410.5" y="507"/>
      <point x="410.5" y="563" type="qcurve" smooth="yes"/>
      <point x="410.5" y="612"/>
      <point x="484.5" y="653" type="qcurve" smooth="yes"/>
      <point x="649.5" y="741" type="line" smooth="yes"/>
      <point x="731.5" y="784"/>
      <point x="731.5" y="930" type="qcurve" smooth="yes"/>
      <point x="728.5" y="1090"/>
      <point x="613.5" y="1231" type="qcurve" smooth="yes"/>
      <point x="499.5" y="1362"/>
      <point x="369.5" y="1362" type="qcurve" smooth="yes"/>
      <point x="285.5" y="1362"/>
      <point x="285.5" y="1280" type="qcurve" smooth="yes"/>
      <point x="285.5" y="1194"/>
    </contour>
    <contour>
      <point x="533.5" y="86" type="qcurve" smooth="yes"/>
      <point x="533.5" y="125"/>
      <point x="513.5" y="157" type="qcurve" smooth="yes"/>
      <point x="478.5" y="213"/>
      <point x="414.5" y="213" type="qcurve" smooth="yes"/>
      <point x="376.5" y="213"/>
      <point x="346.5" y="192" type="qcurve" smooth="yes"/>
      <point x="295.5" y="155"/>
      <point x="295.5" y="86" type="qcurve" smooth="yes"/>
      <point x="295.5" y="49"/>
      <point x="317.5" y="18" type="qcurve" smooth="yes"/>
      <point x="353.5" y="-31"/>
      <point x="414.5" y="-31" type="qcurve" smooth="yes"/>
      <point x="449.5" y="-31"/>
      <point x="479.5" y="-14" type="qcurve" smooth="yes"/>
      <point x="533.5" y="19"/>
    </contour>
    <contour>
      <point x="68" y="-132" type="line"/>
      <point x="68" y="1507.5" type="line"/>
      <point x="931.5" y="1507.5" type="line"/>
      <point x="931.5" y="-132" type="line"/>
    </contour>
  </outline>
</glyph>
<glyph name="exclam" format="1">
  <advance width="520"/>
  <unicode hex="0021"/>
  <outline>
    <contour>
      <point x="324" y="436" type="line" smooth="yes"/>
      <point x="318" y="419"/>
      <point x="257" y="419"/>
      <point x="257" y="432" type="qcurve" smooth="yes"/>
      <point x="442" y="1286" type="line" smooth="yes"/>
      <point x="450" y="1324"/>
      <point x="528" y="1399"/>
      <point x="571" y="1399" type="qcurve" smooth="yes"/>
      <point x="650" y="1399"/>
      <point x="650" y="1329" type="qcurve" smooth="yes"/>
      <point x="650" y="1302"/>
      <point x="641" y="1278" type="qcurve" smooth="yes"/>
    </contour>
    <contour>
      <point x="317" y="38"/>
      <point x="248" y="-25"/>
      <point x="154" y="-25"/>
      <point x="72" y="32"/>
      <point x="72" y="133"/>
      <point x="134" y="211"/>
      <point x="246" y="211"/>
      <point x="317" y="142"/>
    </contour>
  </outline>
</glyph>
<glyph name="quotedbl" format="1">
  <advance width="758"/>
  <unicode hex="0022"/>
  <outline>
    <contour>
      <point x="428" y="944" type="qcurve"/>
      <point x="358" y="944" type="line"/>
      <point x="371" y="999"/>
      <point x="397" y="1186" type="qcurve" smooth="yes"/>
      <point x="422" y="1373"/>
      <point x="428" y="1395" type="qcurve" smooth="yes"/>
      <point x="452" y="1481"/>
      <point x="549" y="1481" type="qcurve" smooth="yes"/>
      <point x="623" y="1481"/>
      <point x="623" y="1427" type="qcurve" smooth="yes"/>
      <point x="623" y="1408"/>
      <point x="618" y="1397" type="qcurve" smooth="yes"/>
      <point x="548" y="1240"/>
    </contour>
    <contour>
      <point x="754" y="944" type="qcurve"/>
      <point x="686" y="944" type="line"/>
      <point x="699" y="999"/>
      <point x="725" y="1186" type="qcurve" smooth="yes"/>
      <point x="750" y="1373"/>
      <point x="756" y="1395" type="qcurve" smooth="yes"/>
      <point x="780" y="1481"/>
      <point x="866" y="1481" type="qcurve" smooth="yes"/>
      <point x="951" y="1481"/>
      <point x="951" y="1427" type="qcurve" smooth="yes"/>
      <point x="951" y="1410"/>
      <point x="946" y="1397" type="qcurve" smooth="yes"/>
      <point x="866" y="1223"/>
    </contour>
  </outline>
</glyph>
<glyph name="numbersign" format="1">
  <advance width="1024"/>
  <unicode hex="0023"/>
  <outline>
    <contour>
      <point x="664" y="6" type="line"/>
      <point x="575" y="6" type="line"/>
      <point x="733" y="401" type="line"/>
      <point x="500" y="401" type="line"/>
      <point x="338" y="6" type="line"/>
      <point x="252" y="6" type="line"/>
      <point x="410" y="401" type="line"/>
      <point x="186" y="401" type="line"/>
      <point x="229" y="500" type="line"/>
      <point x="446" y="500" type="line"/>
      <point x="582" y="836" type="line"/>
      <point x="358" y="836" type="line"/>
      <point x="406" y="936" type="line"/>
      <point x="623" y="936" type="line"/>
      <point x="766" y="1290" type="line"/>
      <point x="862" y="1290" type="line"/>
      <point x="717" y="936" type="line"/>
      <point x="948" y="936" type="line"/>
      <point x="1090" y="1290" type="line"/>
      <point x="1188" y="1290" type="line"/>
      <point x="1042" y="936" type="line"/>
      <point x="1247" y="936" type="line"/>
      <point x="1206" y="836" type="line"/>
      <point x="1001" y="836" type="line"/>
      <point x="862" y="500" type="line"/>
      <point x="1063" y="500" type="line"/>
      <point x="1020" y="401" type="line"/>
      <point x="825" y="401" type="line"/>
    </contour>
    <contour>
      <point x="770" y="500" type="line"/>
      <point x="907" y="836" type="line"/>
      <point x="676" y="836" type="line"/>
      <point x="537" y="500" type="line"/>
    </contour>
  </outline>
</glyph>
<glyph name="dollar" format="1">
  <advance width="926"/>
  <unicode hex="0024"/>
  <outline>
    <contour>
      <point x="877" y="490" type="qcurve" smooth="yes"/>
      <point x="877" y="310"/>
      <point x="597" y="10"/>
      <point x="414" y="-3" type="qcurve"/>
      <point x="358" y="-195" type="line" smooth="yes"/>
      <point x="353" y="-211"/>
      <point x="276" y="-211"/>
      <point x="281" y="-195" type="qcurve" smooth="yes"/>
      <point x="336" y="-3" type="line"/>
      <point x="211" y="3"/>
      <point x="60" y="88" type="qcurve"/>
      <point x="60" y="242"/>
      <point x="92" y="357" type="qcurve" smooth="yes"/>
      <point x="98" y="376"/>
      <point x="129.5" y="376" type="qcurve" smooth="yes"/>
      <point x="160" y="376"/>
      <point x="158" y="360" type="qcurve" smooth="yes"/>
      <point x="152" y="325"/>
      <point x="152" y="307" type="qcurve" smooth="yes"/>
      <point x="152" y="109"/>
      <point x="358" y="71" type="qcurve"/>
      <point x="513" y="605" type="line"/>
      <point x="364" y="675"/>
      <point x="267" y="795"/>
      <point x="267" y="887" type="qcurve" smooth="yes"/>
      <point x="267" y="1060"/>
      <point x="541" y="1304"/>
      <point x="718" y="1312" type="qcurve"/>
      <point x="768" y="1483" type="line" smooth="yes"/>
      <point x="773" y="1498"/>
      <point x="850" y="1498"/>
      <point x="846" y="1483" type="qcurve" smooth="yes"/>
      <point x="796" y="1310" type="line"/>
      <point x="827" y="1310"/>
      <point x="994" y="1275"/>
      <point x="1010" y="1275" type="qcurve"/>
      <point x="1007" y="1171"/>
      <point x="976" y="1029" type="qcurve" smooth="yes"/>
      <point x="972" y="1011"/>
      <point x="910" y="1011"/>
      <point x="910" y="1027" type="qcurve" smooth="yes"/>
      <point x="909" y="1083" type="line" smooth="yes"/>
      <point x="907" y="1214"/>
      <point x="776" y="1243" type="qcurve"/>
      <point x="635" y="756" type="line"/>
      <point x="769" y="706"/>
      <point x="877" y="587"/>
    </contour>
    <contour>
      <point x="565" y="782" type="qcurve"/>
      <point x="691" y="1216"/>
      <point x="700" y="1250" type="qcurve"/>
      <point x="577" y="1250"/>
      <point x="408" y="1074"/>
      <point x="408" y="950" type="qcurve" smooth="yes"/>
      <point x="408" y="843"/>
    </contour>
    <contour>
      <point x="433" y="65" type="line"/>
      <point x="547" y="67"/>
      <point x="718" y="266"/>
      <point x="718" y="382" type="qcurve" smooth="yes"/>
      <point x="718" y="498"/>
      <point x="581" y="572" type="qcurve"/>
    </contour>
  </outline>
</glyph>
<glyph name="ampersand" format="1">
  <advance width="1577"/>
  <unicode hex="0026"/>
  <outline>
    <contour>
      <point x="1739" y="829" type="qcurve" smooth="yes"/>
      <point x="1739" y="740"/>
      <point x="1685" y="725" type="qcurve" smooth="yes"/>
      <point x="1659" y="719"/>
      <point x="1535" y="681"/>
      <point x="1481" y="657" type="qcurve" smooth="yes"/>
      <point x="1476" y="655"/>
      <point x="1456" y="655"/>
      <point x="1444" y="672" type="qcurve" smooth="yes"/>
      <point x="1381" y="759"/>
      <point x="1303" y="819" type="qcurve"/>
      <point x="1303" y="733"/>
      <point x="1286" y="545"/>
      <point x="1141" y="222"/>
      <point x="806" y="-29"/>
      <point x="584" y="-29" type="qcurve" smooth="yes"/>
      <point x="381" y="-29"/>
      <point x="142" y="196"/>
      <point x="142" y="385" type="qcurve" smooth="yes"/>
      <point x="142" y="486"/>
      <point x="235" y="736"/>
      <point x="510" y="991"/>
      <point x="643" y="991" type="qcurve" smooth="yes"/>
      <point x="696" y="991"/>
      <point x="744" y="957"/>
      <point x="772" y="909" type="qcurve"/>
      <point x="892" y="1006"/>
      <point x="1135" y="1286"/>
      <point x="1135" y="1380" type="qcurve" smooth="yes"/>
      <point x="1135" y="1412"/>
      <point x="1088" y="1467"/>
      <point x="1088" y="1487" type="qcurve" smooth="yes"/>
      <point x="1088" y="1529"/>
      <point x="1141" y="1573"/>
      <point x="1170" y="1573" type="qcurve" smooth="yes"/>
      <point x="1264" y="1573"/>
      <point x="1264" y="1462" type="qcurve" smooth="yes"/>
      <point x="1264" y="1141"/>
      <point x="279" y="459" type="qcurve"/>
      <point x="279" y="442" type="line" smooth="yes"/>
      <point x="279" y="268"/>
      <point x="386" y="178" type="qcurve" smooth="yes"/>
      <point x="494" y="88"/>
      <point x="634" y="88" type="qcurve" smooth="yes"/>
      <point x="774" y="88"/>
      <point x="1073" y="281"/>
      <point x="1242" y="639"/>
      <point x="1250" y="844" type="qcurve"/>
      <point x="1210" y="879"/>
      <point x="1146" y="879" type="qcurve" smooth="yes"/>
      <point x="1082" y="879"/>
      <point x="994" y="791"/>
      <point x="994" y="728"/>
      <point x="1024" y="640"/>
      <point x="1024" y="621" type="qcurve" smooth="yes"/>
      <point x="1024" y="563"/>
      <point x="957" y="563" type="qcurve" smooth="yes"/>
      <point x="869" y="563"/>
      <point x="869" y="645" type="qcurve" smooth="yes"/>
      <point x="869" y="753"/>
      <point x="1103" y="963"/>
      <point x="1211" y="963" type="qcurve" smooth="yes"/>
      <point x="1265" y="963"/>
      <point x="1372" y="908"/>
      <point x="1532" y="748"/>
      <point x="1576" y="748" type="qcurve" smooth="yes"/>
      <point x="1614" y="748"/>
      <point x="1614" y="811" type="qcurve" smooth="yes"/>
      <point x="1614" y="829"/>
      <point x="1598" y="892" type="qcurve"/>
      <point x="1598" y="919"/>
      <point x="1643" y="946"/>
      <point x="1663" y="946" type="qcurve" smooth="yes"/>
      <point x="1739" y="946"/>
    </contour>
    <contour>
      <point x="619" y="840" type="qcurve" smooth="yes"/>
      <point x="619" y="903"/>
      <point x="551" y="903" type="qcurve" smooth="yes"/>
      <point x="513" y="903"/>
      <point x="378" y="794"/>
      <point x="295" y="610"/>
      <point x="283" y="539" type="qcurve"/>
      <point x="503" y="690"/>
      <point x="617" y="791" type="qcurve"/>
      <point x="619" y="815"/>
    </contour>
  </outline>
</glyph>
<glyph name="quotesingle" format="1">
  <advance width="422"/>
  <unicode hex="0027"/>
  <outline>
    <contour>
      <point x="424" y="944" type="qcurve"/>
      <point x="356" y="944" type="line"/>
      <point x="379" y="1124"/>
      <point x="424" y="1395" type="qcurve" smooth="yes"/>
      <point x="448" y="1481"/>
      <point x="543" y="1481" type="qcurve" smooth="yes"/>
      <point x="619" y="1481"/>
      <point x="619" y="1426" type="qcurve" smooth="yes"/>
      <point x="619" y="1415"/>
      <point x="614" y="1397" type="qcurve" smooth="yes"/>
      <point x="541" y="1234"/>
    </contour>
  </outline>
</glyph>
<glyph name="parenright" format="1">
  <advance width="676"/>
  <unicode hex="0029"/>
  <outline>
    <contour>
      <point x="616" y="958" type="qcurve" smooth="yes"/>
      <point x="616" y="786"/>
      <point x="486" y="334"/>
      <point x="102" y="-179"/>
      <point x="-115" y="-338" type="qcurve" smooth="yes"/>
      <point x="-137" y="-354"/>
      <point x="-173" y="-354"/>
      <point x="-191" y="-330"/>
      <point x="-188" y="-308"/>
      <point x="-162" y="-289" type="qcurve" smooth="yes"/>
      <point x="65" y="-107"/>
      <point x="348" y="337"/>
      <point x="481" y="799"/>
      <point x="481" y="987" type="qcurve" smooth="yes"/>
      <point x="481" y="1251"/>
      <point x="338" y="1462" type="qcurve" smooth="yes"/>
      <point x="327" y="1478"/>
      <point x="344" y="1530"/>
      <point x="405" y="1530"/>
      <point x="416" y="1516" type="qcurve" smooth="yes"/>
      <point x="616" y="1263"/>
    </contour>
  </outline>
</glyph>
<glyph name="asterisk" format="1">
  <advance width="807"/>
  <unicode hex="002A"/>
  <outline>
    <contour>
      <point x="754" y="1187" type="line"/>
      <point x="476" y="1044" type="line"/>
      <point x="691" y="903" type="line"/>
      <point x="642" y="841" type="line"/>
      <point x="426" y="982" type="line"/>
      <point x="365" y="694" type="line"/>
      <point x="293" y="694" type="line"/>
      <point x="354" y="981" type="line"/>
      <point x="83" y="842" type="line"/>
      <point x="60" y="904" type="line"/>
      <point x="333" y="1044" type="line"/>
      <point x="117" y="1186" type="line"/>
      <point x="166" y="1248" type="line"/>
      <point x="381" y="1107" type="line"/>
      <point x="440" y="1384" type="line"/>
      <point x="512" y="1384" type="line"/>
      <point x="452" y="1105" type="line"/>
      <point x="731" y="1249" type="line"/>
    </contour>
  </outline>
</glyph>
<glyph name="comma" format="1">
  <advance width="520"/>
  <unicode hex="002C"/>
  <outline>
    <contour>
      <point x="340" y="104" type="qcurve" smooth="yes"/>
      <point x="340" y="28"/>
      <point x="243" y="-147"/>
      <point x="41" y="-322"/>
      <point x="-66" y="-369" type="qcurve" smooth="yes"/>
      <point x="-68" y="-370"/>
      <point x="-71" y="-370" type="qcurve" smooth="yes"/>
      <point x="-80" y="-370"/>
      <point x="-90" y="-353"/>
      <point x="-90" y="-346" type="qcurve" smooth="yes"/>
      <point x="-90" y="-341"/>
      <point x="-86" y="-338" type="qcurve" smooth="yes"/>
      <point x="-2" y="-276"/>
      <point x="140" y="-133"/>
      <point x="162" y="-57" type="qcurve" smooth="yes"/>
      <point x="165" y="-46"/>
      <point x="165" y="-4"/>
      <point x="147" y="4" type="qcurve" smooth="yes"/>
      <point x="64" y="43"/>
      <point x="64" y="108" type="qcurve" smooth="yes"/>
      <point x="64" y="159"/>
      <point x="151" y="236"/>
      <point x="211" y="236" type="qcurve" smooth="yes"/>
      <point x="273" y="236"/>
      <point x="340" y="148"/>
    </contour>
  </outline>
</glyph>
<glyph name="hyphen" format="1">
  <advance width="827"/>
  <unicode hex="002D"/>
  <outline>
    <contour>
      <point x="745" y="487" type="qcurve" smooth="yes"/>
      <point x="172" y="487" type="line" smooth="yes"/>
      <point x="166" y="487"/>
      <point x="166" y="525"/>
      <point x="194" y="602"/>
      <point x="205" y="602" type="qcurve" smooth="yes"/>
      <point x="778" y="602" type="line" smooth="yes"/>
      <point x="784" y="602"/>
      <point x="784" y="559"/>
      <point x="754" y="487"/>
    </contour>
  </outline>
</glyph>
<glyph name="period" format="1">
  <advance width="520"/>
  <unicode hex="002E"/>
  <outline>
    <contour>
      <point x="315" y="37"/>
      <point x="248" y="-25"/>
      <point x="134" y="-25"/>
      <point x="72" y="49"/>
      <point x="72" y="135"/>
      <point x="136" y="211"/>
      <point x="256" y="211"/>
      <point x="315" y="134"/>
    </contour>
  </outline>
</glyph>
<glyph name="slash" format="1">
  <advance width="541"/>
  <unicode hex="002F"/>
  <outline>
    <contour>
      <point x="90" y="-12" type="line" smooth="yes"/>
      <point x="84" y="-27"/>
      <point x="30" y="-27"/>
      <point x="-10" y="11"/>
      <point x="-10" y="27"/>
      <point x="-8" y="33" type="qcurve" smooth="yes"/>
      <point x="602" y="1473" type="line" smooth="yes"/>
      <point x="608" y="1488"/>
      <point x="663" y="1488"/>
      <point x="704" y="1451"/>
      <point x="704" y="1436"/>
      <point x="702" y="1430" type="qcurve" smooth="yes"/>
    </contour>
  </outline>
</glyph>
<glyph name="zero" format="1">
  <advance width="956"/>
  <unicode hex="0030"/>
  <outline>
    <contour>
      <point x="1026" y="977" type="qcurve" smooth="yes"/>
      <point x="1026" y="824"/>
      <point x="909" y="392"/>
      <point x="598" y="-16"/>
      <point x="391" y="-16" type="qcurve" smooth="yes"/>
      <point x="118" y="-16"/>
      <point x="118" y="338" type="qcurve" smooth="yes"/>
      <point x="118" y="487"/>
      <point x="241" y="942"/>
      <point x="548" y="1333"/>
      <point x="754" y="1333" type="qcurve" smooth="yes"/>
      <point x="1026" y="1333"/>
    </contour>
    <contour>
      <point x="873" y="1094" type="qcurve" smooth="yes"/>
      <point x="873" y="1268"/>
      <point x="739" y="1268" type="qcurve" smooth="yes"/>
      <point x="610" y="1268"/>
      <point x="403" y="904"/>
      <point x="272" y="412"/>
      <point x="272" y="281" type="qcurve" smooth="yes"/>
      <point x="272" y="51"/>
      <point x="406" y="51" type="qcurve" smooth="yes"/>
      <point x="540" y="51"/>
      <point x="733" y="395"/>
      <point x="873" y="920"/>
    </contour>
  </outline>
</glyph>
<glyph name="one" format="1">
  <advance width="956"/>
  <unicode hex="0031"/>
  <outline>
    <contour>
      <point x="566" y="262" type="line" smooth="yes"/>
      <point x="539" y="162"/>
      <point x="539" y="74"/>
      <point x="602" y="49"/>
      <point x="687" y="49" type="qcurve" smooth="yes"/>
      <point x="697" y="49"/>
      <point x="697" y="19"/>
      <point x="688" y="-8"/>
      <point x="672" y="-8" type="qcurve"/>
      <point x="587" y="0"/>
      <point x="230" y="0"/>
      <point x="145" y="-8" type="qcurve"/>
      <point x="135" y="-8"/>
      <point x="135" y="22"/>
      <point x="145" y="49"/>
      <point x="161" y="49" type="qcurve" smooth="yes"/>
      <point x="287" y="49"/>
      <point x="374" y="117"/>
      <point x="412" y="260" type="qcurve" smooth="yes"/>
      <point x="645" y="1131" type="line" smooth="yes"/>
      <point x="650" y="1149"/>
      <point x="650" y="1158" type="qcurve" smooth="yes"/>
      <point x="650" y="1176"/>
      <point x="625" y="1176"/>
      <point x="610" y="1169" type="qcurve" smooth="yes"/>
      <point x="468" y="1112" type="line" smooth="yes"/>
      <point x="454" y="1106"/>
      <point x="447" y="1151"/>
      <point x="460" y="1157" type="qcurve" smooth="yes"/>
      <point x="621" y="1227"/>
      <point x="837" y="1366" type="qcurve" smooth="yes"/>
      <point x="851" y="1374"/>
      <point x="870" y="1374"/>
      <point x="870" y="1364" type="qcurve"/>
      <point x="835" y="1266"/>
      <point x="814" y="1188" type="qcurve" smooth="yes"/>
    </contour>
  </outline>
</glyph>
<glyph name="two" format="1">
  <advance width="956"/>
  <unicode hex="0032"/>
  <outline>
    <contour>
      <point x="209" y="180" type="qcurve" smooth="yes"/>
      <point x="186" y="160"/>
      <point x="186" y="137"/>
      <point x="213" y="137" type="qcurve" smooth="yes"/>
      <point x="510" y="137" type="line" smooth="yes"/>
      <point x="669" y="137"/>
      <point x="747" y="194" type="qcurve" smooth="yes"/>
      <point x="782" y="219"/>
      <point x="812" y="260" type="qcurve" smooth="yes"/>
      <point x="816" y="267"/>
      <point x="865" y="267"/>
      <point x="865" y="248" type="qcurve" smooth="yes"/>
      <point x="865" y="245"/>
      <point x="864" y="244" type="qcurve" smooth="yes"/>
      <point x="706" y="25" type="line" smooth="yes"/>
      <point x="682" y="-8"/>
      <point x="645" y="-8" type="qcurve"/>
      <point x="523" y="0"/>
      <point x="97" y="0"/>
      <point x="-33" y="-8" type="qcurve"/>
      <point x="-67" y="-8"/>
      <point x="-67" y="22" type="qcurve" smooth="yes"/>
      <point x="-67" y="38"/>
      <point x="-53" y="49" type="qcurve" smooth="yes"/>
      <point x="231" y="282"/>
      <point x="618" y="663"/>
      <point x="818" y="946"/>
      <point x="818" y="1048" type="qcurve" smooth="yes"/>
      <point x="818" y="1130"/>
      <point x="726" y="1206"/>
      <point x="657" y="1206" type="qcurve" smooth="yes"/>
      <point x="511" y="1206"/>
      <point x="362" y="1024" type="qcurve" smooth="yes"/>
      <point x="357" y="1019"/>
      <point x="331" y="1019"/>
      <point x="311" y="1043"/>
      <point x="311" y="1052"/>
      <point x="313" y="1054" type="qcurve" smooth="yes"/>
      <point x="402" y="1171"/>
      <point x="648" y="1333"/>
      <point x="779" y="1333" type="qcurve" smooth="yes"/>
      <point x="886" y="1333"/>
      <point x="1009" y="1203"/>
      <point x="1009" y="1102" type="qcurve" smooth="yes"/>
      <point x="1009" y="960"/>
      <point x="772" y="653"/>
    </contour>
  </outline>
</glyph>
<glyph name="three" format="1">
  <advance width="956"/>
  <unicode hex="0033"/>
  <outline>
    <contour>
      <point x="864" y="524" type="qcurve" smooth="yes"/>
      <point x="864" y="312"/>
      <point x="499" y="-23"/>
      <point x="44" y="-23"/>
      <point x="44" y="102" type="qcurve" smooth="yes"/>
      <point x="44" y="149"/>
      <point x="119" y="201"/>
      <point x="151" y="201" type="qcurve" smooth="yes"/>
      <point x="183" y="201"/>
      <point x="278" y="53"/>
      <point x="356" y="53" type="qcurve" smooth="yes"/>
      <point x="483" y="53"/>
      <point x="685" y="346"/>
      <point x="685" y="483" type="qcurve" smooth="yes"/>
      <point x="685" y="690"/>
      <point x="470" y="690" type="qcurve" smooth="yes"/>
      <point x="404" y="690"/>
      <point x="353" y="674" type="qcurve" smooth="yes"/>
      <point x="345" y="674"/>
      <point x="345" y="719"/>
      <point x="367" y="754"/>
      <point x="374" y="754" type="qcurve" smooth="yes"/>
      <point x="538" y="754"/>
      <point x="801" y="936"/>
      <point x="801" y="1085" type="qcurve" smooth="yes"/>
      <point x="801" y="1156"/>
      <point x="720" y="1227"/>
      <point x="659" y="1227" type="qcurve" smooth="yes"/>
      <point x="540" y="1227"/>
      <point x="415" y="1090" type="qcurve" smooth="yes"/>
      <point x="412" y="1087"/>
      <point x="390" y="1087"/>
      <point x="371" y="1116"/>
      <point x="371" y="1126"/>
      <point x="374" y="1131" type="qcurve" smooth="yes"/>
      <point x="564" y="1333"/>
      <point x="754" y="1333" type="qcurve" smooth="yes"/>
      <point x="851" y="1333"/>
      <point x="962" y="1220"/>
      <point x="962" y="1133" type="qcurve" smooth="yes"/>
      <point x="962" y="909"/>
      <point x="697" y="782" type="qcurve" smooth="yes"/>
      <point x="657" y="763"/>
      <point x="657" y="748"/>
      <point x="682" y="742" type="qcurve" smooth="yes"/>
      <point x="864" y="701"/>
    </contour>
  </outline>
</glyph>
<glyph name="four" format="1">
  <advance width="956"/>
  <unicode hex="0034"/>
  <outline>
    <contour>
      <point x="683" y="127" type="line" smooth="yes"/>
      <point x="680" y="116"/>
      <point x="680" y="106" type="qcurve" smooth="yes"/>
      <point x="680" y="49"/>
      <point x="781" y="49" type="qcurve" smooth="yes"/>
      <point x="791" y="49"/>
      <point x="791" y="18"/>
      <point x="782" y="-8"/>
      <point x="766" y="-8" type="qcurve"/>
      <point x="681" y="0"/>
      <point x="421" y="0"/>
      <point x="336" y="-8" type="qcurve"/>
      <point x="326" y="-8"/>
      <point x="326" y="24"/>
      <point x="336" y="49"/>
      <point x="351" y="49" type="qcurve" smooth="yes"/>
      <point x="509" y="49"/>
      <point x="530" y="127" type="qcurve" smooth="yes"/>
      <point x="595" y="371" type="line" smooth="yes"/>
      <point x="600" y="391"/>
      <point x="580" y="391" type="qcurve" smooth="yes"/>
      <point x="103" y="391" type="line" smooth="yes"/>
      <point x="44" y="391"/>
      <point x="44" y="448"/>
      <point x="116" y="520" type="qcurve" smooth="yes"/>
      <point x="418" y="821" type="line" smooth="yes"/>
      <point x="787" y="1190"/>
      <point x="1000" y="1425" type="qcurve" smooth="yes"/>
      <point x="1014" y="1437"/>
      <point x="1093" y="1437"/>
      <point x="1093" y="1413" type="qcurve" smooth="yes"/>
      <point x="1093" y="1409"/>
      <point x="1092" y="1407" type="qcurve" smooth="yes"/>
      <point x="205" y="510" type="line" smooth="yes"/>
      <point x="191" y="496"/>
      <point x="191" y="477"/>
      <point x="214" y="477" type="qcurve" smooth="yes"/>
      <point x="603" y="477" type="line" smooth="yes"/>
      <point x="623" y="477"/>
      <point x="629" y="498" type="qcurve" smooth="yes"/>
      <point x="748" y="942" type="line" smooth="yes"/>
      <point x="752" y="957"/>
      <point x="902" y="957"/>
      <point x="902" y="942" type="qcurve" smooth="yes"/>
      <point x="783" y="498" type="line" smooth="yes"/>
      <point x="777" y="477"/>
      <point x="798" y="477" type="qcurve" smooth="yes"/>
      <point x="916" y="477" type="line" smooth="yes"/>
      <point x="924" y="477"/>
      <point x="924" y="431"/>
      <point x="900" y="391"/>
      <point x="893" y="391" type="qcurve" smooth="yes"/>
      <point x="774" y="391" type="line" smooth="yes"/>
      <point x="754" y="391"/>
      <point x="749" y="371" type="qcurve" smooth="yes"/>
    </contour>
  </outline>
</glyph>
<glyph name="five" format="1">
  <advance width="956"/>
  <unicode hex="0035"/>
  <outline>
    <contour>
      <point x="882" y="606" type="qcurve" smooth="yes"/>
      <point x="882" y="403"/>
      <point x="510" y="-16"/>
      <point x="248" y="-16" type="qcurve" smooth="yes"/>
      <point x="164" y="-16"/>
      <point x="36" y="34"/>
      <point x="36" y="84" type="qcurve" smooth="yes"/>
      <point x="36" y="140"/>
      <point x="112" y="193"/>
      <point x="146" y="193" type="qcurve" smooth="yes"/>
      <point x="180" y="193"/>
      <point x="290" y="68"/>
      <point x="354" y="68" type="qcurve" smooth="yes"/>
      <point x="494" y="68"/>
      <point x="720" y="371"/>
      <point x="720" y="520" type="qcurve" smooth="yes"/>
      <point x="720" y="743"/>
      <point x="461" y="743" type="qcurve" smooth="yes"/>
      <point x="405" y="743"/>
      <point x="327" y="724" type="qcurve" smooth="yes"/>
      <point x="305" y="719"/>
      <point x="305" y="736" type="qcurve" smooth="yes"/>
      <point x="305" y="747"/>
      <point x="310" y="758" type="qcurve" smooth="yes"/>
      <point x="543" y="1288" type="line" smooth="yes"/>
      <point x="557" y="1317"/>
      <point x="584" y="1317" type="qcurve" smooth="yes"/>
      <point x="1055" y="1317" type="line" smooth="yes"/>
      <point x="1059" y="1316"/>
      <point x="1059" y="1291"/>
      <point x="996" y="1174"/>
      <point x="982" y="1174" type="qcurve" smooth="yes"/>
      <point x="599" y="1174" type="line" smooth="yes"/>
      <point x="570" y="1174"/>
      <point x="558" y="1147" type="qcurve" smooth="yes"/>
      <point x="453" y="913" type="line" smooth="yes"/>
      <point x="441" y="887"/>
      <point x="461" y="890" type="qcurve" smooth="yes"/>
      <point x="502" y="895"/>
      <point x="541" y="895" type="qcurve" smooth="yes"/>
      <point x="882" y="895"/>
    </contour>
  </outline>
</glyph>
<glyph name="six" format="1">
  <advance width="956"/>
  <unicode hex="0036"/>
  <outline>
    <contour>
      <point x="903" y="510" type="qcurve" smooth="yes"/>
      <point x="903" y="307"/>
      <point x="588" y="-16"/>
      <point x="387" y="-16" type="qcurve" smooth="yes"/>
      <point x="117" y="-16"/>
      <point x="117" y="287" type="qcurve" smooth="yes"/>
      <point x="117" y="428"/>
      <point x="274" y="798"/>
      <point x="736" y="1254"/>
      <point x="1039" y="1378" type="qcurve" smooth="yes"/>
      <point x="1050" y="1382"/>
      <point x="1063" y="1366"/>
      <point x="1062" y="1333"/>
      <point x="1052" y="1329" type="qcurve" smooth="yes"/>
      <point x="893" y="1251"/>
      <point x="644" y="1057"/>
      <point x="447" y="807"/>
      <point x="368" y="629" type="qcurve"/>
      <point x="560" y="766"/>
      <point x="682" y="766" type="qcurve" smooth="yes"/>
      <point x="782" y="766"/>
      <point x="903" y="623"/>
    </contour>
    <contour>
      <point x="731" y="440" type="qcurve" smooth="yes"/>
      <point x="731" y="653"/>
      <point x="562" y="653" type="qcurve" smooth="yes"/>
      <point x="450" y="653"/>
      <point x="334" y="543" type="qcurve"/>
      <point x="276" y="402"/>
      <point x="276" y="264" type="qcurve" smooth="yes"/>
      <point x="276" y="63"/>
      <point x="432" y="63" type="qcurve" smooth="yes"/>
      <point x="559" y="63"/>
      <point x="731" y="306"/>
    </contour>
  </outline>
</glyph>
<glyph name="seven" format="1">
  <advance width="956"/>
  <unicode hex="0037"/>
  <outline>
    <contour>
      <point x="297" y="0" type="line" smooth="yes"/>
      <point x="286" y="-15"/>
      <point x="146" y="-15"/>
      <point x="146" y="-2" type="qcurve" smooth="yes"/>
      <point x="146" y="-1"/>
      <point x="210" y="78"/>
      <point x="324" y="238" type="qcurve" smooth="yes"/>
      <point x="962" y="1139" type="line" smooth="yes"/>
      <point x="979" y="1165"/>
      <point x="979" y="1182"/>
      <point x="949" y="1182" type="qcurve" smooth="yes"/>
      <point x="735" y="1182" type="line" smooth="yes"/>
      <point x="571" y="1182"/>
      <point x="467" y="1155"/>
      <point x="375" y="1092"/>
      <point x="339" y="1038" type="qcurve" smooth="yes"/>
      <point x="330" y="1024"/>
      <point x="273" y="1024"/>
      <point x="280" y="1038" type="qcurve" smooth="yes"/>
      <point x="399" y="1286" type="line" smooth="yes"/>
      <point x="414" y="1317"/>
      <point x="447" y="1317" type="qcurve" smooth="yes"/>
      <point x="1129" y="1317" type="line" smooth="yes"/>
      <point x="1162" y="1317"/>
      <point x="1162" y="1290"/>
      <point x="1145" y="1264" type="qcurve" smooth="yes"/>
    </contour>
  </outline>
</glyph>
<glyph name="eight" format="1">
  <advance width="956"/>
  <unicode hex="0038"/>
  <outline>
    <contour>
      <point x="1018" y="1135" type="qcurve" smooth="yes"/>
      <point x="1018" y="862"/>
      <point x="691" y="711" type="qcurve"/>
      <point x="870" y="574"/>
      <point x="870" y="406" type="qcurve" smooth="yes"/>
      <point x="870" y="238"/>
      <point x="567" y="-16"/>
      <point x="403" y="-16" type="qcurve" smooth="yes"/>
      <point x="250" y="-16"/>
      <point x="94" y="118"/>
      <point x="94" y="223" type="qcurve" smooth="yes"/>
      <point x="94" y="489"/>
      <point x="474" y="668" type="qcurve"/>
      <point x="317" y="794"/>
      <point x="317" y="924" type="qcurve" smooth="yes"/>
      <point x="317" y="1090"/>
      <point x="592" y="1333"/>
      <point x="738" y="1333" type="qcurve" smooth="yes"/>
      <point x="884" y="1333"/>
      <point x="1018" y="1220"/>
    </contour>
    <contour>
      <point x="868" y="1085" type="qcurve" smooth="yes"/>
      <point x="868" y="1167"/>
      <point x="783" y="1257"/>
      <point x="708" y="1257" type="qcurve" smooth="yes"/>
      <point x="611" y="1257"/>
      <point x="456" y="1114"/>
      <point x="456" y="1026" type="qcurve" smooth="yes"/>
      <point x="456" y="958"/>
      <point x="528" y="847"/>
      <point x="648" y="754" type="qcurve"/>
      <point x="868" y="883"/>
    </contour>
    <contour>
      <point x="707" y="338" type="qcurve" smooth="yes"/>
      <point x="707" y="471"/>
      <point x="520" y="625" type="qcurve"/>
      <point x="387" y="556"/>
      <point x="257" y="351"/>
      <point x="257" y="243" type="qcurve" smooth="yes"/>
      <point x="257" y="156"/>
      <point x="359" y="51"/>
      <point x="440" y="51" type="qcurve" smooth="yes"/>
      <point x="550" y="51"/>
      <point x="707" y="227"/>
    </contour>
  </outline>
</glyph>
<glyph name="nine" format="1">
  <advance width="956"/>
  <unicode hex="0039"/>
  <outline>
    <contour>
      <point x="1028" y="1037" type="qcurve" smooth="yes"/>
      <point x="1028" y="881"/>
      <point x="863" y="518"/>
      <point x="432" y="103"/>
      <point x="122" y="-35" type="qcurve"/>
      <point x="113" y="-35" type="line"/>
      <point x="98" y="-28"/>
      <point x="96" y="22"/>
      <point x="105" y="27" type="qcurve" smooth="yes"/>
      <point x="391" y="172"/>
      <point x="684" y="486"/>
      <point x="776" y="686" type="qcurve"/>
      <point x="614" y="551"/>
      <point x="480" y="551" type="qcurve" smooth="yes"/>
      <point x="370" y="551"/>
      <point x="240" y="700"/>
      <point x="240" y="790" type="qcurve" smooth="yes"/>
      <point x="240" y="904"/>
      <point x="342" y="1126"/>
      <point x="584" y="1333"/>
      <point x="750" y="1333" type="qcurve" smooth="yes"/>
      <point x="886" y="1333"/>
      <point x="1028" y="1171"/>
    </contour>
    <contour>
      <point x="867" y="1053" type="qcurve" smooth="yes"/>
      <point x="867" y="1251"/>
      <point x="706" y="1251" type="qcurve" smooth="yes"/>
      <point x="582" y="1251"/>
      <point x="413" y="1000"/>
      <point x="413" y="871" type="qcurve" smooth="yes"/>
      <point x="413" y="771"/>
      <point x="502" y="662"/>
      <point x="576" y="662" type="qcurve" smooth="yes"/>
      <point x="687" y="662"/>
      <point x="809" y="774" type="qcurve"/>
      <point x="867" y="915"/>
    </contour>
  </outline>
</glyph>
<glyph name="colon" format="1">
  <advance width="561"/>
  <unicode hex="003A"/>
  <outline>
    <contour>
      <point x="356" y="36"/>
      <point x="287" y="-24"/>
      <point x="173" y="-24"/>
      <point x="113" y="51"/>
      <point x="113" y="139"/>
      <point x="178" y="211"/>
      <point x="299" y="211"/>
      <point x="356" y="134"/>
    </contour>
    <contour>
      <point x="530" y="676"/>
      <point x="461" y="616"/>
      <point x="347" y="616"/>
      <point x="287" y="690"/>
      <point x="287" y="778"/>
      <point x="352" y="850"/>
      <point x="473" y="850"/>
      <point x="530" y="774"/>
    </contour>
  </outline>
</glyph>
<glyph name="semicolon" format="1">
  <advance width="561"/>
  <unicode hex="003B"/>
  <outline>
    <contour>
      <point x="381" y="104" type="qcurve" smooth="yes"/>
      <point x="381" y="28"/>
      <point x="284" y="-147"/>
      <point x="82" y="-322"/>
      <point x="-25" y="-369" type="qcurve" smooth="yes"/>
      <point x="-27" y="-370"/>
      <point x="-30" y="-370" type="qcurve" smooth="yes"/>
      <point x="-39" y="-370"/>
      <point x="-49" y="-353"/>
      <point x="-49" y="-346" type="qcurve" smooth="yes"/>
      <point x="-49" y="-341"/>
      <point x="-45" y="-338" type="qcurve" smooth="yes"/>
      <point x="39" y="-276"/>
      <point x="181" y="-133"/>
      <point x="203" y="-57" type="qcurve" smooth="yes"/>
      <point x="206" y="-46"/>
      <point x="206" y="-4"/>
      <point x="188" y="4" type="qcurve" smooth="yes"/>
      <point x="105" y="43"/>
      <point x="105" y="108" type="qcurve" smooth="yes"/>
      <point x="105" y="159"/>
      <point x="192" y="236"/>
      <point x="252" y="236" type="qcurve" smooth="yes"/>
      <point x="314" y="236"/>
      <point x="381" y="148"/>
    </contour>
    <contour>
      <point x="499" y="676"/>
      <point x="430" y="616"/>
      <point x="316" y="616"/>
      <point x="256" y="690"/>
      <point x="256" y="778"/>
      <point x="321" y="850"/>
      <point x="442" y="850"/>
      <point x="499" y="774"/>
    </contour>
  </outline>
</glyph>
<glyph name="greater" format="1">
  <advance width="1024"/>
  <unicode hex="003E"/>
  <outline>
    <contour>
      <point x="909" y="375" type="line"/>
      <point x="113" y="-2" type="line"/>
      <point x="113" y="115" type="line"/>
      <point x="762" y="420" type="line"/>
      <point x="762" y="424" type="line"/>
      <point x="113" y="727" type="line"/>
      <point x="113" y="846" type="line"/>
      <point x="909" y="467" type="line"/>
    </contour>
  </outline>
</glyph>
<glyph name="at" format="1">
  <advance width="1556"/>
  <unicode hex="0040"/>
  <outline>
    <contour>
      <point x="1526" y="858" type="qcurve" smooth="yes"/>
      <point x="1526" y="646"/>
      <point x="1234" y="358"/>
      <point x="995" y="358" type="qcurve" smooth="yes"/>
      <point x="914" y="358"/>
      <point x="872" y="389"/>
      <point x="872" y="449"/>
      <point x="922" y="596" type="qcurve"/>
      <point x="913" y="600" type="line"/>
      <point x="734" y="361"/>
      <point x="610" y="361" type="qcurve" smooth="yes"/>
      <point x="518" y="361"/>
      <point x="518" y="487" type="qcurve" smooth="yes"/>
      <point x="518" y="644"/>
      <point x="774" y="1014"/>
      <point x="924" y="1014" type="qcurve" smooth="yes"/>
      <point x="979" y="1014"/>
      <point x="1023" y="973" type="qcurve"/>
      <point x="1042" y="1029" type="line" smooth="yes"/>
      <point x="1048" y="1043"/>
      <point x="1088" y="1043" type="qcurve" smooth="yes"/>
      <point x="1135" y="1043"/>
      <point x="1129" y="1025" type="qcurve" smooth="yes"/>
      <point x="988" y="533" type="line" smooth="yes"/>
      <point x="974" y="486"/>
      <point x="974" y="458" type="qcurve" smooth="yes"/>
      <point x="974" y="426"/>
      <point x="1022" y="426" type="qcurve" smooth="yes"/>
      <point x="1200" y="426"/>
      <point x="1319" y="540.5" type="qcurve" smooth="yes"/>
      <point x="1438" y="656"/>
      <point x="1438" y="856" type="qcurve" smooth="yes"/>
      <point x="1438" y="1056"/>
      <point x="1135" y="1315"/>
      <point x="903" y="1315" type="qcurve" smooth="yes"/>
      <point x="609" y="1315"/>
      <point x="254" y="898"/>
      <point x="254" y="602" type="qcurve" smooth="yes"/>
      <point x="254" y="360"/>
      <point x="570" y="39"/>
      <point x="864" y="39" type="qcurve" smooth="yes"/>
      <point x="1015" y="39"/>
      <point x="1182" y="111" type="qcurve" smooth="yes"/>
      <point x="1186" y="112"/>
      <point x="1200" y="98"/>
      <point x="1202" y="75"/>
      <point x="1198" y="72" type="qcurve" smooth="yes"/>
      <point x="1031" y="-33"/>
      <point x="803" y="-33" type="qcurve" smooth="yes"/>
      <point x="524" y="-33"/>
      <point x="113" y="297"/>
      <point x="113" y="600" type="qcurve" smooth="yes"/>
      <point x="113" y="948"/>
      <point x="592" y="1384"/>
      <point x="922" y="1384" type="qcurve" smooth="yes"/>
      <point x="1202" y="1384"/>
      <point x="1526" y="1070"/>
    </contour>
    <contour>
      <point x="968" y="788" type="qcurve" smooth="yes"/>
      <point x="1002" y="902" type="line"/>
      <point x="969" y="965"/>
      <point x="904" y="965" type="qcurve" smooth="yes"/>
      <point x="800" y="965"/>
      <point x="629" y="629"/>
      <point x="629" y="513" type="qcurve" smooth="yes"/>
      <point x="629" y="443"/>
      <point x="673" y="443" type="qcurve" smooth="yes"/>
      <point x="728" y="443"/>
      <point x="840" y="571" type="qcurve" smooth="yes"/>
      <point x="937" y="682"/>
    </contour>
  </outline>
</glyph>
<glyph name="B" format="1">
  <advance width="1217"/>
  <unicode hex="0042"/>
  <outline>
    <contour>
      <point x="1157" y="390" type="qcurve" smooth="yes"/>
      <point x="1157" y="228"/>
      <point x="885" y="-7"/>
      <point x="550" y="-7" type="qcurve" smooth="yes"/>
      <point x="488" y="-7"/>
      <point x="341" y="0"/>
      <point x="148" y="0"/>
      <point x="29" y="-7" type="qcurve"/>
      <point x="21" y="-7"/>
      <point x="21" y="33"/>
      <point x="43" y="69"/>
      <point x="49" y="69" type="qcurve" smooth="yes"/>
      <point x="155" y="69"/>
      <point x="244" y="116"/>
      <point x="264" y="186" type="qcurve" smooth="yes"/>
      <point x="547" y="1172" type="line" smooth="yes"/>
      <point x="552" y="1189"/>
      <point x="552" y="1209" type="qcurve" smooth="yes"/>
      <point x="552" y="1256"/>
      <point x="468" y="1282"/>
      <point x="390" y="1282" type="qcurve" smooth="yes"/>
      <point x="382" y="1282"/>
      <point x="382" y="1324"/>
      <point x="404" y="1358"/>
      <point x="410" y="1358" type="qcurve"/>
      <point x="570" y="1354"/>
      <point x="713" y="1354"/>
      <point x="845" y="1358"/>
      <point x="904" y="1358" type="qcurve" smooth="yes"/>
      <point x="1076" y="1358"/>
      <point x="1257" y="1205"/>
      <point x="1257" y="1095" type="qcurve" smooth="yes"/>
      <point x="1257" y="937"/>
      <point x="1082" y="764"/>
      <point x="909" y="733" type="qcurve" smooth="yes"/>
      <point x="898" y="731"/>
      <point x="898" y="720"/>
      <point x="909" y="716" type="qcurve" smooth="yes"/>
      <point x="1157" y="633"/>
    </contour>
    <contour>
      <point x="1117" y="1074" type="qcurve" smooth="yes"/>
      <point x="1117" y="1193"/>
      <point x="942" y="1305"/>
      <point x="778" y="1305" type="qcurve" smooth="yes"/>
      <point x="728" y="1305"/>
      <point x="707" y="1230" type="qcurve" smooth="yes"/>
      <point x="583" y="795" type="line" smooth="yes"/>
      <point x="581" y="785"/>
      <point x="581" y="783" type="qcurve" smooth="yes"/>
      <point x="581" y="753"/>
      <point x="676" y="753" type="qcurve" smooth="yes"/>
      <point x="875" y="753"/>
      <point x="1117" y="938"/>
    </contour>
    <contour>
      <point x="1005" y="422" type="qcurve" smooth="yes"/>
      <point x="1005" y="556"/>
      <point x="821" y="695"/>
      <point x="663" y="695" type="qcurve" smooth="yes"/>
      <point x="553" y="695"/>
      <point x="536" y="636" type="qcurve" smooth="yes"/>
      <point x="434" y="277" type="line" smooth="yes"/>
      <point x="413" y="205"/>
      <point x="413" y="167" type="qcurve" smooth="yes"/>
      <point x="413" y="57"/>
      <point x="554" y="57" type="qcurve" smooth="yes"/>
      <point x="760" y="57"/>
      <point x="1005" y="246"/>
    </contour>
  </outline>
</glyph>
<glyph name="E" format="1">
  <advance width="1255"/>
  <unicode hex="0045"/>
  <outline>
    <contour>
      <point x="1081" y="19" type="line" smooth="yes"/>
      <point x="1073" y="-7"/>
      <point x="1053" y="-7" type="qcurve" smooth="yes"/>
      <point x="1008" y="-7"/>
      <point x="519" y="-0"/>
      <point x="162" y="0"/>
      <point x="29" y="-7" type="qcurve" smooth="yes"/>
      <point x="21" y="-7"/>
      <point x="21" y="29"/>
      <point x="43" y="69"/>
      <point x="49" y="69" type="qcurve" smooth="yes"/>
      <point x="144" y="69"/>
      <point x="240" y="111"/>
      <point x="262" y="186" type="qcurve" smooth="yes"/>
      <point x="545" y="1172" type="line" smooth="yes"/>
      <point x="549" y="1186"/>
      <point x="549" y="1205" type="qcurve" smooth="yes"/>
      <point x="549" y="1282"/>
      <point x="392" y="1282" type="qcurve" smooth="yes"/>
      <point x="384" y="1282"/>
      <point x="384" y="1321"/>
      <point x="406" y="1358"/>
      <point x="412" y="1358" type="qcurve" smooth="yes"/>
      <point x="545" y="1354"/>
      <point x="830" y="1354"/>
      <point x="1199" y="1358"/>
      <point x="1343" y="1358" type="qcurve" smooth="yes"/>
      <point x="1405" y="1358"/>
      <point x="1405" y="1336" type="qcurve" smooth="yes"/>
      <point x="1405" y="1331"/>
      <point x="1402" y="1320" type="qcurve" smooth="yes"/>
      <point x="1314" y="1010" type="line" smooth="yes"/>
      <point x="1310" y="996"/>
      <point x="1234" y="996"/>
      <point x="1234" y="1010" type="qcurve"/>
      <point x="1245" y="1066"/>
      <point x="1245" y="1088" type="qcurve" smooth="yes"/>
      <point x="1245" y="1183"/>
      <point x="1117" y="1277"/>
      <point x="1054" y="1280" type="qcurve" smooth="yes"/>
      <point x="841" y="1289"/>
      <point x="751" y="1289" type="qcurve" smooth="yes"/>
      <point x="722" y="1289"/>
      <point x="716" y="1267" type="qcurve" smooth="yes"/>
      <point x="556" y="713" type="line" smooth="yes"/>
      <point x="554" y="704"/>
      <point x="554" y="698" type="qcurve" smooth="yes"/>
      <point x="554" y="676"/>
      <point x="583" y="676" type="qcurve" smooth="yes"/>
      <point x="775" y="676" type="line" smooth="yes"/>
      <point x="844" y="676"/>
      <point x="866" y="688" type="qcurve" smooth="yes"/>
      <point x="901" y="706"/>
      <point x="917" y="764" type="qcurve" smooth="yes"/>
      <point x="944" y="864" type="line" smooth="yes"/>
      <point x="948" y="879"/>
      <point x="1017" y="879"/>
      <point x="1017" y="864" type="qcurve"/>
      <point x="929" y="613"/>
      <point x="894" y="436" type="qcurve"/>
      <point x="890" y="421"/>
      <point x="827" y="421"/>
      <point x="827" y="437" type="qcurve"/>
      <point x="852" y="527" type="line" smooth="yes"/>
      <point x="859" y="552"/>
      <point x="859" y="566" type="qcurve" smooth="yes"/>
      <point x="859" y="607"/>
      <point x="756" y="607" type="qcurve" smooth="yes"/>
      <point x="558" y="607" type="line" smooth="yes"/>
      <point x="525" y="607"/>
      <point x="518" y="581" type="qcurve" smooth="yes"/>
      <point x="437" y="300" type="line" smooth="yes"/>
      <point x="410" y="206"/>
      <point x="410" y="160" type="qcurve" smooth="yes"/>
      <point x="410" y="61"/>
      <point x="524" y="61" type="qcurve"/>
      <point x="764" y="69" type="line" smooth="yes"/>
      <point x="997" y="77"/>
      <point x="1092" y="344" type="qcurve" smooth="yes"/>
      <point x="1097" y="358"/>
      <point x="1175" y="358"/>
      <point x="1175" y="344" type="qcurve"/>
    </contour>
  </outline>
</glyph>
<glyph name="F" format="1">
  <advance width="1217"/>
  <unicode hex="0046"/>
  <outline>
    <contour>
      <point x="407" y="186" type="line" smooth="yes"/>
      <point x="401" y="165"/>
      <point x="401" y="148" type="qcurve" smooth="yes"/>
      <point x="401" y="69"/>
      <point x="565" y="69" type="qcurve" smooth="yes"/>
      <point x="572" y="69"/>
      <point x="572" y="26"/>
      <point x="551" y="-7"/>
      <point x="545" y="-7" type="qcurve"/>
      <point x="459" y="0"/>
      <point x="137" y="0"/>
      <point x="29" y="-7" type="qcurve"/>
      <point x="21" y="-7"/>
      <point x="21" y="29"/>
      <point x="43" y="69"/>
      <point x="49" y="69" type="qcurve" smooth="yes"/>
      <point x="144" y="69"/>
      <point x="184" y="87" type="qcurve" smooth="yes"/>
      <point x="240" y="111"/>
      <point x="262" y="186" type="qcurve" smooth="yes"/>
      <point x="545" y="1172" type="line" smooth="yes"/>
      <point x="549" y="1186"/>
      <point x="549" y="1205" type="qcurve" smooth="yes"/>
      <point x="549" y="1282"/>
      <point x="392" y="1282" type="qcurve" smooth="yes"/>
      <point x="384" y="1282"/>
      <point x="384" y="1321"/>
      <point x="406" y="1358"/>
      <point x="412" y="1358" type="qcurve"/>
      <point x="538" y="1354"/>
      <point x="731" y="1354"/>
      <point x="1234" y="1358"/>
      <point x="1343" y="1358" type="qcurve" smooth="yes"/>
      <point x="1405" y="1358"/>
      <point x="1405" y="1336" type="qcurve" smooth="yes"/>
      <point x="1405" y="1331"/>
      <point x="1402" y="1320" type="qcurve" smooth="yes"/>
      <point x="1314" y="1010" type="line" smooth="yes"/>
      <point x="1310" y="996"/>
      <point x="1231" y="996"/>
      <point x="1234" y="1010" type="qcurve" smooth="yes"/>
      <point x="1245" y="1066"/>
      <point x="1245" y="1088" type="qcurve" smooth="yes"/>
      <point x="1245" y="1180"/>
      <point x="1117" y="1277"/>
      <point x="1054" y="1280" type="qcurve" smooth="yes"/>
      <point x="841" y="1289"/>
      <point x="751" y="1289" type="qcurve" smooth="yes"/>
      <point x="722" y="1289"/>
      <point x="716" y="1267" type="qcurve" smooth="yes"/>
      <point x="567" y="753" type="line" smooth="yes"/>
      <point x="565" y="746"/>
      <point x="565" y="734" type="qcurve" smooth="yes"/>
      <point x="565" y="716"/>
      <point x="594" y="716" type="qcurve" smooth="yes"/>
      <point x="749" y="716" type="line" smooth="yes"/>
      <point x="870" y="716"/>
      <point x="906" y="846" type="qcurve" smooth="yes"/>
      <point x="938" y="963" type="line" smooth="yes"/>
      <point x="942" y="977"/>
      <point x="1008" y="977"/>
      <point x="1006" y="963" type="qcurve"/>
      <point x="978" y="890"/>
      <point x="859" y="467"/>
      <point x="844" y="395" type="qcurve"/>
      <point x="840" y="380"/>
      <point x="769" y="380"/>
      <point x="773" y="395" type="qcurve" smooth="yes"/>
      <point x="808" y="512" type="line" smooth="yes"/>
      <point x="815" y="535"/>
      <point x="815" y="559" type="qcurve" smooth="yes"/>
      <point x="815" y="640"/>
      <point x="728" y="640" type="qcurve" smooth="yes"/>
      <point x="567" y="640" type="line" smooth="yes"/>
      <point x="535" y="640"/>
      <point x="527" y="613" type="qcurve" smooth="yes"/>
    </contour>
  </outline>
</glyph>
<glyph name="H" format="1">
  <advance width="1503"/>
  <unicode hex="0048"/>
  <outline>
    <contour>
      <point x="1167" y="186" type="line" smooth="yes"/>
      <point x="1161" y="165"/>
      <point x="1161" y="152" type="qcurve" smooth="yes"/>
      <point x="1161" y="69"/>
      <point x="1318" y="69" type="qcurve" smooth="yes"/>
      <point x="1326" y="69"/>
      <point x="1326" y="33"/>
      <point x="1304" y="-7"/>
      <point x="1297" y="-7" type="qcurve"/>
      <point x="1209" y="0"/>
      <point x="890" y="0"/>
      <point x="789" y="-7" type="qcurve"/>
      <point x="782" y="-7"/>
      <point x="782" y="32"/>
      <point x="804" y="69"/>
      <point x="810" y="69" type="qcurve" smooth="yes"/>
      <point x="917" y="69"/>
      <point x="1004" y="123"/>
      <point x="1022" y="186" type="qcurve" smooth="yes"/>
      <point x="1148" y="627" type="line" smooth="yes"/>
      <point x="1152" y="642"/>
      <point x="1152" y="663"/>
      <point x="1123" y="663" type="qcurve" smooth="yes"/>
      <point x="576" y="663" type="line" smooth="yes"/>
      <point x="544" y="663"/>
      <point x="534" y="627" type="qcurve" smooth="yes"/>
      <point x="407" y="186" type="line" smooth="yes"/>
      <point x="401" y="165"/>
      <point x="401" y="151" type="qcurve" smooth="yes"/>
      <point x="401" y="69"/>
      <point x="558" y="69" type="qcurve" smooth="yes"/>
      <point x="565" y="69"/>
      <point x="565" y="26"/>
      <point x="543" y="-7"/>
      <point x="536" y="-7" type="qcurve"/>
      <point x="451" y="0"/>
      <point x="107" y="0"/>
      <point x="29" y="-7" type="qcurve"/>
      <point x="21" y="-7"/>
      <point x="21" y="29"/>
      <point x="43" y="69"/>
      <point x="49" y="69" type="qcurve" smooth="yes"/>
      <point x="167" y="69"/>
      <point x="246" y="131"/>
      <point x="262" y="186" type="qcurve" smooth="yes"/>
      <point x="545" y="1172" type="line" smooth="yes"/>
      <point x="550" y="1189"/>
      <point x="550" y="1207" type="qcurve" smooth="yes"/>
      <point x="550" y="1287"/>
      <point x="394" y="1287" type="qcurve" smooth="yes"/>
      <point x="386" y="1287"/>
      <point x="386" y="1326"/>
      <point x="408" y="1363"/>
      <point x="414" y="1363" type="qcurve"/>
      <point x="460" y="1358"/>
      <point x="878" y="1358"/>
      <point x="924" y="1363" type="qcurve"/>
      <point x="932" y="1363"/>
      <point x="932" y="1324"/>
      <point x="910" y="1287"/>
      <point x="904" y="1287" type="qcurve" smooth="yes"/>
      <point x="787" y="1287"/>
      <point x="705" y="1228"/>
      <point x="689" y="1172" type="qcurve" smooth="yes"/>
      <point x="577" y="780" type="line" smooth="yes"/>
      <point x="572" y="761"/>
      <point x="572" y="739"/>
      <point x="600" y="739" type="qcurve" smooth="yes"/>
      <point x="1146" y="739" type="line" smooth="yes"/>
      <point x="1180" y="739"/>
      <point x="1192" y="780" type="qcurve" smooth="yes"/>
      <point x="1305" y="1172" type="line" smooth="yes"/>
      <point x="1310" y="1189"/>
      <point x="1310" y="1207" type="qcurve" smooth="yes"/>
      <point x="1310" y="1287"/>
      <point x="1154" y="1287" type="qcurve" smooth="yes"/>
      <point x="1146" y="1287"/>
      <point x="1146" y="1330"/>
      <point x="1168" y="1363"/>
      <point x="1175" y="1363" type="qcurve"/>
      <point x="1250" y="1358"/>
      <point x="1606" y="1358"/>
      <point x="1684" y="1363" type="qcurve"/>
      <point x="1692" y="1363"/>
      <point x="1692" y="1321"/>
      <point x="1670" y="1287"/>
      <point x="1664" y="1287" type="qcurve" smooth="yes"/>
      <point x="1557" y="1287"/>
      <point x="1467" y="1235"/>
      <point x="1449" y="1172" type="qcurve" smooth="yes"/>
    </contour>
  </outline>
</glyph>
<glyph name="J" format="1">
  <advance width="720"/>
  <unicode hex="004A"/>
  <outline>
    <contour>
      <point x="409" y="160" type="line" smooth="yes"/>
      <point x="323" y="-129"/>
      <point x="2" y="-419"/>
      <point x="-160" y="-419" type="qcurve" smooth="yes"/>
      <point x="-191" y="-419"/>
      <point x="-265" y="-376"/>
      <point x="-265" y="-285"/>
      <point x="-191" y="-216"/>
      <point x="-123" y="-216" type="qcurve" smooth="yes"/>
      <point x="-69" y="-216"/>
      <point x="-4" y="-284"/>
      <point x="-4" y="-317" type="qcurve"/>
      <point x="76" y="-292"/>
      <point x="205" y="-87"/>
      <point x="410" y="634" type="qcurve" smooth="yes"/>
      <point x="563" y="1172" type="line" smooth="yes"/>
      <point x="568" y="1190"/>
      <point x="568" y="1201" type="qcurve" smooth="yes"/>
      <point x="568" y="1287"/>
      <point x="407" y="1287" type="qcurve" smooth="yes"/>
      <point x="399" y="1287"/>
      <point x="399" y="1330"/>
      <point x="421" y="1363"/>
      <point x="428" y="1363" type="qcurve"/>
      <point x="475" y="1358"/>
      <point x="864" y="1358"/>
      <point x="936" y="1363" type="qcurve"/>
      <point x="944" y="1363"/>
      <point x="944" y="1322"/>
      <point x="922" y="1287"/>
      <point x="915" y="1287" type="qcurve" smooth="yes"/>
      <point x="817" y="1287"/>
      <point x="728" y="1234"/>
      <point x="709" y="1172" type="qcurve" smooth="yes"/>
    </contour>
  </outline>
</glyph>
<glyph name="N" format="1">
  <advance width="1539"/>
  <unicode hex="004E"/>
  <outline>
    <contour>
      <point x="1232" y="4" type="line" smooth="yes"/>
      <point x="1223" y="-29"/>
      <point x="1190" y="-29"/>
      <point x="1175" y="0" type="qcurve" smooth="yes"/>
      <point x="636" y="1117" type="line" smooth="yes"/>
      <point x="627" y="1137"/>
      <point x="594" y="1137"/>
      <point x="587" y="1106" type="qcurve" smooth="yes"/>
      <point x="325" y="186" type="line" smooth="yes"/>
      <point x="317" y="159"/>
      <point x="317" y="141" type="qcurve" smooth="yes"/>
      <point x="317" y="69"/>
      <point x="450" y="69" type="qcurve" smooth="yes"/>
      <point x="458" y="69"/>
      <point x="458" y="27"/>
      <point x="436" y="-7"/>
      <point x="430" y="-7" type="qcurve"/>
      <point x="344" y="0"/>
      <point x="115" y="0"/>
      <point x="29" y="-7" type="qcurve"/>
      <point x="21" y="-7"/>
      <point x="21" y="33"/>
      <point x="43" y="69"/>
      <point x="49" y="69" type="qcurve" smooth="yes"/>
      <point x="139" y="69"/>
      <point x="235" y="111"/>
      <point x="256" y="186" type="qcurve" smooth="yes"/>
      <point x="520" y="1114" type="line" smooth="yes"/>
      <point x="534" y="1164"/>
      <point x="534" y="1260"/>
      <point x="486" y="1277" type="qcurve" smooth="yes"/>
      <point x="456" y="1287"/>
      <point x="390" y="1287" type="qcurve" smooth="yes"/>
      <point x="382" y="1287"/>
      <point x="382" y="1329"/>
      <point x="404" y="1363"/>
      <point x="410" y="1363" type="qcurve"/>
      <point x="458" y="1358"/>
      <point x="623" y="1358"/>
      <point x="680" y="1349"/>
      <point x="698" y="1312" type="qcurve" smooth="yes"/>
      <point x="1188" y="288" type="line" smooth="yes"/>
      <point x="1202" y="260"/>
      <point x="1218" y="260" type="qcurve" smooth="yes"/>
      <point x="1234" y="260"/>
      <point x="1241" y="290" type="qcurve" smooth="yes"/>
      <point x="1498" y="1172" type="line" smooth="yes"/>
      <point x="1505" y="1196"/>
      <point x="1505" y="1216" type="qcurve" smooth="yes"/>
      <point x="1505" y="1287"/>
      <point x="1356" y="1287" type="qcurve" smooth="yes"/>
      <point x="1349" y="1287"/>
      <point x="1349" y="1327"/>
      <point x="1373" y="1363"/>
      <point x="1379" y="1363" type="qcurve"/>
      <point x="1426" y="1358"/>
      <point x="1718" y="1358"/>
      <point x="1765" y="1363" type="qcurve"/>
      <point x="1772" y="1363"/>
      <point x="1772" y="1321"/>
      <point x="1750" y="1287"/>
      <point x="1744" y="1287" type="qcurve" smooth="yes"/>
      <point x="1666" y="1287"/>
      <point x="1588" y="1248"/>
      <point x="1566" y="1172" type="qcurve" smooth="yes"/>
    </contour>
  </outline>
</glyph>
<glyph name="Q" format="1">
  <advance width="1478"/>
  <unicode hex="0051"/>
  <outline>
    <contour>
      <point x="1534" y="886" type="qcurve" smooth="yes"/>
      <point x="1534" y="731"/>
      <point x="1395" y="391"/>
      <point x="1101" y="92"/>
      <point x="944" y="29" type="qcurve" smooth="yes"/>
      <point x="936" y="26"/>
      <point x="936" y="14"/>
      <point x="940" y="9" type="qcurve" smooth="yes"/>
      <point x="992" y="-54"/>
      <point x="1314" y="-229"/>
      <point x="1517" y="-284" type="qcurve" smooth="yes"/>
      <point x="1526" y="-287"/>
      <point x="1526" y="-324"/>
      <point x="1492" y="-361"/>
      <point x="1482" y="-359" type="qcurve" smooth="yes"/>
      <point x="1210" y="-302"/>
      <point x="688" y="-100"/>
      <point x="347" y="67"/>
      <point x="217" y="267"/>
      <point x="217" y="443" type="qcurve" smooth="yes"/>
      <point x="217" y="796"/>
      <point x="768" y="1385"/>
      <point x="1079" y="1385" type="qcurve" smooth="yes"/>
      <point x="1295" y="1385"/>
      <point x="1534" y="1101"/>
    </contour>
    <contour>
      <point x="1371" y="886" type="qcurve" smooth="yes"/>
      <point x="1371" y="1080"/>
      <point x="1183" y="1313"/>
      <point x="1035" y="1314" type="qcurve" smooth="yes"/>
      <point x="878" y="1314"/>
      <point x="564" y="1054"/>
      <point x="380" y="650"/>
      <point x="380" y="448" type="qcurve" smooth="yes"/>
      <point x="380" y="286"/>
      <point x="573" y="47"/>
      <point x="707" y="47" type="qcurve" smooth="yes"/>
      <point x="980" y="47"/>
      <point x="1371" y="582"/>
    </contour>
  </outline>
</glyph>
<glyph name="R" format="1">
  <advance width="1358"/>
  <unicode hex="0052"/>
  <outline>
    <contour>
      <point x="1361" y="1083" type="qcurve" smooth="yes"/>
      <point x="1361" y="953"/>
      <point x="1163" y="690"/>
      <point x="930" y="625" type="qcurve" smooth="yes"/>
      <point x="912" y="620"/>
      <point x="912" y="589"/>
      <point x="917" y="573" type="qcurve" smooth="yes"/>
      <point x="1002" y="296"/>
      <point x="1146" y="120" type="qcurve" smooth="yes"/>
      <point x="1232" y="15"/>
      <point x="1343" y="15" type="qcurve" smooth="yes"/>
      <point x="1352" y="15"/>
      <point x="1352" y="5" type="qcurve" smooth="yes"/>
      <point x="1352" y="-19"/>
      <point x="1331" y="-21" type="qcurve" smooth="yes"/>
      <point x="1290" y="-24"/>
      <point x="1252" y="-24" type="qcurve" smooth="yes"/>
      <point x="1139" y="-24"/>
      <point x="1010" y="23"/>
      <point x="881" y="178"/>
      <point x="856" y="245" type="qcurve" smooth="yes"/>
      <point x="764" y="487" type="line" smooth="yes"/>
      <point x="744" y="538"/>
      <point x="714" y="574" type="qcurve" smooth="yes"/>
      <point x="696" y="596"/>
      <point x="598" y="596"/>
      <point x="568" y="599.5" type="qcurve" smooth="yes"/>
      <point x="538" y="604"/>
      <point x="531" y="598" type="qcurve" smooth="yes"/>
      <point x="523" y="592"/>
      <point x="521" y="583" type="qcurve" smooth="yes"/>
      <point x="409" y="186" type="line" smooth="yes"/>
      <point x="402" y="161"/>
      <point x="402" y="143" type="qcurve" smooth="yes"/>
      <point x="402" y="69"/>
      <point x="563" y="69" type="qcurve" smooth="yes"/>
      <point x="570" y="69"/>
      <point x="570" y="26"/>
      <point x="549" y="-7"/>
      <point x="543" y="-7" type="qcurve"/>
      <point x="456" y="0"/>
      <point x="115" y="0"/>
      <point x="29" y="-7" type="qcurve"/>
      <point x="21" y="-7"/>
      <point x="21" y="33"/>
      <point x="43" y="69"/>
      <point x="49" y="69" type="qcurve" smooth="yes"/>
      <point x="152" y="69"/>
      <point x="245" y="119"/>
      <point x="264" y="186" type="qcurve" smooth="yes"/>
      <point x="547" y="1172" type="line" smooth="yes"/>
      <point x="552" y="1189"/>
      <point x="552" y="1215" type="qcurve" smooth="yes"/>
      <point x="552" y="1282"/>
      <point x="390" y="1282" type="qcurve" smooth="yes"/>
      <point x="382" y="1282"/>
      <point x="382" y="1324"/>
      <point x="404" y="1358"/>
      <point x="410" y="1358" type="qcurve"/>
      <point x="510" y="1355"/>
      <point x="796" y="1355"/>
      <point x="906" y="1358"/>
      <point x="984" y="1358" type="qcurve" smooth="yes"/>
      <point x="1147" y="1358"/>
      <point x="1361" y="1213"/>
    </contour>
    <contour>
      <point x="1199" y="1066" type="qcurve" smooth="yes"/>
      <point x="1199" y="1168"/>
      <point x="1030" y="1296"/>
      <point x="862" y="1296" type="qcurve" smooth="yes"/>
      <point x="768" y="1296"/>
      <point x="721" y="1281"/>
      <point x="716" y="1265" type="qcurve" smooth="yes"/>
      <point x="554" y="698" type="line" smooth="yes"/>
      <point x="553" y="694"/>
      <point x="553" y="675"/>
      <point x="570" y="671" type="qcurve" smooth="yes"/>
      <point x="639" y="658"/>
      <point x="687" y="658" type="qcurve" smooth="yes"/>
      <point x="897" y="658"/>
      <point x="1199" y="876"/>
    </contour>
  </outline>
</glyph>
<glyph name="S" format="1">
  <advance width="1042"/>
  <unicode hex="0053"/>
  <outline>
    <contour>
      <point x="991" y="504" type="qcurve" smooth="yes"/>
      <point x="991" y="303"/>
      <point x="668" y="-27"/>
      <point x="464" y="-27" type="qcurve" smooth="yes"/>
      <point x="349" y="-27"/>
      <point x="222" y="13"/>
      <point x="116" y="73" type="qcurve"/>
      <point x="116" y="145" type="line"/>
      <point x="127" y="318"/>
      <point x="151" y="365" type="qcurve" smooth="yes"/>
      <point x="159" y="381"/>
      <point x="190" y="381" type="qcurve" smooth="yes"/>
      <point x="220" y="381"/>
      <point x="221" y="374" type="qcurve"/>
      <point x="214" y="336"/>
      <point x="214" y="307" type="qcurve" smooth="yes"/>
      <point x="214" y="178"/>
      <point x="384" y="48"/>
      <point x="522" y="48" type="qcurve" smooth="yes"/>
      <point x="636" y="48"/>
      <point x="821" y="261"/>
      <point x="821" y="385" type="qcurve" smooth="yes"/>
      <point x="821" y="541"/>
      <point x="668" y="607" type="qcurve" smooth="yes"/>
      <point x="490" y="683" type="line" smooth="yes"/>
      <point x="338" y="748"/>
      <point x="338" y="934" type="qcurve" smooth="yes"/>
      <point x="338" y="1120"/>
      <point x="646" y="1385"/>
      <point x="839" y="1385" type="qcurve" smooth="yes"/>
      <point x="946" y="1385"/>
      <point x="1110" y="1345"/>
      <point x="1133" y="1345" type="qcurve"/>
      <point x="1131" y="1248"/>
      <point x="1098" y="1081" type="qcurve" smooth="yes"/>
      <point x="1093" y="1062"/>
      <point x="1028" y="1062"/>
      <point x="1026" y="1079" type="qcurve" smooth="yes"/>
      <point x="1025" y="1135" type="line" smooth="yes"/>
      <point x="1007" y="1318"/>
      <point x="801" y="1318" type="qcurve" smooth="yes"/>
      <point x="670" y="1318"/>
      <point x="488" y="1128"/>
      <point x="488" y="996" type="qcurve" smooth="yes"/>
      <point x="488" y="890"/>
      <point x="618" y="833" type="qcurve" smooth="yes"/>
      <point x="860" y="730" type="line" smooth="yes"/>
      <point x="991" y="674"/>
    </contour>
  </outline>
</glyph>
<glyph name="T" format="1">
  <advance width="1275"/>
  <unicode hex="0054"/>
  <outline>
    <contour>
      <point x="699" y="186" type="line" smooth="yes"/>
      <point x="694" y="169"/>
      <point x="694" y="149" type="qcurve" smooth="yes"/>
      <point x="694" y="69"/>
      <point x="851" y="69" type="qcurve" smooth="yes"/>
      <point x="858" y="69"/>
      <point x="858" y="26"/>
      <point x="837" y="-7"/>
      <point x="831" y="-7" type="qcurve"/>
      <point x="743" y="0"/>
      <point x="390" y="0"/>
      <point x="304" y="-7" type="qcurve"/>
      <point x="296" y="-7"/>
      <point x="296" y="35"/>
      <point x="318" y="69"/>
      <point x="324" y="69" type="qcurve" smooth="yes"/>
      <point x="440" y="69"/>
      <point x="539" y="125"/>
      <point x="556" y="186" type="qcurve" smooth="yes"/>
      <point x="857" y="1240" type="line" smooth="yes"/>
      <point x="862" y="1258"/>
      <point x="862" y="1263" type="qcurve" smooth="yes"/>
      <point x="862" y="1282"/>
      <point x="825" y="1282" type="qcurve" smooth="yes"/>
      <point x="687" y="1282" type="line" smooth="yes"/>
      <point x="432" y="1282"/>
      <point x="353" y="1006" type="qcurve" smooth="yes"/>
      <point x="349" y="992"/>
      <point x="277" y="992"/>
      <point x="275" y="1006" type="qcurve"/>
      <point x="367" y="1327" type="line" smooth="yes"/>
      <point x="376" y="1358"/>
      <point x="445" y="1358" type="qcurve" smooth="yes"/>
      <point x="557" y="1358"/>
      <point x="819" y="1354"/>
      <point x="1053" y="1354"/>
      <point x="1324" y="1358"/>
      <point x="1474" y="1358" type="qcurve" smooth="yes"/>
      <point x="1546" y="1358"/>
      <point x="1546" y="1338" type="qcurve" smooth="yes"/>
      <point x="1449" y="1006" type="line" smooth="yes"/>
      <point x="1445" y="992"/>
      <point x="1366" y="992"/>
      <point x="1369" y="1006" type="qcurve" smooth="yes"/>
      <point x="1384" y="1076"/>
      <point x="1384" y="1104" type="qcurve" smooth="yes"/>
      <point x="1384" y="1282"/>
      <point x="1188" y="1282" type="qcurve" smooth="yes"/>
      <point x="1054" y="1282" type="line" smooth="yes"/>
      <point x="1013" y="1282"/>
      <point x="1002" y="1245" type="qcurve" smooth="yes"/>
    </contour>
  </outline>
</glyph>
<glyph name="U" format="1">
  <advance width="1482"/>
  <unicode hex="0055"/>
  <outline>
    <contour>
      <point x="1456" y="890" type="line" smooth="yes"/>
      <point x="1346" y="503"/>
      <point x="1200" y="189"/>
      <point x="894" y="-27"/>
      <point x="665" y="-27" type="qcurve" smooth="yes"/>
      <point x="482" y="-27"/>
      <point x="295" y="112"/>
      <point x="295" y="263" type="qcurve" smooth="yes"/>
      <point x="295" y="365"/>
      <point x="344" y="539" type="qcurve" smooth="yes"/>
      <point x="525" y="1172" type="line" smooth="yes"/>
      <point x="533" y="1201"/>
      <point x="533" y="1218" type="qcurve" smooth="yes"/>
      <point x="533" y="1262"/>
      <point x="462" y="1287"/>
      <point x="392" y="1287" type="qcurve" smooth="yes"/>
      <point x="383" y="1287"/>
      <point x="383" y="1332"/>
      <point x="404" y="1363"/>
      <point x="410" y="1363" type="qcurve"/>
      <point x="458" y="1358"/>
      <point x="852" y="1358"/>
      <point x="898" y="1363" type="qcurve"/>
      <point x="905" y="1363"/>
      <point x="905" y="1320"/>
      <point x="883" y="1287"/>
      <point x="877" y="1287" type="qcurve" smooth="yes"/>
      <point x="750" y="1287"/>
      <point x="686" y="1225"/>
      <point x="671" y="1172" type="qcurve" smooth="yes"/>
      <point x="531" y="687" type="line" smooth="yes"/>
      <point x="442" y="371"/>
      <point x="442" y="165"/>
      <point x="512.5" y="107" type="qcurve" smooth="yes"/>
      <point x="584" y="49"/>
      <point x="710" y="49" type="qcurve" smooth="yes"/>
      <point x="910" y="49"/>
      <point x="1168" y="257"/>
      <point x="1234" y="487" type="qcurve" smooth="yes"/>
      <point x="1431" y="1172" type="line" smooth="yes"/>
      <point x="1437" y="1194"/>
      <point x="1437" y="1213" type="qcurve" smooth="yes"/>
      <point x="1437" y="1287"/>
      <point x="1299" y="1287" type="qcurve" smooth="yes"/>
      <point x="1292" y="1287"/>
      <point x="1292" y="1329"/>
      <point x="1314" y="1363"/>
      <point x="1320" y="1363" type="qcurve"/>
      <point x="1390" y="1358"/>
      <point x="1707" y="1358"/>
      <point x="1753" y="1363" type="qcurve"/>
      <point x="1761" y="1363"/>
      <point x="1761" y="1321"/>
      <point x="1739" y="1287"/>
      <point x="1733" y="1287" type="qcurve" smooth="yes"/>
      <point x="1645" y="1287"/>
      <point x="1556" y="1243"/>
      <point x="1536" y="1172" type="qcurve" smooth="yes"/>
    </contour>
  </outline>
</glyph>
<glyph name="V" format="1">
  <advance width="1206"/>
  <unicode hex="0056"/>
  <outline>
    <contour>
      <point x="953" y="676" type="qcurve" smooth="yes"/>
      <point x="487" y="-13" type="line" smooth="yes"/>
      <point x="470" y="-38"/>
      <point x="440" y="-38"/>
      <point x="437" y="6" type="qcurve" smooth="yes"/>
      <point x="363" y="1172" type="line" smooth="yes"/>
      <point x="359" y="1242"/>
      <point x="296" y="1287"/>
      <point x="215" y="1287" type="qcurve" smooth="yes"/>
      <point x="208" y="1287"/>
      <point x="208" y="1330"/>
      <point x="230" y="1363"/>
      <point x="237" y="1363" type="qcurve" smooth="yes"/>
      <point x="293" y="1358"/>
      <point x="620" y="1358"/>
      <point x="698" y="1363" type="qcurve" smooth="yes"/>
      <point x="705" y="1363"/>
      <point x="705" y="1322"/>
      <point x="683" y="1287"/>
      <point x="676" y="1287" type="qcurve" smooth="yes"/>
      <point x="569" y="1287"/>
      <point x="537" y="1258" type="qcurve" smooth="yes"/>
      <point x="508" y="1232"/>
      <point x="508" y="1193" type="qcurve" smooth="yes"/>
      <point x="508" y="1189"/>
      <point x="510" y="1159" type="qcurve" smooth="yes"/>
      <point x="563" y="281" type="line" smooth="yes"/>
      <point x="565" y="253"/>
      <point x="587" y="253"/>
      <point x="603" y="277" type="qcurve" smooth="yes"/>
      <point x="938" y="775" type="line" smooth="yes"/>
      <point x="991" y="853"/>
      <point x="1183" y="1163" type="qcurve" smooth="yes"/>
      <point x="1214" y="1213"/>
      <point x="1214" y="1242" type="qcurve" smooth="yes"/>
      <point x="1214" y="1287"/>
      <point x="1110" y="1287" type="qcurve" smooth="yes"/>
      <point x="1102" y="1287"/>
      <point x="1102" y="1326"/>
      <point x="1124" y="1363"/>
      <point x="1130" y="1363" type="qcurve" smooth="yes"/>
      <point x="1173" y="1358"/>
      <point x="1504" y="1358"/>
      <point x="1559" y="1363" type="qcurve" smooth="yes"/>
      <point x="1566" y="1363"/>
      <point x="1566" y="1321"/>
      <point x="1544" y="1287"/>
      <point x="1538" y="1287" type="qcurve" smooth="yes"/>
      <point x="1389" y="1285"/>
      <point x="1325" y="1201" type="qcurve" smooth="yes"/>
      <point x="1172" y="1000"/>
    </contour>
  </outline>
</glyph>
<glyph name="W" format="1">
  <advance width="1944"/>
  <unicode hex="0057"/>
  <outline>
    <contour>
      <point x="1703" y="686" type="qcurve" smooth="yes"/>
      <point x="1219" y="-13" type="line" smooth="yes"/>
      <point x="1203" y="-36"/>
      <point x="1191" y="-36" type="qcurve" smooth="yes"/>
      <point x="1178" y="-36"/>
      <point x="1169" y="6" type="qcurve" smooth="yes"/>
      <point x="1062" y="511" type="line" smooth="yes"/>
      <point x="1058" y="536"/>
      <point x="1051" y="536" type="qcurve" smooth="yes"/>
      <point x="1044" y="536"/>
      <point x="1027" y="511" type="qcurve" smooth="yes"/>
      <point x="665" y="-13" type="line" smooth="yes"/>
      <point x="650" y="-36"/>
      <point x="636" y="-36" type="qcurve" smooth="yes"/>
      <point x="622" y="-36"/>
      <point x="615" y="6" type="qcurve" smooth="yes"/>
      <point x="368" y="1172" type="line" smooth="yes"/>
      <point x="353" y="1245"/>
      <point x="292" y="1287"/>
      <point x="222" y="1287" type="qcurve" smooth="yes"/>
      <point x="215" y="1287"/>
      <point x="215" y="1326"/>
      <point x="237" y="1363"/>
      <point x="243" y="1363" type="qcurve"/>
      <point x="289" y="1358"/>
      <point x="614" y="1358"/>
      <point x="687" y="1363" type="qcurve"/>
      <point x="695" y="1363"/>
      <point x="695" y="1324"/>
      <point x="673" y="1287"/>
      <point x="667" y="1287" type="qcurve" smooth="yes"/>
      <point x="506" y="1287"/>
      <point x="506" y="1209" type="qcurve" smooth="yes"/>
      <point x="506" y="1190"/>
      <point x="510" y="1172" type="qcurve" smooth="yes"/>
      <point x="709" y="252" type="line" smooth="yes"/>
      <point x="716" y="226"/>
      <point x="730" y="226" type="qcurve" smooth="yes"/>
      <point x="744" y="226"/>
      <point x="762" y="250" type="qcurve" smooth="yes"/>
      <point x="1002" y="590" type="line" smooth="yes"/>
      <point x="1026" y="624"/>
      <point x="1026" y="652" type="qcurve" smooth="yes"/>
      <point x="1026" y="680"/>
      <point x="1022" y="700" type="qcurve" smooth="yes"/>
      <point x="922" y="1172" type="line" smooth="yes"/>
      <point x="906" y="1249"/>
      <point x="860" y="1287"/>
      <point x="795" y="1287" type="qcurve" smooth="yes"/>
      <point x="787" y="1287"/>
      <point x="787" y="1326"/>
      <point x="809" y="1363"/>
      <point x="815" y="1363" type="qcurve"/>
      <point x="861" y="1358"/>
      <point x="1179" y="1358"/>
      <point x="1241" y="1363" type="qcurve"/>
      <point x="1249" y="1363"/>
      <point x="1249" y="1321"/>
      <point x="1228" y="1289"/>
      <point x="1221" y="1287" type="qcurve" smooth="yes"/>
      <point x="1060" y="1287"/>
      <point x="1060" y="1209" type="qcurve" smooth="yes"/>
      <point x="1060" y="1191"/>
      <point x="1064" y="1172" type="qcurve" smooth="yes"/>
      <point x="1134" y="847" type="line" smooth="yes"/>
      <point x="1140" y="815"/>
      <point x="1147" y="815" type="qcurve" smooth="yes"/>
      <point x="1154" y="815"/>
      <point x="1173" y="847" type="qcurve" smooth="yes"/>
      <point x="1379" y="1163" type="line" smooth="yes"/>
      <point x="1412" y="1212"/>
      <point x="1412" y="1246" type="qcurve" smooth="yes"/>
      <point x="1412" y="1287"/>
      <point x="1307" y="1287" type="qcurve" smooth="yes"/>
      <point x="1299" y="1287"/>
      <point x="1299" y="1326"/>
      <point x="1321" y="1363"/>
      <point x="1327" y="1363" type="qcurve"/>
      <point x="1374" y="1358"/>
      <point x="1691" y="1358"/>
      <point x="1755" y="1363" type="qcurve"/>
      <point x="1763" y="1363"/>
      <point x="1763" y="1321"/>
      <point x="1742" y="1289"/>
      <point x="1735" y="1287" type="qcurve" smooth="yes"/>
      <point x="1584" y="1287"/>
      <point x="1522" y="1201" type="qcurve" smooth="yes"/>
      <point x="1205" y="763" type="line" smooth="yes"/>
      <point x="1175" y="722"/>
      <point x="1175" y="692" type="qcurve" smooth="yes"/>
      <point x="1175" y="662"/>
      <point x="1178" y="647" type="qcurve" smooth="yes"/>
      <point x="1263" y="252" type="line" smooth="yes"/>
      <point x="1269" y="225"/>
      <point x="1283" y="225" type="qcurve" smooth="yes"/>
      <point x="1297" y="225"/>
      <point x="1316" y="250" type="qcurve" smooth="yes"/>
      <point x="1502" y="494"/>
      <point x="1933" y="1163" type="qcurve" smooth="yes"/>
      <point x="1966" y="1217"/>
      <point x="1966" y="1246" type="qcurve" smooth="yes"/>
      <point x="1966" y="1287"/>
      <point x="1861" y="1287" type="qcurve" smooth="yes"/>
      <point x="1853" y="1287"/>
      <point x="1853" y="1326"/>
      <point x="1875" y="1363"/>
      <point x="1881" y="1363" type="qcurve"/>
      <point x="1928" y="1358"/>
      <point x="2260" y="1358"/>
      <point x="2309" y="1363" type="qcurve"/>
      <point x="2317" y="1363"/>
      <point x="2317" y="1321"/>
      <point x="2295" y="1287"/>
      <point x="2289" y="1287" type="qcurve" smooth="yes"/>
      <point x="2141" y="1287"/>
      <point x="2076" y="1201" type="qcurve" smooth="yes"/>
      <point x="1920" y="1000"/>
    </contour>
  </outline>
</glyph>
<glyph name="Y" format="1">
  <advance width="1228"/>
  <unicode hex="0059"/>
  <outline>
    <contour>
      <point x="642" y="186" type="line" smooth="yes"/>
      <point x="633" y="154"/>
      <point x="633" y="98"/>
      <point x="702" y="69"/>
      <point x="773" y="69" type="qcurve" smooth="yes"/>
      <point x="781" y="69"/>
      <point x="781" y="27"/>
      <point x="759" y="-7"/>
      <point x="753" y="-7" type="qcurve"/>
      <point x="666" y="0"/>
      <point x="363" y="0"/>
      <point x="277" y="-7" type="qcurve"/>
      <point x="270" y="-7"/>
      <point x="270" y="35"/>
      <point x="292" y="69"/>
      <point x="298" y="69" type="qcurve" smooth="yes"/>
      <point x="392" y="69"/>
      <point x="477" y="109"/>
      <point x="499" y="186" type="qcurve" smooth="yes"/>
      <point x="575" y="452" type="line" smooth="yes"/>
      <point x="602" y="546"/>
      <point x="602" y="615"/>
      <point x="579" y="689" type="qcurve" smooth="yes"/>
      <point x="428" y="1172" type="line" smooth="yes"/>
      <point x="404" y="1250"/>
      <point x="323" y="1287"/>
      <point x="271" y="1287" type="qcurve" smooth="yes"/>
      <point x="264" y="1287"/>
      <point x="264" y="1329"/>
      <point x="286" y="1363"/>
      <point x="292" y="1363" type="qcurve"/>
      <point x="338" y="1358"/>
      <point x="678" y="1358"/>
      <point x="726" y="1363" type="qcurve"/>
      <point x="733" y="1363"/>
      <point x="733" y="1321"/>
      <point x="711" y="1287"/>
      <point x="705" y="1287" type="qcurve" smooth="yes"/>
      <point x="608" y="1287"/>
      <point x="585" y="1267" type="qcurve" smooth="yes"/>
      <point x="562" y="1246"/>
      <point x="562" y="1222" type="qcurve" smooth="yes"/>
      <point x="562" y="1200"/>
      <point x="571" y="1172" type="qcurve" smooth="yes"/>
      <point x="722" y="689" type="line" smooth="yes"/>
      <point x="728" y="671"/>
      <point x="738" y="671" type="qcurve" smooth="yes"/>
      <point x="748" y="671"/>
      <point x="762" y="686" type="qcurve" smooth="yes"/>
      <point x="1207" y="1163" type="line" smooth="yes"/>
      <point x="1257" y="1217"/>
      <point x="1257" y="1247" type="qcurve" smooth="yes"/>
      <point x="1257" y="1287"/>
      <point x="1157" y="1287" type="qcurve" smooth="yes"/>
      <point x="1150" y="1287"/>
      <point x="1150" y="1330"/>
      <point x="1172" y="1363"/>
      <point x="1179" y="1363" type="qcurve"/>
      <point x="1245" y="1358"/>
      <point x="1498" y="1358"/>
      <point x="1573" y="1363" type="qcurve"/>
      <point x="1580" y="1363"/>
      <point x="1580" y="1322"/>
      <point x="1558" y="1287"/>
      <point x="1551" y="1287" type="qcurve" smooth="yes"/>
      <point x="1459" y="1287"/>
      <point x="1356" y="1230"/>
      <point x="1196" y="1059" type="qcurve" smooth="yes"/>
      <point x="815" y="653" type="line" smooth="yes"/>
      <point x="758" y="592"/>
      <point x="728" y="487" type="qcurve" smooth="yes"/>
    </contour>
  </outline>
</glyph>
<glyph name="Z" format="1">
  <advance width="1199"/>
  <unicode hex="005A"/>
  <outline>
    <contour>
      <point x="1048" y="-7" type="qcurve"/>
      <point x="1039" y="-36"/>
      <point x="1024" y="-33" type="qcurve"/>
      <point x="972" y="-21" type="line"/>
      <point x="881" y="0"/>
      <point x="317" y="0" type="qcurve"/>
      <point x="-35" y="0" type="line"/>
      <point x="-55" y="0"/>
      <point x="-55" y="20" type="qcurve"/>
      <point x="-55" y="40"/>
      <point x="-44" y="51" type="qcurve"/>
      <point x="1192" y="1267" type="line"/>
      <point x="1201" y="1276"/>
      <point x="1201" y="1282.5" type="qcurve"/>
      <point x="1201" y="1289"/>
      <point x="1181" y="1289" type="qcurve"/>
      <point x="609" y="1289" type="line"/>
      <point x="566" y="1289"/>
      <point x="517" y="1253.5" type="qcurve"/>
      <point x="468" y="1218"/>
      <point x="400" y="1125" type="qcurve"/>
      <point x="336" y="1038"/>
      <point x="302" y="974" type="qcurve"/>
      <point x="296" y="962"/>
      <point x="275" y="969" type="qcurve"/>
      <point x="254" y="976"/>
      <point x="259" y="988" type="qcurve"/>
      <point x="331" y="1158"/>
      <point x="392" y="1345" type="qcurve"/>
      <point x="399" y="1367"/>
      <point x="420" y="1367" type="qcurve"/>
      <point x="424" y="1367"/>
      <point x="428" y="1366" type="qcurve"/>
      <point x="456" y="1362" type="line"/>
      <point x="538" y="1350"/>
      <point x="710.5" y="1350" type="qcurve"/>
      <point x="883" y="1350"/>
      <point x="1043" y="1354" type="qcurve"/>
      <point x="1417" y="1362" type="line"/>
      <point x="1434" y="1362"/>
      <point x="1434" y="1347" type="qcurve"/>
      <point x="1434" y="1332"/>
      <point x="1418" y="1316" type="qcurve"/>
      <point x="201" y="111" type="line"/>
      <point x="193" y="103"/>
      <point x="193" y="86" type="qcurve"/>
      <point x="193" y="69"/>
      <point x="215" y="69" type="qcurve"/>
      <point x="644" y="69"/>
      <point x="860" y="82" type="qcurve"/>
      <point x="980" y="89"/>
      <point x="1148" y="352" type="qcurve"/>
      <point x="1153" y="360"/>
      <point x="1175" y="353" type="qcurve"/>
      <point x="1197" y="346"/>
      <point x="1192" y="336" type="qcurve"/>
      <point x="1107" y="175"/>
    </contour>
  </outline>
</glyph>
<glyph name="bracketleft" format="1">
  <advance width="725"/>
  <unicode hex="005B"/>
  <outline>
    <contour>
      <point x="532" y="-354" type="qcurve" smooth="yes"/>
      <point x="100" y="-354" type="line" smooth="yes"/>
      <point x="83" y="-354"/>
      <point x="83" y="-341" type="qcurve" smooth="yes"/>
      <point x="83" y="-337"/>
      <point x="84" y="-332" type="qcurve" smooth="yes"/>
      <point x="612" y="1511" type="line" smooth="yes"/>
      <point x="616" y="1530"/>
      <point x="639" y="1530" type="qcurve" smooth="yes"/>
      <point x="1059" y="1530" type="line" smooth="yes"/>
      <point x="1066" y="1530"/>
      <point x="1066" y="1492"/>
      <point x="1040" y="1452"/>
      <point x="1032" y="1452" type="qcurve" smooth="yes"/>
      <point x="756" y="1452" type="line" smooth="yes"/>
      <point x="733" y="1452"/>
      <point x="727" y="1430" type="qcurve" smooth="yes"/>
      <point x="248" y="-248" type="line" smooth="yes"/>
      <point x="240" y="-276"/>
      <point x="254" y="-276" type="qcurve" smooth="yes"/>
      <point x="555" y="-276" type="line" smooth="yes"/>
      <point x="563" y="-276"/>
      <point x="563" y="-320"/>
      <point x="539" y="-354"/>
    </contour>
  </outline>
</glyph>
<glyph name="backslash" format="1">
  <advance width="717"/>
  <unicode hex="005C"/>
  <outline>
    <contour>
      <point x="713" y="25" type="line" smooth="yes"/>
      <point x="714" y="23"/>
      <point x="714" y="19" type="qcurve" smooth="yes"/>
      <point x="714" y="-3"/>
      <point x="666" y="-17" type="qcurve" smooth="yes"/>
      <point x="649" y="-22"/>
      <point x="616" y="-22"/>
      <point x="612" y="-12" type="qcurve" smooth="yes"/>
      <point x="4" y="1432" type="line" smooth="yes"/>
      <point x="2" y="1438"/>
      <point x="2" y="1441" type="qcurve" smooth="yes"/>
      <point x="2" y="1467"/>
      <point x="44" y="1483" type="qcurve" smooth="yes"/>
      <point x="62" y="1490"/>
      <point x="100" y="1490"/>
      <point x="106" y="1475" type="qcurve" smooth="yes"/>
    </contour>
  </outline>
</glyph>
<glyph name="bracketright" format="1">
  <advance width="725"/>
  <unicode hex="005D"/>
  <outline>
    <contour>
      <point x="229" y="-332" type="line" smooth="yes"/>
      <point x="223" y="-354"/>
      <point x="201" y="-354" type="qcurve" smooth="yes"/>
      <point x="-231" y="-354" type="line" smooth="yes"/>
      <point x="-240" y="-354"/>
      <point x="-240" y="-313"/>
      <point x="-224" y="-276"/>
      <point x="-213" y="-276" type="qcurve" smooth="yes"/>
      <point x="92" y="-276" type="line" smooth="yes"/>
      <point x="106" y="-276"/>
      <point x="113" y="-252" type="qcurve" smooth="yes"/>
      <point x="596" y="1430" type="line" smooth="yes"/>
      <point x="602" y="1452"/>
      <point x="584" y="1452" type="qcurve" smooth="yes"/>
      <point x="305" y="1452" type="line" smooth="yes"/>
      <point x="296" y="1452"/>
      <point x="296" y="1499"/>
      <point x="318" y="1530"/>
      <point x="324" y="1530" type="qcurve" smooth="yes"/>
      <point x="743" y="1530" type="line" smooth="yes"/>
      <point x="759" y="1530"/>
      <point x="759" y="1518" type="qcurve" smooth="yes"/>
      <point x="759" y="1515"/>
      <point x="758" y="1511" type="qcurve" smooth="yes"/>
    </contour>
  </outline>
</glyph>
<glyph name="asciicircum" format="1">
  <advance width="1227"/>
  <unicode hex="005E"/>
  <outline>
    <contour>
      <point x="1091" y="535" type="line"/>
      <point x="955" y="535" type="line"/>
      <point x="653" y="1216" type="line"/>
      <point x="351" y="535" type="line"/>
      <point x="213" y="535" type="line"/>
      <point x="600" y="1372" type="line"/>
      <point x="706" y="1372" type="line"/>
    </contour>
  </outline>
</glyph>
<glyph name="grave" format="1">
  <advance width="569"/>
  <unicode hex="0060"/>
  <outline>
    <contour>
      <point x="467" y="1064" type="line" smooth="yes"/>
      <point x="472" y="1052"/>
      <point x="472" y="1044" type="qcurve" smooth="yes"/>
      <point x="472" y="1007"/>
      <point x="436" y="1007" type="qcurve" smooth="yes"/>
      <point x="412" y="1007"/>
      <point x="395" y="1034" type="qcurve" smooth="yes"/>
      <point x="209" y="1335" type="line" smooth="yes"/>
      <point x="207" y="1337"/>
      <point x="207" y="1343" type="qcurve" smooth="yes"/>
      <point x="207" y="1363"/>
      <point x="273" y="1405"/>
      <point x="315" y="1405"/>
      <point x="322" y="1389" type="qcurve" smooth="yes"/>
    </contour>
  </outline>
</glyph>
<glyph name="a" format="1">
  <advance width="918"/>
  <unicode hex="0061"/>
  <outline>
    <contour>
      <point x="690" y="203" type="line" smooth="yes"/>
      <point x="680" y="168"/>
      <point x="680" y="144" type="qcurve" smooth="yes"/>
      <point x="680" y="103"/>
      <point x="712" y="103" type="qcurve" smooth="yes"/>
      <point x="745" y="103"/>
      <point x="842" y="197" type="qcurve" smooth="yes"/>
      <point x="851" y="206"/>
      <point x="870" y="186" type="qcurve" smooth="yes"/>
      <point x="883" y="172"/>
      <point x="884" y="164" type="qcurve" smooth="yes"/>
      <point x="884" y="160"/>
      <point x="881" y="156" type="qcurve" smooth="yes"/>
      <point x="815" y="75"/>
      <point x="656" y="-27"/>
      <point x="596" y="-27" type="qcurve" smooth="yes"/>
      <point x="535" y="-27"/>
      <point x="535" y="52" type="qcurve" smooth="yes"/>
      <point x="535" y="108"/>
      <point x="559" y="172" type="qcurve" smooth="yes"/>
      <point x="602" y="287" type="line"/>
      <point x="590" y="291" type="line"/>
      <point x="352" y="-27"/>
      <point x="186" y="-27" type="qcurve" smooth="yes"/>
      <point x="126" y="-27"/>
      <point x="63" y="69"/>
      <point x="63" y="141" type="qcurve" smooth="yes"/>
      <point x="63" y="352"/>
      <point x="410" y="844"/>
      <point x="604" y="844" type="qcurve" smooth="yes"/>
      <point x="676" y="844"/>
      <point x="737" y="788" type="qcurve"/>
      <point x="761" y="858" type="line" smooth="yes"/>
      <point x="769" y="882"/>
      <point x="880" y="882"/>
      <point x="880" y="863" type="qcurve" smooth="yes"/>
      <point x="880" y="861"/>
      <point x="879" y="858" type="qcurve" smooth="yes"/>
    </contour>
    <contour>
      <point x="664" y="543" type="qcurve" smooth="yes"/>
      <point x="709" y="694" type="line"/>
      <point x="666" y="778"/>
      <point x="578" y="778" type="qcurve" smooth="yes"/>
      <point x="442" y="778"/>
      <point x="211" y="338"/>
      <point x="211" y="176" type="qcurve" smooth="yes"/>
      <point x="211" y="82"/>
      <point x="270" y="82" type="qcurve" smooth="yes"/>
      <point x="325" y="82"/>
      <point x="525" y="283"/>
      <point x="638" y="455"/>
    </contour>
  </outline>
</glyph>
<glyph name="d" format="1">
  <advance width="958"/>
  <unicode hex="0064"/>
  <outline>
    <contour>
      <point x="721" y="209" type="line" smooth="yes"/>
      <point x="714" y="180"/>
      <point x="714" y="162" type="qcurve" smooth="yes"/>
      <point x="714" y="113"/>
      <point x="739" y="113" type="qcurve" smooth="yes"/>
      <point x="790" y="113"/>
      <point x="872" y="207" type="qcurve" smooth="yes"/>
      <point x="875" y="210"/>
      <point x="901" y="200"/>
      <point x="917" y="174"/>
      <point x="913" y="170" type="qcurve" smooth="yes"/>
      <point x="739" y="-27"/>
      <point x="637" y="-27" type="qcurve" smooth="yes"/>
      <point x="577" y="-27"/>
      <point x="577" y="80" type="qcurve" smooth="yes"/>
      <point x="577" y="106"/>
      <point x="584" y="135" type="qcurve" smooth="yes"/>
      <point x="624" y="313" type="line"/>
      <point x="610" y="324" type="line"/>
      <point x="508" y="175"/>
      <point x="285" y="-27"/>
      <point x="186" y="-27" type="qcurve" smooth="yes"/>
      <point x="126" y="-27"/>
      <point x="63" y="76"/>
      <point x="63" y="145" type="qcurve" smooth="yes"/>
      <point x="63" y="358"/>
      <point x="409" y="852"/>
      <point x="604" y="852" type="qcurve" smooth="yes"/>
      <point x="684" y="852"/>
      <point x="735" y="789" type="qcurve"/>
      <point x="827" y="1200" type="line" smooth="yes"/>
      <point x="843" y="1267"/>
      <point x="843" y="1296" type="qcurve" smooth="yes"/>
      <point x="843" y="1378"/>
      <point x="766" y="1378" type="qcurve" smooth="yes"/>
      <point x="751" y="1378"/>
      <point x="751" y="1430"/>
      <point x="766" y="1430" type="qcurve" smooth="yes"/>
      <point x="836" y="1430"/>
      <point x="992" y="1485"/>
      <point x="997" y="1485" type="qcurve" smooth="yes"/>
      <point x="1010" y="1485"/>
      <point x="1010" y="1472" type="qcurve" smooth="yes"/>
      <point x="1010" y="1469"/>
      <point x="1008" y="1460" type="qcurve" smooth="yes"/>
    </contour>
    <contour>
      <point x="710" y="688" type="line"/>
      <point x="666" y="786"/>
      <point x="578" y="786" type="qcurve" smooth="yes"/>
      <point x="442" y="786"/>
      <point x="211" y="340"/>
      <point x="211" y="180" type="qcurve" smooth="yes"/>
      <point x="211" y="82"/>
      <point x="270" y="82" type="qcurve" smooth="yes"/>
      <point x="340" y="82"/>
      <point x="598" y="371"/>
      <point x="668" y="504" type="qcurve" smooth="yes"/>
    </contour>
  </outline>
</glyph>
<glyph name="e" format="1">
  <advance width="696"/>
  <unicode hex="0065"/>
  <outline>
    <contour>
      <point x="723" y="737" type="qcurve" smooth="yes"/>
      <point x="723" y="602"/>
      <point x="396" y="384"/>
      <point x="242" y="356" type="qcurve"/>
      <point x="227" y="281"/>
      <point x="227" y="238" type="qcurve" smooth="yes"/>
      <point x="227" y="72"/>
      <point x="338" y="72" type="qcurve" smooth="yes"/>
      <point x="378" y="72"/>
      <point x="466" y="114"/>
      <point x="563" y="197" type="qcurve" smooth="yes"/>
      <point x="570" y="203"/>
      <point x="593" y="192"/>
      <point x="596" y="169"/>
      <point x="592" y="164" type="qcurve" smooth="yes"/>
      <point x="436" y="-27"/>
      <point x="299" y="-27" type="qcurve" smooth="yes"/>
      <point x="96" y="-27"/>
      <point x="96" y="215" type="qcurve" smooth="yes"/>
      <point x="96" y="406"/>
      <point x="416" y="852"/>
      <point x="592" y="852" type="qcurve" smooth="yes"/>
      <point x="723" y="852"/>
    </contour>
    <contour>
      <point x="580" y="711" type="qcurve" smooth="yes"/>
      <point x="580" y="772"/>
      <point x="526" y="772" type="qcurve" smooth="yes"/>
      <point x="452" y="772"/>
      <point x="307" y="567"/>
      <point x="260" y="420" type="qcurve"/>
      <point x="383" y="446"/>
      <point x="580" y="602"/>
    </contour>
  </outline>
</glyph>
<glyph name="g" format="1">
  <advance width="766"/>
  <unicode hex="0067"/>
  <outline>
    <contour>
      <point x="890" y="786" type="qcurve" smooth="yes"/>
      <point x="890" y="727"/>
      <point x="867" y="727" type="qcurve" smooth="yes"/>
      <point x="778" y="727"/>
      <point x="673" y="756" type="qcurve"/>
      <point x="701" y="709"/>
      <point x="701" y="552"/>
      <point x="616" y="376"/>
      <point x="467" y="236"/>
      <point x="348" y="199" type="qcurve" smooth="yes"/>
      <point x="322" y="191"/>
      <point x="310" y="185" type="qcurve" smooth="yes"/>
      <point x="248" y="153"/>
      <point x="248" y="56"/>
      <point x="371" y="-10" type="qcurve" smooth="yes"/>
      <point x="410" y="-31"/>
      <point x="721" y="-205"/>
      <point x="721" y="-434"/>
      <point x="408" y="-559"/>
      <point x="224" y="-559" type="qcurve" smooth="yes"/>
      <point x="77" y="-559"/>
      <point x="-117" y="-443"/>
      <point x="-117" y="-260"/>
      <point x="84" y="-111"/>
      <point x="225" y="-66" type="qcurve"/>
      <point x="133" y="-22"/>
      <point x="133" y="26" type="qcurve" smooth="yes"/>
      <point x="133" y="84"/>
      <point x="239" y="187" type="qcurve"/>
      <point x="76" y="229"/>
      <point x="76" y="574"/>
      <point x="352" y="852"/>
      <point x="530" y="852" type="qcurve" smooth="yes"/>
      <point x="554" y="852"/>
      <point x="630" y="816"/>
      <point x="649" y="814" type="qcurve" smooth="yes"/>
      <point x="706" y="808"/>
      <point x="798" y="808"/>
      <point x="873" y="813" type="qcurve" smooth="yes"/>
      <point x="890" y="814"/>
    </contour>
    <contour>
      <point x="587" y="720" type="qcurve" smooth="yes"/>
      <point x="587" y="791"/>
      <point x="508" y="791" type="qcurve" smooth="yes"/>
      <point x="401" y="791"/>
      <point x="193" y="469"/>
      <point x="193" y="321" type="qcurve" smooth="yes"/>
      <point x="193" y="248"/>
      <point x="272" y="248" type="qcurve" smooth="yes"/>
      <point x="386" y="248"/>
      <point x="587" y="575"/>
    </contour>
    <contour>
      <point x="585" y="-352" type="qcurve" smooth="yes"/>
      <point x="585" y="-289"/>
      <point x="343" y="-115"/>
      <point x="199" y="-115"/>
      <point x="26" y="-250"/>
      <point x="26" y="-405"/>
      <point x="220" y="-490"/>
      <point x="413" y="-490"/>
      <point x="585" y="-415"/>
    </contour>
  </outline>
</glyph>
<glyph name="h" format="1">
  <advance width="879"/>
  <unicode hex="0068"/>
  <outline>
    <contour>
      <point x="870" y="618" type="qcurve" smooth="yes"/>
      <point x="870" y="436"/>
      <point x="656" y="-27"/>
      <point x="496" y="-27" type="qcurve" smooth="yes"/>
      <point x="448" y="-27"/>
      <point x="381" y="32"/>
      <point x="381" y="61" type="qcurve" smooth="yes"/>
      <point x="381" y="115"/>
      <point x="419" y="162"/>
      <point x="444" y="162" type="qcurve" smooth="yes"/>
      <point x="507" y="162"/>
      <point x="529" y="59"/>
      <point x="595" y="59"/>
      <point x="671" y="200"/>
      <point x="733" y="463"/>
      <point x="733" y="569" type="qcurve" smooth="yes"/>
      <point x="733" y="743"/>
      <point x="657" y="743" type="qcurve" smooth="yes"/>
      <point x="540" y="743"/>
      <point x="344" y="461" type="qcurve" smooth="yes"/>
      <point x="294" y="389"/>
      <point x="252" y="221" type="qcurve" smooth="yes"/>
      <point x="197" y="0" type="line" smooth="yes"/>
      <point x="190" y="-27"/>
      <point x="135" y="-27" type="qcurve" smooth="yes"/>
      <point x="76" y="-27"/>
      <point x="76" y="-4" type="qcurve" smooth="yes"/>
      <point x="76" y="0" type="line"/>
      <point x="355" y="1201" type="line" smooth="yes"/>
      <point x="371" y="1270"/>
      <point x="371" y="1304" type="qcurve" smooth="yes"/>
      <point x="371" y="1377"/>
      <point x="294" y="1377" type="qcurve" smooth="yes"/>
      <point x="279" y="1377"/>
      <point x="279" y="1429"/>
      <point x="294" y="1429" type="qcurve" smooth="yes"/>
      <point x="370" y="1429"/>
      <point x="521" y="1484"/>
      <point x="525" y="1484" type="qcurve" smooth="yes"/>
      <point x="542" y="1484"/>
      <point x="538" y="1466" type="qcurve" smooth="yes"/>
      <point x="326" y="545" type="line"/>
      <point x="336" y="535" type="line"/>
      <point x="524" y="852"/>
      <point x="707" y="852" type="qcurve" smooth="yes"/>
      <point x="870" y="852"/>
    </contour>
  </outline>
</glyph>
<glyph name="i" format="1">
  <advance width="528"/>
  <unicode hex="0069"/>
  <outline>
    <contour>
      <point x="293" y="203" type="line" smooth="yes"/>
      <point x="282" y="164"/>
      <point x="282" y="142" type="qcurve" smooth="yes"/>
      <point x="282" y="102"/>
      <point x="339" y="102"/>
      <point x="442" y="195" type="qcurve" smooth="yes"/>
      <point x="451" y="203"/>
      <point x="469" y="186" type="qcurve" smooth="yes"/>
      <point x="483" y="173"/>
      <point x="483" y="164" type="qcurve" smooth="yes"/>
      <point x="483" y="161"/>
      <point x="481" y="158" type="qcurve" smooth="yes"/>
      <point x="461" y="123"/>
      <point x="266" y="-27"/>
      <point x="195" y="-27" type="qcurve" smooth="yes"/>
      <point x="141" y="-27"/>
      <point x="141" y="60" type="qcurve" smooth="yes"/>
      <point x="141" y="98"/>
      <point x="152" y="137" type="qcurve" smooth="yes"/>
      <point x="289" y="625" type="line" smooth="yes"/>
      <point x="294" y="643"/>
      <point x="294" y="661" type="qcurve" smooth="yes"/>
      <point x="294" y="711"/>
      <point x="245" y="711"/>
      <point x="152" y="623" type="qcurve" smooth="yes"/>
      <point x="143" y="614"/>
      <point x="124" y="634" type="qcurve" smooth="yes"/>
      <point x="111" y="648"/>
      <point x="111" y="657" type="qcurve" smooth="yes"/>
      <point x="111" y="660"/>
      <point x="113" y="663" type="qcurve" smooth="yes"/>
      <point x="150" y="722"/>
      <point x="327" y="852"/>
      <point x="385" y="852" type="qcurve" smooth="yes"/>
      <point x="441" y="852"/>
      <point x="441" y="766" type="qcurve" smooth="yes"/>
      <point x="441" y="729"/>
      <point x="430" y="690" type="qcurve" smooth="yes"/>
    </contour>
    <contour>
      <point x="540" y="1135" type="qcurve" smooth="yes"/>
      <point x="540" y="1077"/>
      <point x="473" y="1010"/>
      <point x="428" y="1010" type="qcurve" smooth="yes"/>
      <point x="341" y="1010"/>
      <point x="341" y="1100" type="qcurve" smooth="yes"/>
      <point x="341" y="1152"/>
      <point x="411" y="1225"/>
      <point x="455" y="1225" type="qcurve" smooth="yes"/>
      <point x="540" y="1224"/>
    </contour>
  </outline>
</glyph>
<glyph name="j" format="1">
  <advance width="420"/>
  <unicode hex="006A"/>
  <outline>
    <contour>
      <point x="285" y="139" type="line" smooth="yes"/>
      <point x="259" y="27"/>
      <point x="155" y="-314"/>
      <point x="-64" y="-553"/>
      <point x="-231" y="-553" type="qcurve" smooth="yes"/>
      <point x="-263" y="-553"/>
      <point x="-305" y="-502"/>
      <point x="-305" y="-477" type="qcurve" smooth="yes"/>
      <point x="-305" y="-448"/>
      <point x="-252" y="-418"/>
      <point x="-223" y="-418" type="qcurve" smooth="yes"/>
      <point x="-192" y="-418"/>
      <point x="-136" y="-467"/>
      <point x="-113" y="-467" type="qcurve" smooth="yes"/>
      <point x="-44" y="-467"/>
      <point x="55" y="-335"/>
      <point x="72" y="-260" type="qcurve" smooth="yes"/>
      <point x="274" y="623" type="line" smooth="yes"/>
      <point x="279" y="645"/>
      <point x="279" y="659" type="qcurve" smooth="yes"/>
      <point x="279" y="702"/>
      <point x="216" y="702"/>
      <point x="143" y="610" type="qcurve" smooth="yes"/>
      <point x="131" y="596"/>
      <point x="107" y="630" type="qcurve" smooth="yes"/>
      <point x="102" y="637"/>
      <point x="103" y="643" type="qcurve" smooth="yes"/>
      <point x="103" y="646"/>
      <point x="104" y="649" type="qcurve" smooth="yes"/>
      <point x="256" y="852"/>
      <point x="358" y="852" type="qcurve" smooth="yes"/>
      <point x="419" y="852"/>
      <point x="419" y="755" type="qcurve" smooth="yes"/>
      <point x="419" y="725"/>
      <point x="412" y="694" type="qcurve" smooth="yes"/>
    </contour>
    <contour>
      <point x="540" y="1135" type="qcurve" smooth="yes"/>
      <point x="540" y="1077"/>
      <point x="473" y="1010"/>
      <point x="428" y="1010" type="qcurve" smooth="yes"/>
      <point x="341" y="1010"/>
      <point x="341" y="1100" type="qcurve" smooth="yes"/>
      <point x="341" y="1152"/>
      <point x="411" y="1225"/>
      <point x="455" y="1225" type="qcurve" smooth="yes"/>
      <point x="540" y="1224"/>
    </contour>
  </outline>
</glyph>
<glyph name="k" format="1">
  <advance width="893"/>
  <unicode hex="006B"/>
  <outline>
    <contour>
      <point x="810" y="709" type="qcurve" smooth="yes"/>
      <point x="810" y="628"/>
      <point x="615" y="442"/>
      <point x="485" y="377" type="qcurve" smooth="yes"/>
      <point x="477" y="373"/>
      <point x="477" y="367" type="qcurve" smooth="yes"/>
      <point x="477" y="359"/>
      <point x="485" y="348" type="qcurve" smooth="yes"/>
      <point x="633" y="141" type="line" smooth="yes"/>
      <point x="693" y="57"/>
      <point x="748" y="57" type="qcurve" smooth="yes"/>
      <point x="790" y="57"/>
      <point x="842" y="106" type="qcurve" smooth="yes"/>
      <point x="845" y="109"/>
      <point x="850" y="109" type="qcurve" smooth="yes"/>
      <point x="866" y="109"/>
      <point x="881" y="93"/>
      <point x="881" y="79" type="qcurve" smooth="yes"/>
      <point x="881" y="76"/>
      <point x="879" y="72" type="qcurve" smooth="yes"/>
      <point x="796" y="-27"/>
      <point x="717" y="-27" type="qcurve" smooth="yes"/>
      <point x="641" y="-27"/>
      <point x="560" y="22"/>
      <point x="516" y="94" type="qcurve" smooth="yes"/>
      <point x="379" y="315" type="line" smooth="yes"/>
      <point x="364" y="340"/>
      <point x="315" y="340" type="qcurve" smooth="yes"/>
      <point x="283" y="340"/>
      <point x="274" y="301" type="qcurve" smooth="yes"/>
      <point x="203" y="-4" type="line" smooth="yes"/>
      <point x="198" y="-27"/>
      <point x="77" y="-27"/>
      <point x="82" y="-4" type="qcurve" smooth="yes"/>
      <point x="359" y="1197" type="line" smooth="yes"/>
      <point x="375" y="1266"/>
      <point x="375" y="1295" type="qcurve" smooth="yes"/>
      <point x="375" y="1377"/>
      <point x="298" y="1377" type="qcurve" smooth="yes"/>
      <point x="283" y="1377"/>
      <point x="283" y="1429"/>
      <point x="298" y="1429" type="qcurve" smooth="yes"/>
      <point x="368" y="1429"/>
      <point x="526" y="1484"/>
      <point x="531" y="1484" type="qcurve" smooth="yes"/>
      <point x="548" y="1484"/>
      <point x="545" y="1471" type="qcurve" smooth="yes"/>
      <point x="352" y="639" type="line"/>
      <point x="365" y="633" type="line"/>
      <point x="433" y="733"/>
      <point x="610" y="852"/>
      <point x="682" y="852" type="qcurve" smooth="yes"/>
      <point x="750" y="852"/>
      <point x="810" y="763"/>
    </contour>
    <contour>
      <point x="677" y="672" type="qcurve" smooth="yes"/>
      <point x="677" y="752"/>
      <point x="610" y="752" type="qcurve" smooth="yes"/>
      <point x="499" y="752"/>
      <point x="358" y="575" type="qcurve" smooth="yes"/>
      <point x="325" y="533"/>
      <point x="317" y="500" type="qcurve" smooth="yes"/>
      <point x="297" y="412" type="line" smooth="yes"/>
      <point x="295" y="404"/>
      <point x="295" y="398" type="qcurve" smooth="yes"/>
      <point x="295" y="387"/>
      <point x="317" y="387" type="qcurve" smooth="yes"/>
      <point x="440" y="387"/>
      <point x="677" y="579"/>
    </contour>
  </outline>
</glyph>
<glyph name="l" format="1">
  <advance width="496"/>
  <unicode hex="006C"/>
  <outline>
    <contour>
      <point x="258" y="209" type="line" smooth="yes"/>
      <point x="251" y="178"/>
      <point x="251" y="162" type="qcurve" smooth="yes"/>
      <point x="251" y="113"/>
      <point x="276" y="113" type="qcurve" smooth="yes"/>
      <point x="328" y="113"/>
      <point x="410" y="207" type="qcurve" smooth="yes"/>
      <point x="412" y="210"/>
      <point x="416" y="210" type="qcurve" smooth="yes"/>
      <point x="427" y="210"/>
      <point x="453" y="184"/>
      <point x="453" y="176" type="qcurve" smooth="yes"/>
      <point x="453" y="173"/>
      <point x="451" y="170" type="qcurve" smooth="yes"/>
      <point x="281" y="-27"/>
      <point x="174" y="-27" type="qcurve" smooth="yes"/>
      <point x="114" y="-27"/>
      <point x="114" y="80" type="qcurve" smooth="yes"/>
      <point x="114" y="104"/>
      <point x="121" y="135" type="qcurve" smooth="yes"/>
      <point x="364" y="1197" type="line" smooth="yes"/>
      <point x="379" y="1263"/>
      <point x="379" y="1295" type="qcurve" smooth="yes"/>
      <point x="379" y="1377"/>
      <point x="302" y="1377" type="qcurve" smooth="yes"/>
      <point x="287" y="1377"/>
      <point x="287" y="1429"/>
      <point x="302" y="1429" type="qcurve" smooth="yes"/>
      <point x="375" y="1429"/>
      <point x="528" y="1484"/>
      <point x="534" y="1484" type="qcurve" smooth="yes"/>
      <point x="550" y="1484"/>
      <point x="546" y="1470" type="qcurve" smooth="yes"/>
    </contour>
  </outline>
</glyph>
<glyph name="m" format="1">
  <advance width="1507"/>
  <unicode hex="006D"/>
  <outline>
    <contour>
      <point x="1276" y="203" type="line" smooth="yes"/>
      <point x="1266" y="168"/>
      <point x="1266" y="147" type="qcurve" smooth="yes"/>
      <point x="1266" y="102"/>
      <point x="1329" y="102"/>
      <point x="1421" y="195" type="qcurve" smooth="yes"/>
      <point x="1425" y="199"/>
      <point x="1430" y="199" type="qcurve" smooth="yes"/>
      <point x="1441" y="199"/>
      <point x="1464" y="174"/>
      <point x="1464" y="162" type="qcurve" smooth="yes"/>
      <point x="1464" y="158"/>
      <point x="1462" y="156" type="qcurve" smooth="yes"/>
      <point x="1303" y="-27"/>
      <point x="1178" y="-27" type="qcurve" smooth="yes"/>
      <point x="1124" y="-27"/>
      <point x="1124" y="61" type="qcurve" smooth="yes"/>
      <point x="1124" y="98"/>
      <point x="1135" y="137" type="qcurve" smooth="yes"/>
      <point x="1260" y="582" type="line" smooth="yes"/>
      <point x="1292" y="696"/>
      <point x="1292" y="729" type="qcurve" smooth="yes"/>
      <point x="1292" y="772"/>
      <point x="1260" y="772" type="qcurve" smooth="yes"/>
      <point x="1209" y="772"/>
      <point x="1072" y="630"/>
      <point x="839" y="279"/>
      <point x="725" y="2" type="qcurve" smooth="yes"/>
      <point x="713" y="-27"/>
      <point x="595" y="-27"/>
      <point x="604" y="6" type="qcurve" smooth="yes"/>
      <point x="754" y="532" type="line" smooth="yes"/>
      <point x="795" y="676"/>
      <point x="795" y="725" type="qcurve" smooth="yes"/>
      <point x="795" y="772"/>
      <point x="754" y="772" type="qcurve" smooth="yes"/>
      <point x="709" y="772"/>
      <point x="525" y="581"/>
      <point x="313" y="213"/>
      <point x="233" y="2" type="qcurve" smooth="yes"/>
      <point x="222" y="-27"/>
      <point x="104" y="-27"/>
      <point x="113" y="6" type="qcurve" smooth="yes"/>
      <point x="289" y="625" type="line" smooth="yes"/>
      <point x="295" y="646"/>
      <point x="295" y="664" type="qcurve" smooth="yes"/>
      <point x="295" y="711"/>
      <point x="238" y="711"/>
      <point x="156" y="625" type="qcurve" smooth="yes"/>
      <point x="153" y="622"/>
      <point x="148" y="622" type="qcurve" smooth="yes"/>
      <point x="134" y="622"/>
      <point x="113" y="648"/>
      <point x="113" y="656" type="qcurve" smooth="yes"/>
      <point x="113" y="660"/>
      <point x="115" y="662" type="qcurve" smooth="yes"/>
      <point x="269" y="852"/>
      <point x="383" y="852" type="qcurve" smooth="yes"/>
      <point x="442" y="852"/>
      <point x="442" y="762" type="qcurve" smooth="yes"/>
      <point x="442" y="724"/>
      <point x="432" y="690" type="qcurve" smooth="yes"/>
      <point x="342" y="383" type="line"/>
      <point x="350" y="379" type="line"/>
      <point x="438" y="578"/>
      <point x="697" y="852"/>
      <point x="805" y="852" type="qcurve" smooth="yes"/>
      <point x="915" y="852"/>
      <point x="915" y="723" type="qcurve" smooth="yes"/>
      <point x="915" y="666"/>
      <point x="895" y="596" type="qcurve" smooth="yes"/>
      <point x="834" y="383" type="line"/>
      <point x="846" y="379" type="line"/>
      <point x="1092" y="852"/>
      <point x="1300" y="852" type="qcurve" smooth="yes"/>
      <point x="1407" y="852"/>
      <point x="1407" y="727" type="qcurve" smooth="yes"/>
      <point x="1407" y="661"/>
      <point x="1380" y="567" type="qcurve" smooth="yes"/>
    </contour>
  </outline>
</glyph>
<glyph name="n" format="1">
  <advance width="1008"/>
  <unicode hex="006E"/>
  <outline>
    <contour>
      <point x="774" y="203" type="line" smooth="yes"/>
      <point x="764" y="169"/>
      <point x="764" y="141" type="qcurve" smooth="yes"/>
      <point x="764" y="102"/>
      <point x="832" y="102"/>
      <point x="922" y="195" type="qcurve" smooth="yes"/>
      <point x="925" y="198"/>
      <point x="929" y="198" type="qcurve" smooth="yes"/>
      <point x="941" y="198"/>
      <point x="965" y="172"/>
      <point x="965" y="165" type="qcurve" smooth="yes"/>
      <point x="965" y="158"/>
      <point x="963" y="156" type="qcurve" smooth="yes"/>
      <point x="802" y="-27"/>
      <point x="678" y="-27" type="qcurve" smooth="yes"/>
      <point x="622" y="-27"/>
      <point x="622" y="57" type="qcurve" smooth="yes"/>
      <point x="622" y="96"/>
      <point x="633" y="137" type="qcurve" smooth="yes"/>
      <point x="758" y="582" type="line" smooth="yes"/>
      <point x="788" y="688"/>
      <point x="788" y="727" type="qcurve" smooth="yes"/>
      <point x="788" y="772"/>
      <point x="758" y="772" type="qcurve" smooth="yes"/>
      <point x="672" y="772"/>
      <point x="355" y="310"/>
      <point x="233" y="2" type="qcurve" smooth="yes"/>
      <point x="222" y="-27"/>
      <point x="104" y="-27"/>
      <point x="113" y="6" type="qcurve" smooth="yes"/>
      <point x="289" y="625" type="line" smooth="yes"/>
      <point x="295" y="646"/>
      <point x="295" y="664" type="qcurve" smooth="yes"/>
      <point x="295" y="711"/>
      <point x="231" y="711"/>
      <point x="156" y="625" type="qcurve" smooth="yes"/>
      <point x="153" y="622"/>
      <point x="149" y="622" type="qcurve" smooth="yes"/>
      <point x="137" y="622"/>
      <point x="113" y="647"/>
      <point x="113" y="656" type="qcurve" smooth="yes"/>
      <point x="113" y="660"/>
      <point x="115" y="662" type="qcurve" smooth="yes"/>
      <point x="269" y="852"/>
      <point x="383" y="852" type="qcurve" smooth="yes"/>
      <point x="440" y="852"/>
      <point x="440" y="762" type="qcurve" smooth="yes"/>
      <point x="440" y="720"/>
      <point x="411" y="624" type="qcurve" smooth="yes"/>
      <point x="342" y="383" type="line"/>
      <point x="350" y="379" type="line"/>
      <point x="596" y="852"/>
      <point x="799" y="852" type="qcurve" smooth="yes"/>
      <point x="905" y="852"/>
      <point x="905" y="727" type="qcurve" smooth="yes"/>
      <point x="905" y="666"/>
      <point x="877" y="567" type="qcurve" smooth="yes"/>
    </contour>
  </outline>
</glyph>
<glyph name="o" format="1">
  <advance width="838"/>
  <unicode hex="006F"/>
  <outline>
    <contour>
      <point x="819" y="537" type="qcurve" smooth="yes"/>
      <point x="819" y="324"/>
      <point x="545" y="-27"/>
      <point x="338" y="-27" type="qcurve" smooth="yes"/>
      <point x="215" y="-27"/>
      <point x="96" y="156"/>
      <point x="96" y="305" type="qcurve" smooth="yes"/>
      <point x="96" y="500"/>
      <point x="398" y="852"/>
      <point x="578" y="852" type="qcurve" smooth="yes"/>
      <point x="698" y="852"/>
      <point x="819" y="682"/>
    </contour>
    <contour>
      <point x="707" y="588" type="qcurve" smooth="yes"/>
      <point x="707" y="768"/>
      <point x="578" y="768" type="qcurve" smooth="yes"/>
      <point x="461" y="768"/>
      <point x="213" y="387"/>
      <point x="213" y="231" type="qcurve" smooth="yes"/>
      <point x="213" y="68"/>
      <point x="346" y="68" type="qcurve" smooth="yes"/>
      <point x="455" y="68"/>
      <point x="707" y="441"/>
    </contour>
  </outline>
</glyph>
<glyph name="p" format="1">
  <advance width="877"/>
  <unicode hex="0070"/>
  <outline>
    <contour>
      <point x="864" y="510" type="qcurve" smooth="yes"/>
      <point x="864" y="307"/>
      <point x="530" y="-27"/>
      <point x="332" y="-27" type="qcurve" smooth="yes"/>
      <point x="296" y="-27"/>
      <point x="248" y="-14" type="qcurve"/>
      <point x="154" y="-420" type="line" smooth="yes"/>
      <point x="150" y="-437"/>
      <point x="150" y="-448" type="qcurve" smooth="yes"/>
      <point x="150" y="-504"/>
      <point x="274" y="-504" type="qcurve" smooth="yes"/>
      <point x="283" y="-504"/>
      <point x="283" y="-516" type="qcurve" smooth="yes"/>
      <point x="283" y="-528"/>
      <point x="269" y="-559"/>
      <point x="256" y="-559" type="qcurve"/>
      <point x="166" y="-551"/>
      <point x="-41" y="-551"/>
      <point x="-131" y="-559" type="qcurve"/>
      <point x="-140" y="-559"/>
      <point x="-140" y="-546" type="qcurve" smooth="yes"/>
      <point x="-140" y="-534"/>
      <point x="-126" y="-504"/>
      <point x="-113" y="-504" type="qcurve" smooth="yes"/>
      <point x="13" y="-504"/>
      <point x="31" y="-428" type="qcurve" smooth="yes"/>
      <point x="297" y="705" type="line"/>
      <point x="209" y="660"/>
      <point x="150" y="606" type="qcurve" smooth="yes"/>
      <point x="147" y="603"/>
      <point x="141" y="603" type="qcurve" smooth="yes"/>
      <point x="126" y="603"/>
      <point x="98" y="629"/>
      <point x="98" y="640" type="qcurve" smooth="yes"/>
      <point x="98" y="645"/>
      <point x="102" y="649" type="qcurve" smooth="yes"/>
      <point x="207" y="745"/>
      <point x="317" y="795" type="qcurve"/>
      <point x="360" y="1004" type="line" smooth="yes"/>
      <point x="365" y="1029"/>
      <point x="449" y="1081"/>
      <point x="479" y="1081" type="qcurve" smooth="yes"/>
      <point x="503" y="1081"/>
      <point x="500" y="1068" type="qcurve" smooth="yes"/>
      <point x="444" y="829" type="line"/>
      <point x="482" y="842"/>
      <point x="563" y="842" type="qcurve" smooth="yes"/>
      <point x="695" y="842"/>
      <point x="864" y="662"/>
    </contour>
    <contour>
      <point x="725" y="477" type="qcurve" smooth="yes"/>
      <point x="725" y="595"/>
      <point x="605" y="756"/>
      <point x="516" y="756" type="qcurve" smooth="yes"/>
      <point x="469" y="756"/>
      <point x="424" y="743" type="qcurve"/>
      <point x="276" y="117" type="line" smooth="yes"/>
      <point x="274" y="103"/>
      <point x="274" y="98" type="qcurve" smooth="yes"/>
      <point x="274" y="39"/>
      <point x="350" y="39" type="qcurve" smooth="yes"/>
      <point x="496" y="39"/>
      <point x="725" y="309"/>
    </contour>
  </outline>
</glyph>
<glyph name="q" format="1">
  <advance width="952"/>
  <unicode hex="0071"/>
  <outline>
    <contour>
      <point x="678" y="-387" type="line" smooth="yes"/>
      <point x="676" y="-396"/>
      <point x="676" y="-406" type="qcurve" smooth="yes"/>
      <point x="676" y="-454"/>
      <point x="745" y="-454" type="qcurve" smooth="yes"/>
      <point x="764" y="-454"/>
      <point x="786" y="-451" type="qcurve" smooth="yes"/>
      <point x="797" y="-449"/>
      <point x="797" y="-468" type="qcurve" smooth="yes"/>
      <point x="797" y="-510"/>
      <point x="779" y="-510" type="qcurve"/>
      <point x="635" y="-510"/>
      <point x="389" y="-559" type="qcurve"/>
      <point x="378" y="-559"/>
      <point x="378" y="-543" type="qcurve" smooth="yes"/>
      <point x="378" y="-502"/>
      <point x="401" y="-500" type="qcurve" smooth="yes"/>
      <point x="534" y="-490"/>
      <point x="557" y="-391" type="qcurve" smooth="yes"/>
      <point x="733" y="383" type="line"/>
      <point x="723" y="381" type="line"/>
      <point x="643" y="243"/>
      <point x="347" y="-27"/>
      <point x="227" y="-27" type="qcurve" smooth="yes"/>
      <point x="166" y="-27"/>
      <point x="94" y="61"/>
      <point x="94" y="133" type="qcurve" smooth="yes"/>
      <point x="94" y="358"/>
      <point x="460" y="852"/>
      <point x="707" y="852" type="qcurve" smooth="yes"/>
      <point x="798" y="852"/>
      <point x="829" y="729" type="qcurve"/>
      <point x="918" y="895" type="line" smooth="yes"/>
      <point x="922" y="903"/>
      <point x="937" y="903" type="qcurve" smooth="yes"/>
      <point x="982" y="903"/>
      <point x="976" y="878" type="qcurve" smooth="yes"/>
      <point x="891" y="532" type="line"/>
    </contour>
    <contour>
      <point x="756" y="643" type="qcurve" smooth="yes"/>
      <point x="756" y="788"/>
      <point x="674" y="788" type="qcurve" smooth="yes"/>
      <point x="536" y="788"/>
      <point x="242" y="296"/>
      <point x="242" y="141" type="qcurve" smooth="yes"/>
      <point x="242" y="63"/>
      <point x="291" y="63" type="qcurve" smooth="yes"/>
      <point x="337" y="63"/>
      <point x="571" y="254"/>
      <point x="655" y="375" type="qcurve" smooth="yes"/>
      <point x="756" y="523"/>
    </contour>
  </outline>
</glyph>
<glyph name="r" format="1">
  <advance width="754"/>
  <unicode hex="0072"/>
  <outline>
    <contour>
      <point x="832" y="772" type="qcurve" smooth="yes"/>
      <point x="832" y="736"/>
      <point x="776" y="684"/>
      <point x="746" y="684" type="qcurve" smooth="yes"/>
      <point x="710" y="684"/>
      <point x="676" y="713"/>
      <point x="646" y="713" type="qcurve" smooth="yes"/>
      <point x="586" y="713"/>
      <point x="297" y="239"/>
      <point x="236" y="4" type="qcurve" smooth="yes"/>
      <point x="228" y="-27"/>
      <point x="113" y="-27"/>
      <point x="113" y="-2" type="qcurve" smooth="yes"/>
      <point x="113" y="0"/>
      <point x="114" y="4" type="qcurve" smooth="yes"/>
      <point x="279" y="627" type="line" smooth="yes"/>
      <point x="286" y="653"/>
      <point x="286" y="662" type="qcurve" smooth="yes"/>
      <point x="286" y="705"/>
      <point x="238" y="705"/>
      <point x="147" y="614" type="qcurve" smooth="yes"/>
      <point x="144" y="611"/>
      <point x="139" y="611" type="qcurve" smooth="yes"/>
      <point x="123" y="611"/>
      <point x="111" y="631" type="qcurve" smooth="yes"/>
      <point x="107" y="638"/>
      <point x="107" y="644" type="qcurve" smooth="yes"/>
      <point x="107" y="649"/>
      <point x="109" y="651" type="qcurve" smooth="yes"/>
      <point x="232" y="785"/>
      <point x="338" y="852"/>
      <point x="381" y="852" type="qcurve" smooth="yes"/>
      <point x="435" y="852"/>
      <point x="435" y="770" type="qcurve" smooth="yes"/>
      <point x="435" y="754"/>
      <point x="401" y="627" type="qcurve" smooth="yes"/>
      <point x="356" y="459" type="line"/>
      <point x="366" y="457" type="line"/>
      <point x="575" y="852"/>
      <point x="739" y="852" type="qcurve" smooth="yes"/>
      <point x="789" y="852"/>
      <point x="832" y="809"/>
    </contour>
  </outline>
</glyph>
<glyph name="s" format="1">
  <advance width="524"/>
  <unicode hex="0073"/>
  <outline>
    <contour>
      <point x="543" y="731" type="qcurve" smooth="yes"/>
      <point x="543" y="708"/>
      <point x="505" y="672"/>
      <point x="487" y="672" type="qcurve" smooth="yes"/>
      <point x="435" y="672"/>
      <point x="396" y="788"/>
      <point x="334" y="788" type="qcurve" smooth="yes"/>
      <point x="299" y="788"/>
      <point x="254" y="712"/>
      <point x="254" y="678" type="qcurve" smooth="yes"/>
      <point x="254" y="608"/>
      <point x="449" y="326"/>
      <point x="449" y="236" type="qcurve" smooth="yes"/>
      <point x="449" y="124"/>
      <point x="274" y="-27"/>
      <point x="158" y="-27" type="qcurve" smooth="yes"/>
      <point x="104" y="-27"/>
      <point x="23" y="44"/>
      <point x="23" y="82" type="qcurve" smooth="yes"/>
      <point x="23" y="118"/>
      <point x="52" y="162"/>
      <point x="78" y="162" type="qcurve" smooth="yes"/>
      <point x="144" y="162"/>
      <point x="197" y="55"/>
      <point x="256" y="55" type="qcurve" smooth="yes"/>
      <point x="338" y="55"/>
      <point x="338" y="176" type="qcurve" smooth="yes"/>
      <point x="338" y="240"/>
      <point x="158" y="492"/>
      <point x="158" y="592" type="qcurve" smooth="yes"/>
      <point x="158" y="697"/>
      <point x="288" y="852"/>
      <point x="412" y="852" type="qcurve" smooth="yes"/>
      <point x="464" y="852"/>
      <point x="543" y="772"/>
    </contour>
  </outline>
</glyph>
<glyph name="t" format="1">
  <advance width="604"/>
  <unicode hex="0074"/>
  <outline>
    <contour>
      <point x="276" y="225" type="line" smooth="yes"/>
      <point x="264" y="183"/>
      <point x="264" y="154" type="qcurve" smooth="yes"/>
      <point x="264" y="102"/>
      <point x="299" y="102" type="qcurve" smooth="yes"/>
      <point x="362" y="102"/>
      <point x="522" y="301" type="qcurve" smooth="yes"/>
      <point x="524" y="304"/>
      <point x="528" y="304" type="qcurve" smooth="yes"/>
      <point x="544" y="304"/>
      <point x="556" y="282" type="qcurve" smooth="yes"/>
      <point x="563" y="269"/>
      <point x="557" y="260" type="qcurve" smooth="yes"/>
      <point x="441" y="98"/>
      <point x="288" y="-27"/>
      <point x="208" y="-27" type="qcurve" smooth="yes"/>
      <point x="168" y="-27"/>
      <point x="122" y="34"/>
      <point x="122" y="76" type="qcurve" smooth="yes"/>
      <point x="122" y="120"/>
      <point x="130" y="148" type="qcurve" smooth="yes"/>
      <point x="298" y="730" type="line"/>
      <point x="142" y="730" type="line" smooth="yes"/>
      <point x="130" y="730"/>
      <point x="130" y="749" type="qcurve" smooth="yes"/>
      <point x="130" y="785"/>
      <point x="152" y="789" type="qcurve" smooth="yes"/>
      <point x="319" y="818" type="line"/>
      <point x="422" y="1021" type="line" smooth="yes"/>
      <point x="428" y="1033"/>
      <point x="452" y="1033" type="qcurve" smooth="yes"/>
      <point x="492" y="1033"/>
      <point x="492" y="1014" type="qcurve" smooth="yes"/>
      <point x="492" y="1012"/>
      <point x="491" y="1008" type="qcurve" smooth="yes"/>
      <point x="442" y="808" type="line"/>
      <point x="666" y="808" type="line" smooth="yes"/>
      <point x="674" y="808"/>
      <point x="674" y="767"/>
      <point x="652" y="730"/>
      <point x="645" y="730" type="qcurve" smooth="yes"/>
      <point x="421" y="730" type="line"/>
    </contour>
  </outline>
</glyph>
<glyph name="u" format="1">
  <advance width="991"/>
  <unicode hex="0075"/>
  <outline>
    <contour>
      <point x="768" y="203" type="line" smooth="yes"/>
      <point x="756" y="161"/>
      <point x="756" y="141" type="qcurve" smooth="yes"/>
      <point x="756" y="102"/>
      <point x="824" y="102"/>
      <point x="915" y="195" type="qcurve" smooth="yes"/>
      <point x="918" y="198"/>
      <point x="923" y="198" type="qcurve" smooth="yes"/>
      <point x="936" y="198"/>
      <point x="947" y="186" type="qcurve" smooth="yes"/>
      <point x="960" y="172"/>
      <point x="959" y="164" type="qcurve" smooth="yes"/>
      <point x="959" y="160"/>
      <point x="956" y="156" type="qcurve" smooth="yes"/>
      <point x="792" y="-27"/>
      <point x="672" y="-27" type="qcurve" smooth="yes"/>
      <point x="614" y="-27"/>
      <point x="614" y="63" type="qcurve" smooth="yes"/>
      <point x="614" y="99"/>
      <point x="625" y="137" type="qcurve" smooth="yes"/>
      <point x="707" y="424" type="line"/>
      <point x="463" y="116"/>
      <point x="282" y="-27"/>
      <point x="226" y="-27" type="qcurve" smooth="yes"/>
      <point x="142" y="-27"/>
      <point x="142" y="72" type="qcurve" smooth="yes"/>
      <point x="142" y="110"/>
      <point x="162" y="180" type="qcurve" smooth="yes"/>
      <point x="289" y="625" type="line" smooth="yes"/>
      <point x="295" y="646"/>
      <point x="295" y="666" type="qcurve" smooth="yes"/>
      <point x="295" y="711"/>
      <point x="238" y="711"/>
      <point x="214" y="684" type="qcurve" smooth="yes"/>
      <point x="188" y="655"/>
      <point x="158" y="625" type="qcurve" smooth="yes"/>
      <point x="155" y="622"/>
      <point x="150" y="622" type="qcurve" smooth="yes"/>
      <point x="132" y="622"/>
      <point x="119" y="644" type="qcurve" smooth="yes"/>
      <point x="115" y="651"/>
      <point x="115" y="656" type="qcurve" smooth="yes"/>
      <point x="115" y="660"/>
      <point x="117" y="662" type="qcurve" smooth="yes"/>
      <point x="271" y="852"/>
      <point x="385" y="852" type="qcurve" smooth="yes"/>
      <point x="440" y="852"/>
      <point x="440" y="770" type="qcurve" smooth="yes"/>
      <point x="440" y="723"/>
      <point x="415" y="636" type="qcurve" smooth="yes"/>
      <point x="328" y="334" type="line" smooth="yes"/>
      <point x="287" y="192"/>
      <point x="287" y="102"/>
      <point x="315" y="102" type="qcurve" smooth="yes"/>
      <point x="359" y="102"/>
      <point x="589" y="346"/>
      <point x="702" y="541" type="qcurve" smooth="yes"/>
      <point x="760" y="641"/>
      <point x="823" y="829" type="qcurve" smooth="yes"/>
      <point x="831" y="852"/>
      <point x="883" y="852" type="qcurve" smooth="yes"/>
      <point x="946" y="852"/>
      <point x="946" y="831" type="qcurve" smooth="yes"/>
      <point x="946" y="829"/>
      <point x="945" y="826" type="qcurve" smooth="yes"/>
    </contour>
  </outline>
</glyph>
<glyph name="v" format="1">
  <advance width="823"/>
  <unicode hex="0076"/>
  <outline>
    <contour>
      <point x="831" y="705" type="qcurve" smooth="yes"/>
      <point x="831" y="579"/>
      <point x="673" y="222"/>
      <point x="391" y="-27"/>
      <point x="258" y="-27" type="qcurve" smooth="yes"/>
      <point x="200" y="-27"/>
      <point x="146" y="50"/>
      <point x="146" y="120"/>
      <point x="152" y="141" type="qcurve" smooth="yes"/>
      <point x="289" y="625" type="line" smooth="yes"/>
      <point x="295" y="646"/>
      <point x="295" y="662" type="qcurve" smooth="yes"/>
      <point x="295" y="711"/>
      <point x="263" y="711" type="qcurve" smooth="yes"/>
      <point x="232" y="711"/>
      <point x="156" y="625" type="qcurve" smooth="yes"/>
      <point x="148" y="617"/>
      <point x="128" y="635" type="qcurve" smooth="yes"/>
      <point x="113" y="649"/>
      <point x="113" y="657" type="qcurve" smooth="yes"/>
      <point x="113" y="660"/>
      <point x="115" y="662" type="qcurve" smooth="yes"/>
      <point x="270" y="852"/>
      <point x="385" y="852" type="qcurve" smooth="yes"/>
      <point x="413" y="852"/>
      <point x="440" y="808"/>
      <point x="440" y="768" type="qcurve" smooth="yes"/>
      <point x="440" y="726"/>
      <point x="429" y="689" type="qcurve" smooth="yes"/>
      <point x="293" y="207" type="line" smooth="yes"/>
      <point x="283" y="172"/>
      <point x="283" y="147" type="qcurve" smooth="yes"/>
      <point x="283" y="76"/>
      <point x="364" y="76" type="qcurve" smooth="yes"/>
      <point x="446" y="76"/>
      <point x="702" y="401"/>
      <point x="702" y="584" type="qcurve" smooth="yes"/>
      <point x="702" y="703"/>
      <point x="666" y="778" type="qcurve"/>
      <point x="666" y="852"/>
      <point x="735" y="852" type="qcurve" smooth="yes"/>
      <point x="785" y="852"/>
      <point x="831" y="754"/>
    </contour>
  </outline>
</glyph>
<glyph name="w" format="1">
  <advance width="1239"/>
  <unicode hex="0077"/>
  <outline>
    <contour>
      <point x="1247" y="705" type="qcurve" smooth="yes"/>
      <point x="1247" y="588"/>
      <point x="1090" y="221"/>
      <point x="806" y="-27"/>
      <point x="674" y="-27" type="qcurve" smooth="yes"/>
      <point x="562" y="-27"/>
      <point x="562" y="97" type="qcurve" smooth="yes"/>
      <point x="562" y="107"/>
      <point x="564" y="125" type="qcurve"/>
      <point x="400" y="-27"/>
      <point x="258" y="-27" type="qcurve" smooth="yes"/>
      <point x="201" y="-27"/>
      <point x="146" y="49"/>
      <point x="146" y="90" type="qcurve" smooth="yes"/>
      <point x="146" y="120"/>
      <point x="152" y="141" type="qcurve" smooth="yes"/>
      <point x="289" y="625" type="line" smooth="yes"/>
      <point x="295" y="646"/>
      <point x="295" y="662" type="qcurve" smooth="yes"/>
      <point x="295" y="711"/>
      <point x="234" y="711"/>
      <point x="156" y="625" type="qcurve" smooth="yes"/>
      <point x="153" y="622"/>
      <point x="140" y="622"/>
      <point x="113" y="650"/>
      <point x="113" y="656" type="qcurve" smooth="yes"/>
      <point x="113" y="660"/>
      <point x="115" y="662" type="qcurve" smooth="yes"/>
      <point x="269" y="852"/>
      <point x="385" y="852" type="qcurve" smooth="yes"/>
      <point x="440" y="852"/>
      <point x="440" y="768" type="qcurve" smooth="yes"/>
      <point x="440" y="723"/>
      <point x="412" y="625" type="qcurve" smooth="yes"/>
      <point x="293" y="207" type="line" smooth="yes"/>
      <point x="283" y="172"/>
      <point x="283" y="147" type="qcurve" smooth="yes"/>
      <point x="283" y="76"/>
      <point x="364" y="76" type="qcurve" smooth="yes"/>
      <point x="412" y="76"/>
      <point x="520" y="168"/>
      <point x="604" y="277"/>
      <point x="630" y="369" type="qcurve" smooth="yes"/>
      <point x="756" y="817" type="line" smooth="yes"/>
      <point x="766" y="852"/>
      <point x="878" y="852"/>
      <point x="878" y="826" type="qcurve" smooth="yes"/>
      <point x="878" y="821"/>
      <point x="877" y="817" type="qcurve" smooth="yes"/>
      <point x="709" y="207" type="line" smooth="yes"/>
      <point x="699" y="171"/>
      <point x="699" y="147" type="qcurve" smooth="yes"/>
      <point x="699" y="76"/>
      <point x="862" y="76"/>
      <point x="1118" y="401"/>
      <point x="1118" y="584" type="qcurve" smooth="yes"/>
      <point x="1118" y="703"/>
      <point x="1081" y="778" type="qcurve"/>
      <point x="1081" y="852"/>
      <point x="1151" y="852" type="qcurve" smooth="yes"/>
      <point x="1198" y="852"/>
      <point x="1247" y="762"/>
    </contour>
  </outline>
</glyph>
<glyph name="y" format="1">
  <advance width="793"/>
  <unicode hex="0079"/>
  <outline>
    <contour>
      <point x="793" y="788" type="qcurve" smooth="yes"/>
      <point x="793" y="714"/>
      <point x="705" y="353"/>
      <point x="482" y="-89"/>
      <point x="383" y="-254"/>
      <point x="128" y="-555"/>
      <point x="2" y="-555" type="qcurve" smooth="yes"/>
      <point x="-50" y="-555"/>
      <point x="-113" y="-494"/>
      <point x="-113" y="-459" type="qcurve" smooth="yes"/>
      <point x="-113" y="-419"/>
      <point x="-79" y="-371"/>
      <point x="-38" y="-371" type="qcurve" smooth="yes"/>
      <point x="3" y="-371"/>
      <point x="43" y="-440"/>
      <point x="82" y="-440" type="qcurve" smooth="yes"/>
      <point x="147" y="-440"/>
      <point x="295" y="-255"/>
      <point x="358" y="-31"/>
      <point x="358" y="135" type="qcurve" smooth="yes"/>
      <point x="358" y="363"/>
      <point x="290" y="717"/>
      <point x="240" y="717" type="qcurve" smooth="yes"/>
      <point x="194" y="717"/>
      <point x="129" y="586" type="qcurve" smooth="yes"/>
      <point x="125" y="579"/>
      <point x="96" y="582"/>
      <point x="78" y="596"/>
      <point x="82" y="604" type="qcurve" smooth="yes"/>
      <point x="186" y="852"/>
      <point x="303" y="852" type="qcurve" smooth="yes"/>
      <point x="388" y="852"/>
      <point x="477" y="486"/>
      <point x="477" y="227" type="qcurve" smooth="yes"/>
      <point x="477" y="140"/>
      <point x="469" y="39" type="qcurve"/>
      <point x="479" y="39" type="line"/>
      <point x="553" y="169"/>
      <point x="668" y="554"/>
      <point x="668" y="639" type="qcurve" smooth="yes"/>
      <point x="668" y="709"/>
      <point x="649" y="784" type="qcurve"/>
      <point x="649" y="852"/>
      <point x="793" y="852"/>
    </contour>
  </outline>
</glyph>
<glyph name="braceleft" format="1">
  <advance width="573"/>
  <unicode hex="007B"/>
  <outline>
    <contour>
      <point x="312" y="-291" type="qcurve" smooth="yes"/>
      <point x="318" y="-292"/>
      <point x="316" y="-326"/>
      <point x="301" y="-328" type="qcurve"/>
      <point x="74" y="-328"/>
      <point x="74" y="-164" type="qcurve" smooth="yes"/>
      <point x="74" y="-68"/>
      <point x="260" y="354"/>
      <point x="260" y="438" type="qcurve" smooth="yes"/>
      <point x="260" y="522"/>
      <point x="121" y="532" type="qcurve" smooth="yes"/>
      <point x="114" y="532"/>
      <point x="114" y="540" type="qcurve" smooth="yes"/>
      <point x="114" y="576"/>
      <point x="131" y="578" type="qcurve" smooth="yes"/>
      <point x="236" y="588"/>
      <point x="331" y="652"/>
      <point x="370" y="763"/>
      <point x="462" y="1234"/>
      <point x="532" y="1320" type="qcurve" smooth="yes"/>
      <point x="627" y="1436"/>
      <point x="812" y="1436" type="qcurve" smooth="yes"/>
      <point x="822" y="1436"/>
      <point x="822" y="1401"/>
      <point x="807" y="1399" type="qcurve" smooth="yes"/>
      <point x="621" y="1372"/>
      <point x="576" y="1196" type="qcurve" smooth="yes"/>
      <point x="553" y="1108"/>
      <point x="491" y="736"/>
      <point x="382" y="586"/>
      <point x="275" y="559" type="qcurve"/>
      <point x="273" y="551" type="line"/>
      <point x="377" y="525"/>
      <point x="377" y="408" type="qcurve" smooth="yes"/>
      <point x="377" y="345"/>
      <point x="187" y="-79"/>
      <point x="187" y="-150" type="qcurve" smooth="yes"/>
      <point x="187" y="-265"/>
    </contour>
  </outline>
</glyph>
<glyph name="bar" format="1">
  <advance width="537"/>
  <unicode hex="007C"/>
  <outline>
    <contour>
      <point x="315" y="-313" type="line"/>
      <point x="233" y="-313" type="line"/>
      <point x="233" y="1434" type="line"/>
      <point x="315" y="1434" type="line"/>
    </contour>
  </outline>
</glyph>
<glyph name="braceright" format="1">
  <advance width="598"/>
  <unicode hex="007D"/>
  <outline>
    <contour>
      <point x="550" y="530" type="qcurve" smooth="yes"/>
      <point x="444" y="520"/>
      <point x="346" y="453"/>
      <point x="311" y="339"/>
      <point x="219" y="-123"/>
      <point x="149" y="-212" type="qcurve"/>
      <point x="56" y="-328"/>
      <point x="-131" y="-328" type="qcurve" smooth="yes"/>
      <point x="-141" y="-328"/>
      <point x="-141" y="-310" type="qcurve" smooth="yes"/>
      <point x="-141" y="-293"/>
      <point x="-126" y="-291" type="qcurve" smooth="yes"/>
      <point x="64" y="-261"/>
      <point x="105" y="-88" type="qcurve" smooth="yes"/>
      <point x="134" y="37"/>
      <point x="190" y="375"/>
      <point x="302" y="523"/>
      <point x="406" y="549" type="qcurve"/>
      <point x="408" y="557" type="line"/>
      <point x="304" y="583"/>
      <point x="304" y="700" type="qcurve" smooth="yes"/>
      <point x="304" y="763"/>
      <point x="494" y="1187"/>
      <point x="494" y="1258" type="qcurve" smooth="yes"/>
      <point x="494" y="1373"/>
      <point x="369" y="1399" type="qcurve" smooth="yes"/>
      <point x="363" y="1400"/>
      <point x="363" y="1436"/>
      <point x="380" y="1436" type="qcurve" smooth="yes"/>
      <point x="607" y="1436"/>
      <point x="607" y="1272" type="qcurve" smooth="yes"/>
      <point x="607" y="1176"/>
      <point x="421" y="754"/>
      <point x="421" y="664" type="qcurve" smooth="yes"/>
      <point x="421" y="585"/>
      <point x="560" y="576" type="qcurve" smooth="yes"/>
      <point x="567" y="576"/>
      <point x="567" y="568" type="qcurve" smooth="yes"/>
      <point x="567" y="532"/>
    </contour>
  </outline>
</glyph>
<glyph name="asciitilde" format="1">
  <advance width="676"/>
  <unicode hex="007E"/>
  <outline>
    <contour>
      <point x="653" y="513" type="qcurve" smooth="yes"/>
      <point x="653" y="470"/>
      <point x="486" y="350"/>
      <point x="396" y="350"/>
      <point x="220" y="417"/>
      <point x="111" y="417"/>
      <point x="49" y="352" type="qcurve" smooth="yes"/>
      <point x="46" y="349"/>
      <point x="42" y="349" type="qcurve" smooth="yes"/>
      <point x="38" y="349"/>
      <point x="23" y="359"/>
      <point x="23" y="371"/>
      <point x="24" y="372" type="qcurve" smooth="yes"/>
      <point x="124" y="523"/>
      <point x="280" y="523"/>
      <point x="455" y="459"/>
      <point x="552" y="459"/>
      <point x="624" y="531" type="qcurve" smooth="yes"/>
      <point x="626" y="533"/>
      <point x="629" y="533" type="qcurve" smooth="yes"/>
      <point x="653" y="533"/>
    </contour>
  </outline>
</glyph>
<glyph name="exclamdown" format="1">
  <advance width="520"/>
  <unicode hex="00A1"/>
  <outline>
    <contour>
      <point x="80" y="-442" type="line" smooth="yes"/>
      <point x="72" y="-480"/>
      <point x="-6" y="-555"/>
      <point x="-49" y="-555" type="qcurve" smooth="yes"/>
      <point x="-128" y="-555"/>
      <point x="-128" y="-485" type="qcurve" smooth="yes"/>
      <point x="-128" y="-458"/>
      <point x="-119" y="-434" type="qcurve" smooth="yes"/>
      <point x="198" y="408" type="line" smooth="yes"/>
      <point x="204" y="425"/>
      <point x="265" y="425"/>
      <point x="265" y="412" type="qcurve" smooth="yes"/>
    </contour>
    <contour>
      <point x="450" y="711"/>
      <point x="388" y="633"/>
      <point x="276" y="633"/>
      <point x="205" y="702"/>
      <point x="205" y="806"/>
      <point x="274" y="869"/>
      <point x="368" y="869"/>
      <point x="450" y="812"/>
    </contour>
  </outline>
</glyph>
<glyph name="cent" format="1">
  <advance width="866"/>
  <unicode hex="00A2"/>
  <outline>
    <contour>
      <point x="844" y="311" type="qcurve" smooth="yes"/>
      <point x="714" y="220"/>
      <point x="524" y="220" type="qcurve" smooth="yes"/>
      <point x="506" y="220" type="line"/>
      <point x="444" y="8" type="line" smooth="yes"/>
      <point x="440" y="-6"/>
      <point x="400" y="-6"/>
      <point x="366" y="13"/>
      <point x="369" y="23" type="qcurve" smooth="yes"/>
      <point x="430" y="231" type="line"/>
      <point x="308" y="263"/>
      <point x="161" y="470"/>
      <point x="161" y="590" type="qcurve" smooth="yes"/>
      <point x="161" y="710"/>
      <point x="288" y="930"/>
      <point x="542" y="1069"/>
      <point x="678" y="1073" type="qcurve"/>
      <point x="731" y="1253" type="line" smooth="yes"/>
      <point x="734" y="1263"/>
      <point x="771" y="1263"/>
      <point x="810" y="1248"/>
      <point x="807" y="1237" type="qcurve" smooth="yes"/>
      <point x="757" y="1068" type="line"/>
      <point x="920" y="1044"/>
      <point x="940" y="984" type="qcurve" smooth="yes"/>
      <point x="945" y="969"/>
      <point x="945" y="954" type="qcurve" smooth="yes"/>
      <point x="945" y="927"/>
      <point x="903" y="876"/>
      <point x="885" y="876" type="qcurve" smooth="yes"/>
      <point x="871" y="876"/>
      <point x="817" y="941"/>
      <point x="777" y="982"/>
      <point x="736" y="999" type="qcurve"/>
      <point x="534" y="314" type="line"/>
      <point x="562" y="307"/>
      <point x="610" y="307" type="qcurve" smooth="yes"/>
      <point x="677" y="307"/>
      <point x="818" y="364" type="qcurve" smooth="yes"/>
      <point x="827" y="368"/>
      <point x="848" y="335"/>
      <point x="848" y="314"/>
    </contour>
    <contour>
      <point x="463" y="342" type="qcurve"/>
      <point x="660" y="1011" type="line"/>
      <point x="521" y="1005"/>
      <point x="317" y="765"/>
      <point x="317" y="623" type="qcurve" smooth="yes"/>
      <point x="317" y="428"/>
    </contour>
  </outline>
</glyph>
<glyph name="sterling" format="1">
  <advance width="1081"/>
  <unicode hex="00A3"/>
  <outline>
    <contour>
      <point x="1103" y="1154" type="qcurve" smooth="yes"/>
      <point x="1103" y="1120"/>
      <point x="1076" y="1063"/>
      <point x="1037" y="1063" type="qcurve" smooth="yes"/>
      <point x="964" y="1063"/>
      <point x="962" y="1145" type="qcurve" smooth="yes"/>
      <point x="960" y="1255"/>
      <point x="849" y="1255" type="qcurve" smooth="yes"/>
      <point x="793" y="1255"/>
      <point x="671" y="1136"/>
      <point x="623" y="649" type="qcurve"/>
      <point x="915" y="649" type="line" smooth="yes"/>
      <point x="926" y="649"/>
      <point x="926" y="615"/>
      <point x="912" y="584"/>
      <point x="903" y="584" type="qcurve" smooth="yes"/>
      <point x="612" y="584" type="line"/>
      <point x="559" y="280"/>
      <point x="336" y="162" type="qcurve"/>
      <point x="336" y="158" type="line"/>
      <point x="426" y="158"/>
      <point x="562.5" y="96.5" type="qcurve" smooth="yes"/>
      <point x="698" y="35"/>
      <point x="764" y="35" type="qcurve" smooth="yes"/>
      <point x="814" y="35"/>
      <point x="852" y="82"/>
      <point x="852" y="176" type="qcurve" smooth="yes"/>
      <point x="852" y="250"/>
      <point x="899" y="250" type="qcurve" smooth="yes"/>
      <point x="934" y="250"/>
      <point x="975" y="194"/>
      <point x="975" y="158" type="qcurve" smooth="yes"/>
      <point x="975" y="60"/>
      <point x="762" y="-53"/>
      <point x="662" y="-53" type="qcurve" smooth="yes"/>
      <point x="546" y="-53"/>
      <point x="324" y="61"/>
      <point x="235" y="96" type="qcurve"/>
      <point x="194" y="90"/>
      <point x="134" y="-29"/>
      <point x="63" y="-29" type="qcurve" smooth="yes"/>
      <point x="-8" y="-29"/>
      <point x="-8" y="20" type="qcurve" smooth="yes"/>
      <point x="-8" y="74"/>
      <point x="141" y="150"/>
      <point x="313" y="176"/>
      <point x="431" y="384"/>
      <point x="448" y="584" type="qcurve"/>
      <point x="217" y="584" type="line" smooth="yes"/>
      <point x="209" y="584"/>
      <point x="209" y="621"/>
      <point x="221" y="649"/>
      <point x="235" y="649" type="qcurve" smooth="yes"/>
      <point x="457" y="649" type="line"/>
      <point x="476" y="829"/>
      <point x="560" y="1124"/>
      <point x="780" y="1323"/>
      <point x="907" y="1323" type="qcurve" smooth="yes"/>
      <point x="1005" y="1323"/>
      <point x="1103" y="1228"/>
    </contour>
  </outline>
</glyph>
<glyph name="currency" format="1">
  <advance width="1024"/>
  <unicode hex="00A4"/>
  <outline>
    <contour>
      <point x="946" y="668" type="qcurve" smooth="yes"/>
      <point x="946" y="521"/>
      <point x="858" y="406" type="qcurve"/>
      <point x="936" y="327" type="line" smooth="yes"/>
      <point x="938" y="325"/>
      <point x="938" y="322" type="qcurve" smooth="yes"/>
      <point x="938" y="309"/>
      <point x="874" y="240"/>
      <point x="859" y="240" type="qcurve" smooth="yes"/>
      <point x="855" y="240"/>
      <point x="852" y="243" type="qcurve" smooth="yes"/>
      <point x="774" y="322" type="line"/>
      <point x="659" y="234"/>
      <point x="369" y="234"/>
      <point x="251" y="323" type="qcurve"/>
      <point x="172" y="243" type="line" smooth="yes"/>
      <point x="169" y="240"/>
      <point x="165" y="240" type="qcurve" smooth="yes"/>
      <point x="151" y="240"/>
      <point x="86" y="307"/>
      <point x="86" y="321" type="qcurve" smooth="yes"/>
      <point x="86" y="325"/>
      <point x="88" y="327" type="qcurve" smooth="yes"/>
      <point x="167" y="407" type="line"/>
      <point x="80" y="522"/>
      <point x="80" y="812"/>
      <point x="167" y="928" type="qcurve"/>
      <point x="88" y="1008" type="line" smooth="yes"/>
      <point x="86" y="1010"/>
      <point x="86" y="1013" type="qcurve" smooth="yes"/>
      <point x="86" y="1026"/>
      <point x="152" y="1094"/>
      <point x="166" y="1094" type="qcurve" smooth="yes"/>
      <point x="170" y="1094"/>
      <point x="172" y="1092" type="qcurve" smooth="yes"/>
      <point x="251" y="1013" type="line"/>
      <point x="366" y="1101"/>
      <point x="659" y="1101"/>
      <point x="774" y="1013" type="qcurve"/>
      <point x="852" y="1092" type="line" smooth="yes"/>
      <point x="855" y="1095"/>
      <point x="859" y="1095" type="qcurve" smooth="yes"/>
      <point x="874" y="1095"/>
      <point x="938" y="1028"/>
      <point x="938" y="1014" type="qcurve" smooth="yes"/>
      <point x="938" y="1010"/>
      <point x="936" y="1008" type="qcurve" smooth="yes"/>
      <point x="858" y="930" type="line"/>
      <point x="946" y="815"/>
    </contour>
    <contour>
      <point x="860" y="668" type="qcurve" smooth="yes"/>
      <point x="860" y="812"/>
      <point x="658" y="1014"/>
      <point x="369" y="1014"/>
      <point x="167" y="812"/>
      <point x="167" y="525"/>
      <point x="371" y="321"/>
      <point x="657" y="321"/>
      <point x="860" y="524"/>
    </contour>
  </outline>
</glyph>
<glyph name="yen" format="1">
  <advance width="1317"/>
  <unicode hex="00A5"/>
  <outline>
    <contour>
      <point x="688" y="199" type="line"/>
      <point x="679" y="168"/>
      <point x="679" y="146" type="qcurve"/>
      <point x="679" y="96"/>
      <point x="733" y="81" type="qcurve"/>
      <point x="757" y="74"/>
      <point x="829" y="74" type="qcurve"/>
      <point x="837" y="74"/>
      <point x="837" y="55.5" type="qcurve"/>
      <point x="837" y="37"/>
      <point x="826.5" y="14.5" type="qcurve"/>
      <point x="816" y="-8"/>
      <point x="807" y="-8" type="qcurve"/>
      <point x="741" y="0"/>
      <point x="563" y="0" type="qcurve"/>
      <point x="385" y="0"/>
      <point x="297" y="-8" type="qcurve"/>
      <point x="289" y="-8"/>
      <point x="289" y="10.5" type="qcurve"/>
      <point x="289" y="29"/>
      <point x="299.5" y="51.5" type="qcurve"/>
      <point x="310" y="74"/>
      <point x="319" y="74" type="qcurve"/>
      <point x="421" y="74"/>
      <point x="467" y="96" type="qcurve"/>
      <point x="513" y="118"/>
      <point x="535" y="199" type="qcurve"/>
      <point x="613" y="472" type="line"/>
      <point x="283" y="472" type="line"/>
      <point x="268" y="472"/>
      <point x="268" y="522" type="qcurve"/>
      <point x="268" y="572"/>
      <point x="283" y="572" type="qcurve"/>
      <point x="639" y="572" type="line"/>
      <point x="643" y="591"/>
      <point x="643" y="613" type="qcurve"/>
      <point x="643" y="666"/>
      <point x="621" y="737" type="qcurve"/>
      <point x="344" y="737" type="line"/>
      <point x="329" y="737"/>
      <point x="329" y="788" type="qcurve"/>
      <point x="329" y="839"/>
      <point x="344" y="839" type="qcurve"/>
      <point x="590" y="839" type="line"/>
      <point x="459" y="1257" type="line"/>
      <point x="437" y="1326"/>
      <point x="399" y="1353" type="qcurve"/>
      <point x="361" y="1380"/>
      <point x="291" y="1380" type="qcurve"/>
      <point x="283" y="1380"/>
      <point x="283" y="1398.5" type="qcurve"/>
      <point x="283" y="1417"/>
      <point x="293.5" y="1439.5" type="qcurve"/>
      <point x="304" y="1462"/>
      <point x="313" y="1462" type="qcurve"/>
      <point x="415" y="1456"/>
      <point x="531" y="1456" type="qcurve"/>
      <point x="647" y="1456"/>
      <point x="778" y="1462" type="qcurve"/>
      <point x="786" y="1462"/>
      <point x="786" y="1443.5" type="qcurve"/>
      <point x="786" y="1425"/>
      <point x="776" y="1402.5" type="qcurve"/>
      <point x="766" y="1380"/>
      <point x="756" y="1380" type="qcurve"/>
      <point x="682" y="1380"/>
      <point x="653" y="1371" type="qcurve"/>
      <point x="603" y="1354"/>
      <point x="603" y="1305" type="qcurve"/>
      <point x="603" y="1284"/>
      <point x="612" y="1257" type="qcurve"/>
      <point x="774" y="739" type="line"/>
      <point x="780" y="719"/>
      <point x="791" y="719" type="qcurve"/>
      <point x="802" y="719"/>
      <point x="817" y="735" type="qcurve"/>
      <point x="1294" y="1247" type="line"/>
      <point x="1348" y="1306"/>
      <point x="1348" y="1337" type="qcurve"/>
      <point x="1348" y="1380"/>
      <point x="1241" y="1380" type="qcurve"/>
      <point x="1233" y="1380"/>
      <point x="1233" y="1397.5" type="qcurve"/>
      <point x="1233" y="1415"/>
      <point x="1243.5" y="1438.5" type="qcurve"/>
      <point x="1254" y="1462"/>
      <point x="1264" y="1462" type="qcurve"/>
      <point x="1350" y="1456"/>
      <point x="1478.5" y="1456" type="qcurve"/>
      <point x="1607" y="1456"/>
      <point x="1686" y="1462" type="qcurve"/>
      <point x="1694" y="1462"/>
      <point x="1694" y="1444.5" type="qcurve"/>
      <point x="1694" y="1427"/>
      <point x="1684" y="1403.5" type="qcurve"/>
      <point x="1674" y="1380"/>
      <point x="1663" y="1380" type="qcurve"/>
      <point x="1549" y="1380"/>
      <point x="1478" y="1330" type="qcurve"/>
      <point x="1439" y="1303"/>
      <point x="1282" y="1135" type="qcurve"/>
      <point x="1004" y="839" type="line"/>
      <point x="1235" y="839" type="line"/>
      <point x="1250" y="839"/>
      <point x="1250" y="788" type="qcurve"/>
      <point x="1250" y="737"/>
      <point x="1235" y="737" type="qcurve"/>
      <point x="910" y="737" type="line"/>
      <point x="874" y="700" type="line"/>
      <point x="823" y="648"/>
      <point x="796" y="572" type="qcurve"/>
      <point x="1174" y="572" type="line"/>
      <point x="1189" y="572"/>
      <point x="1189" y="522" type="qcurve"/>
      <point x="1189" y="472"/>
      <point x="1174" y="472" type="qcurve"/>
      <point x="766" y="472" type="line"/>
    </contour>
  </outline>
</glyph>
<glyph name="brokenbar" format="1">
  <advance width="555"/>
  <unicode hex="00A6"/>
  <outline>
    <contour>
      <point x="432" y="1399" type="line"/>
      <point x="432" y="817" type="line"/>
      <point x="312" y="817" type="line"/>
      <point x="312" y="1399" type="line"/>
    </contour>
    <contour>
      <point x="432" y="590" type="line"/>
      <point x="432" y="-33" type="line"/>
      <point x="312" y="-33" type="line"/>
      <point x="312" y="590" type="line"/>
    </contour>
  </outline>
</glyph>
<glyph name="section" format="1">
  <advance width="989"/>
  <unicode hex="00A7"/>
  <outline>
    <contour>
      <point x="862" y="384" type="qcurve" smooth="yes"/>
      <point x="862" y="266"/>
      <point x="801" y="172" type="qcurve" smooth="yes"/>
      <point x="711" y="33"/>
      <point x="328" y="-274"/>
      <point x="192" y="-274" type="qcurve" smooth="yes"/>
      <point x="119" y="-274"/>
      <point x="14" y="-185"/>
      <point x="14" y="-115" type="qcurve" smooth="yes"/>
      <point x="14" y="-76"/>
      <point x="49" y="-76" type="qcurve" smooth="yes"/>
      <point x="59" y="-76"/>
      <point x="136" y="-123" type="qcurve" smooth="yes"/>
      <point x="212" y="-170"/>
      <point x="286" y="-170" type="qcurve" smooth="yes"/>
      <point x="360" y="-170"/>
      <point x="465" y="-76"/>
      <point x="465" y="4" type="qcurve" smooth="yes"/>
      <point x="465" y="136"/>
      <point x="250" y="640"/>
      <point x="250" y="776" type="qcurve" smooth="yes"/>
      <point x="250" y="912"/>
      <point x="475" y="1215"/>
      <point x="800" y="1442"/>
      <point x="895" y="1442" type="qcurve" smooth="yes"/>
      <point x="953" y="1442"/>
      <point x="1040" y="1363"/>
      <point x="1040" y="1307" type="qcurve" smooth="yes"/>
      <point x="1040" y="1227"/>
      <point x="985" y="1227" type="qcurve" smooth="yes"/>
      <point x="983" y="1227"/>
      <point x="891" y="1346"/>
      <point x="817" y="1346" type="qcurve" smooth="yes"/>
      <point x="743" y="1346"/>
      <point x="639" y="1249"/>
      <point x="639" y="1169" type="qcurve" smooth="yes"/>
      <point x="639" y="1032"/>
      <point x="862" y="502"/>
    </contour>
    <contour>
      <point x="731" y="332" type="qcurve" smooth="yes"/>
      <point x="731" y="446"/>
      <point x="530" y="949"/>
      <point x="530" y="991" type="qcurve" smooth="yes"/>
      <point x="530" y="1135"/>
      <point x="549" y="1174" type="qcurve"/>
      <point x="541" y="1178" type="line"/>
      <point x="373" y="1020"/>
      <point x="373" y="866" type="qcurve" smooth="yes"/>
      <point x="373" y="712"/>
      <point x="575" y="230"/>
      <point x="575" y="143" type="qcurve" smooth="yes"/>
      <point x="575" y="56"/>
      <point x="569" y="10" type="qcurve"/>
      <point x="573" y="6" type="line"/>
      <point x="731" y="149"/>
    </contour>
  </outline>
</glyph>
<glyph name="dieresis" format="1">
  <advance width="909"/>
  <unicode hex="00A8"/>
  <outline>
    <contour>
      <point x="612" y="1176" type="qcurve" smooth="yes"/>
      <point x="612" y="1118"/>
      <point x="545" y="1051"/>
      <point x="500" y="1051" type="qcurve" smooth="yes"/>
      <point x="413" y="1051"/>
      <point x="413" y="1141" type="qcurve" smooth="yes"/>
      <point x="413" y="1193"/>
      <point x="483" y="1266"/>
      <point x="527" y="1266" type="qcurve" smooth="yes"/>
      <point x="612" y="1265"/>
    </contour>
    <contour>
      <point x="969" y="1176" type="qcurve" smooth="yes"/>
      <point x="969" y="1118"/>
      <point x="902" y="1051"/>
      <point x="857" y="1051" type="qcurve" smooth="yes"/>
      <point x="770" y="1051"/>
      <point x="770" y="1141" type="qcurve" smooth="yes"/>
      <point x="770" y="1193"/>
      <point x="840" y="1266"/>
      <point x="884" y="1266" type="qcurve" smooth="yes"/>
      <point x="969" y="1265"/>
    </contour>
  </outline>
</glyph>
<glyph name="copyright" format="1">
  <advance width="1565"/>
  <unicode hex="00A9"/>
  <outline>
    <contour>
      <point x="1516" y="449"/>
      <point x="1094" y="27"/>
      <point x="496" y="27"/>
      <point x="74" y="449"/>
      <point x="74" y="1047"/>
      <point x="496" y="1468"/>
      <point x="1094" y="1468"/>
      <point x="1516" y="1047"/>
    </contour>
    <contour>
      <point x="1445" y="476"/>
      <point x="1445" y="1017"/>
      <point x="1064" y="1398"/>
      <point x="527" y="1398"/>
      <point x="144" y="1015"/>
      <point x="144" y="479"/>
      <point x="526" y="97"/>
      <point x="1066" y="97"/>
    </contour>
    <contour>
      <point x="1042" y="560" type="qcurve" smooth="yes"/>
      <point x="1043" y="566"/>
      <point x="1076" y="566"/>
      <point x="1078" y="554" type="qcurve"/>
      <point x="1070" y="472"/>
      <point x="1030" y="410" type="qcurve"/>
      <point x="1002" y="404"/>
      <point x="989" y="400" type="qcurve" smooth="yes"/>
      <point x="911" y="376"/>
      <point x="793" y="376" type="qcurve" smooth="yes"/>
      <point x="638" y="376"/>
      <point x="430" y="586"/>
      <point x="430" y="737" type="qcurve" smooth="yes"/>
      <point x="430" y="910"/>
      <point x="646" y="1133"/>
      <point x="805" y="1133" type="qcurve" smooth="yes"/>
      <point x="880" y="1133"/>
      <point x="1030" y="1102"/>
      <point x="1041" y="1102" type="qcurve"/>
      <point x="1057" y="1067"/>
      <point x="1057" y="936" type="qcurve" smooth="yes"/>
      <point x="1057" y="928"/>
      <point x="1021" y="927"/>
      <point x="1020" y="934" type="qcurve" smooth="yes"/>
      <point x="1003" y="1095"/>
      <point x="802" y="1095" type="qcurve" smooth="yes"/>
      <point x="687" y="1095"/>
      <point x="534" y="890"/>
      <point x="534" y="769" type="qcurve" smooth="yes"/>
      <point x="536" y="593"/>
      <point x="707" y="416"/>
      <point x="800" y="416" type="qcurve" smooth="yes"/>
      <point x="996" y="416"/>
    </contour>
  </outline>
</glyph>
<glyph name="ordfeminine" format="1">
  <advance width="579"/>
  <unicode hex="00AA"/>
  <outline>
    <contour>
      <point x="551.2" y="632" type="line" smooth="yes"/>
      <point x="549.4" y="626"/>
      <point x="549.4" y="620.6" type="qcurve" smooth="yes"/>
      <point x="550" y="608.6"/>
      <point x="563.2" y="608.6" type="qcurve" smooth="yes"/>
      <point x="584.8" y="608.6"/>
      <point x="624.4" y="648.2" type="qcurve" smooth="yes"/>
      <point x="631.6" y="655.4"/>
      <point x="648.4" y="641" type="qcurve" smooth="yes"/>
      <point x="660.4" y="630.8"/>
      <point x="660.4" y="624.2" type="qcurve" smooth="yes"/>
      <point x="660.4" y="621.2"/>
      <point x="658" y="618.8" type="qcurve" smooth="yes"/>
      <point x="602.8" y="564.8"/>
      <point x="512.2" y="507.8"/>
      <point x="478.6" y="507.8" type="qcurve" smooth="yes"/>
      <point x="431.2" y="507.8"/>
      <point x="431.2" y="562.4" type="qcurve" smooth="yes"/>
      <point x="431.2" y="592.4"/>
      <point x="442" y="617.6" type="qcurve" smooth="yes"/>
      <point x="457.6" y="653" type="line"/>
      <point x="450.4" y="656.6" type="line"/>
      <point x="316" y="507.8"/>
      <point x="233.8" y="507.8" type="qcurve" smooth="yes"/>
      <point x="190" y="507.8"/>
      <point x="137.8" y="572.6"/>
      <point x="137.8" y="623.6" type="qcurve" smooth="yes"/>
      <point x="137.8" y="749"/>
      <point x="361" y="1030.4"/>
      <point x="484.6" y="1030.4" type="qcurve" smooth="yes"/>
      <point x="521.8" y="1030.4"/>
      <point x="548.8" y="1011.8" type="qcurve"/>
      <point x="560.8" y="1041.2" type="line" smooth="yes"/>
      <point x="566.2" y="1054.4"/>
      <point x="671.2" y="1054.4"/>
      <point x="671.2" y="1033.4" type="qcurve" smooth="yes"/>
      <point x="671.2" y="1029.2"/>
      <point x="669.4" y="1022.6" type="qcurve" smooth="yes"/>
    </contour>
    <contour>
      <point x="499.6" y="855.8" type="qcurve" smooth="yes"/>
      <point x="529" y="951.8" type="line"/>
      <point x="509.8" y="980"/>
      <point x="468.4" y="980" type="qcurve" smooth="yes"/>
      <point x="403.6" y="980"/>
      <point x="271" y="753.2"/>
      <point x="271" y="660.2" type="qcurve" smooth="yes"/>
      <point x="271" y="590"/>
      <point x="299.2" y="590" type="qcurve" smooth="yes"/>
      <point x="330.4" y="590"/>
      <point x="419.8" y="687.8"/>
      <point x="483.4" y="803"/>
    </contour>
  </outline>
</glyph>
<glyph name="guillemotleft" format="1">
  <advance width="887"/>
  <unicode hex="00AB"/>
  <outline>
    <contour>
      <point x="372" y="94" type="line" smooth="yes"/>
      <point x="376" y="84"/>
      <point x="345" y="57"/>
      <point x="328" y="57"/>
      <point x="325" y="60" type="qcurve" smooth="yes"/>
      <point x="109" y="372" type="line" smooth="yes"/>
      <point x="96" y="391"/>
      <point x="96" y="444"/>
      <point x="138" y="478" type="qcurve" smooth="yes"/>
      <point x="521" y="790" type="line" smooth="yes"/>
      <point x="525" y="794"/>
      <point x="530" y="793" type="qcurve" smooth="yes"/>
      <point x="553" y="793"/>
      <point x="553" y="769" type="qcurve" smooth="yes"/>
      <point x="553" y="763"/>
      <point x="549" y="760" type="qcurve" smooth="yes"/>
      <point x="273" y="466" type="line" smooth="yes"/>
      <point x="248" y="440"/>
      <point x="248" y="389"/>
      <point x="255" y="373" type="qcurve" smooth="yes"/>
    </contour>
    <contour>
      <point x="723" y="94" type="line" smooth="yes"/>
      <point x="727" y="84"/>
      <point x="697" y="57"/>
      <point x="679" y="57"/>
      <point x="676" y="60" type="qcurve" smooth="yes"/>
      <point x="460" y="372" type="line" smooth="yes"/>
      <point x="447" y="391"/>
      <point x="447" y="444"/>
      <point x="489" y="478" type="qcurve" smooth="yes"/>
      <point x="872" y="790" type="line" smooth="yes"/>
      <point x="876" y="794"/>
      <point x="881" y="793" type="qcurve" smooth="yes"/>
      <point x="904" y="793"/>
      <point x="904" y="769" type="qcurve" smooth="yes"/>
      <point x="904" y="763"/>
      <point x="901" y="760" type="qcurve" smooth="yes"/>
      <point x="624" y="466" type="line" smooth="yes"/>
      <point x="599" y="440"/>
      <point x="599" y="389"/>
      <point x="606" y="373" type="qcurve" smooth="yes"/>
    </contour>
  </outline>
</glyph>
<glyph name="registered" format="1">
  <advance width="1565"/>
  <unicode hex="00AE"/>
  <outline>
    <contour>
      <point x="1516" y="449"/>
      <point x="1094" y="27"/>
      <point x="496" y="27"/>
      <point x="74" y="449"/>
      <point x="74" y="1047"/>
      <point x="496" y="1468"/>
      <point x="1094" y="1468"/>
      <point x="1516" y="1047"/>
    </contour>
    <contour>
      <point x="1445" y="1017"/>
      <point x="1064" y="1398"/>
      <point x="527" y="1398"/>
      <point x="144" y="1015"/>
      <point x="144" y="479"/>
      <point x="526" y="97"/>
      <point x="1066" y="97"/>
      <point x="1445" y="476"/>
    </contour>
    <contour>
      <point x="1083" y="918" type="qcurve" smooth="yes"/>
      <point x="1083" y="774"/>
      <point x="926" y="731" type="qcurve" smooth="yes"/>
      <point x="917" y="729"/>
      <point x="917" y="714"/>
      <point x="926" y="700" type="qcurve"/>
      <point x="1001" y="566"/>
      <point x="1118" y="455" type="qcurve" smooth="yes"/>
      <point x="1178" y="398"/>
      <point x="1218" y="398" type="qcurve" smooth="yes"/>
      <point x="1226" y="398"/>
      <point x="1226" y="381"/>
      <point x="1218" y="379" type="qcurve"/>
      <point x="1201" y="378"/>
      <point x="1185" y="378" type="qcurve" smooth="yes"/>
      <point x="1097" y="378"/>
      <point x="1045" y="412" type="qcurve" smooth="yes"/>
      <point x="984" y="452"/>
      <point x="926" y="533" type="qcurve"/>
      <point x="846" y="651" type="line"/>
      <point x="809" y="697"/>
      <point x="792" y="710"/>
      <point x="730" y="710"/>
      <point x="692" y="713"/>
      <point x="691" y="700" type="qcurve"/>
      <point x="691" y="489" type="line" smooth="yes"/>
      <point x="691" y="427"/>
      <point x="795" y="427" type="qcurve" smooth="yes"/>
      <point x="803" y="427"/>
      <point x="803" y="386"/>
      <point x="795" y="386" type="qcurve"/>
      <point x="750" y="390"/>
      <point x="550" y="390"/>
      <point x="501" y="386" type="qcurve"/>
      <point x="493" y="386"/>
      <point x="493" y="427"/>
      <point x="501" y="427" type="qcurve" smooth="yes"/>
      <point x="597" y="427"/>
      <point x="597" y="489" type="qcurve" smooth="yes"/>
      <point x="597" y="1019" type="line" smooth="yes"/>
      <point x="597" y="1077"/>
      <point x="496" y="1077" type="qcurve" smooth="yes"/>
      <point x="488" y="1077"/>
      <point x="488" y="1118"/>
      <point x="496" y="1118" type="qcurve"/>
      <point x="566" y="1114"/>
      <point x="714" y="1114"/>
      <point x="805" y="1117" type="qcurve"/>
      <point x="933" y="1117"/>
      <point x="1083" y="1012"/>
    </contour>
    <contour>
      <point x="975" y="918" type="qcurve" smooth="yes"/>
      <point x="975" y="988"/>
      <point x="862" y="1084"/>
      <point x="691" y="1084"/>
      <point x="691" y="1068" type="qcurve" smooth="yes"/>
      <point x="691" y="768" type="line" smooth="yes"/>
      <point x="691" y="742"/>
      <point x="769" y="742" type="qcurve" smooth="yes"/>
      <point x="975" y="742"/>
    </contour>
  </outline>
</glyph>
<glyph name="macron" format="1">
  <advance width="608"/>
  <unicode hex="00AF"/>
  <outline>
    <contour>
      <point x="728" y="1104" type="qcurve" smooth="yes"/>
      <point x="282" y="1104" type="line" smooth="yes"/>
      <point x="275" y="1104"/>
      <point x="275" y="1139"/>
      <point x="299" y="1198"/>
      <point x="310" y="1198" type="qcurve" smooth="yes"/>
      <point x="761" y="1198" type="line" smooth="yes"/>
      <point x="767" y="1198"/>
      <point x="767" y="1168"/>
      <point x="740" y="1104"/>
    </contour>
  </outline>
</glyph>
<glyph name="degree" format="1">
  <advance width="629"/>
  <unicode hex="00B0"/>
  <outline>
    <contour>
      <point x="604" y="1311"/>
      <point x="764" y="1164"/>
      <point x="764" y="926"/>
      <point x="607" y="782"/>
      <point x="372" y="782"/>
      <point x="215" y="926"/>
      <point x="215" y="1164"/>
      <point x="374" y="1311"/>
    </contour>
    <contour>
      <point x="649" y="1134"/>
      <point x="557" y="1239"/>
      <point x="420" y="1239"/>
      <point x="330" y="1134"/>
      <point x="330" y="960"/>
      <point x="420" y="854"/>
      <point x="558" y="854"/>
      <point x="649" y="960"/>
    </contour>
  </outline>
</glyph>
<glyph name="plusminus" format="1">
  <advance width="1024"/>
  <unicode hex="00B1"/>
  <outline>
    <contour>
      <point x="907" y="596" type="line"/>
      <point x="573" y="596" type="line"/>
      <point x="573" y="225" type="line"/>
      <point x="453" y="225" type="line"/>
      <point x="453" y="596" type="line"/>
      <point x="119" y="596" type="line"/>
      <point x="119" y="696" type="line"/>
      <point x="453" y="696" type="line"/>
      <point x="453" y="1032" type="line"/>
      <point x="573" y="1032" type="line"/>
      <point x="573" y="696" type="line"/>
      <point x="907" y="696" type="line"/>
    </contour>
    <contour>
      <point x="907" y="2" type="line"/>
      <point x="119" y="2" type="line"/>
      <point x="119" y="102" type="line"/>
      <point x="907" y="102" type="line"/>
    </contour>
  </outline>
</glyph>
<glyph name="uni00B2" format="1">
  <advance width="621"/>
  <unicode hex="00B2"/>
  <outline>
    <contour>
      <point x="261.5" y="659" type="qcurve" smooth="yes"/>
      <point x="246.5" y="646"/>
      <point x="246.5" y="630"/>
      <point x="264.5" y="630" type="qcurve" smooth="yes"/>
      <point x="460.5" y="630" type="line" smooth="yes"/>
      <point x="565.5" y="630"/>
      <point x="616.5" y="668" type="qcurve" smooth="yes"/>
      <point x="639.5" y="684"/>
      <point x="659.5" y="712" type="qcurve" smooth="yes"/>
      <point x="662.5" y="717"/>
      <point x="694.5" y="716"/>
      <point x="694.5" y="704" type="qcurve" smooth="yes"/>
      <point x="694.5" y="702"/>
      <point x="693.5" y="701" type="qcurve" smooth="yes"/>
      <point x="589.5" y="556" type="line" smooth="yes"/>
      <point x="573.5" y="534"/>
      <point x="549.5" y="535" type="qcurve"/>
      <point x="468.5" y="540"/>
      <point x="187.5" y="540"/>
      <point x="101.5" y="535" type="qcurve"/>
      <point x="79.5" y="535"/>
      <point x="79.5" y="555" type="qcurve" smooth="yes"/>
      <point x="79.5" y="566"/>
      <point x="88.5" y="572" type="qcurve" smooth="yes"/>
      <point x="275.5" y="726"/>
      <point x="531.5" y="978"/>
      <point x="663.5" y="1164"/>
      <point x="663.5" y="1232" type="qcurve" smooth="yes"/>
      <point x="663.5" y="1286"/>
      <point x="602.5" y="1336"/>
      <point x="557.5" y="1336" type="qcurve" smooth="yes"/>
      <point x="461.5" y="1336"/>
      <point x="362.5" y="1216" type="qcurve" smooth="yes"/>
      <point x="359.5" y="1213"/>
      <point x="341.5" y="1213"/>
      <point x="328.5" y="1228"/>
      <point x="328.5" y="1234"/>
      <point x="330.5" y="1236" type="qcurve" smooth="yes"/>
      <point x="389.5" y="1313"/>
      <point x="551.5" y="1420"/>
      <point x="637.5" y="1420" type="qcurve" smooth="yes"/>
      <point x="708.5" y="1420"/>
      <point x="789.5" y="1334"/>
      <point x="789.5" y="1267" type="qcurve" smooth="yes"/>
      <point x="789.5" y="1173"/>
      <point x="632.5" y="971"/>
    </contour>
  </outline>
</glyph>
<glyph name="uni00B3" format="1">
  <advance width="621"/>
  <unicode hex="00B3"/>
  <outline>
    <contour>
      <point x="699.5" y="886" type="qcurve"/>
      <point x="699.5" y="746"/>
      <point x="579" y="635.5" type="qcurve"/>
      <point x="458.5" y="525"/>
      <point x="308.5" y="525" type="qcurve"/>
      <point x="158.5" y="525"/>
      <point x="158.5" y="607" type="qcurve"/>
      <point x="158.5" y="638"/>
      <point x="183.5" y="655.5" type="qcurve"/>
      <point x="208.5" y="673"/>
      <point x="229.5" y="673" type="qcurve"/>
      <point x="265.18" y="673"/>
      <point x="281.5" y="624" type="qcurve"/>
      <point x="297.82" y="575"/>
      <point x="306" y="575" type="qcurve"/>
      <point x="448.5" y="575"/>
      <point x="515" y="671.5" type="qcurve"/>
      <point x="581.5" y="768"/>
      <point x="581.5" y="859" type="qcurve"/>
      <point x="581.5" y="995"/>
      <point x="439.5" y="995" type="qcurve"/>
      <point x="400.5" y="995"/>
      <point x="362.5" y="985" type="qcurve"/>
      <point x="357.5" y="985"/>
      <point x="357.5" y="1000" type="qcurve"/>
      <point x="357.5" y="1015"/>
      <point x="364.5" y="1026.5" type="qcurve"/>
      <point x="371.5" y="1038"/>
      <point x="376.5" y="1038" type="qcurve"/>
      <point x="484.5" y="1038"/>
      <point x="571.5" y="1098" type="qcurve"/>
      <point x="658.5" y="1158"/>
      <point x="658.5" y="1256" type="qcurve"/>
      <point x="658.5" y="1303"/>
      <point x="631.5" y="1326.5" type="qcurve"/>
      <point x="604.5" y="1350"/>
      <point x="564.5" y="1350" type="qcurve"/>
      <point x="494.5" y="1350"/>
      <point x="403.5" y="1259" type="qcurve"/>
      <point x="401.5" y="1257"/>
      <point x="394" y="1257" type="qcurve"/>
      <point x="386.5" y="1257"/>
      <point x="380.5" y="1267" type="qcurve"/>
      <point x="374.5" y="1277"/>
      <point x="374.5" y="1280" type="qcurve"/>
      <point x="374.5" y="1283"/>
      <point x="376.5" y="1286" type="qcurve"/>
      <point x="501.5" y="1419"/>
      <point x="627.5" y="1420" type="qcurve"/>
      <point x="691.5" y="1420"/>
      <point x="728" y="1382.5" type="qcurve"/>
      <point x="764.5" y="1345"/>
      <point x="764.5" y="1288" type="qcurve"/>
      <point x="764.5" y="1143.5"/>
      <point x="589.5" y="1056" type="qcurve"/>
      <point x="563.5" y="1043"/>
      <point x="563.5" y="1038.5" type="qcurve"/>
      <point x="563.5" y="1034"/>
      <point x="579.5" y="1030" type="qcurve"/>
      <point x="699.5" y="1003"/>
    </contour>
  </outline>
</glyph>
<glyph name="acute" format="1">
  <advance width="918"/>
  <unicode hex="00B4"/>
  <outline>
    <contour>
      <point x="683" y="1334" type="qcurve" smooth="yes"/>
      <point x="409" y="1031" type="line" smooth="yes"/>
      <point x="385" y="1005"/>
      <point x="335" y="1005"/>
      <point x="335" y="1043"/>
      <point x="348" y="1061" type="qcurve" smooth="yes"/>
      <point x="596" y="1400" type="line" smooth="yes"/>
      <point x="602" y="1409"/>
      <point x="642" y="1409"/>
      <point x="686" y="1355"/>
      <point x="686" y="1337"/>
    </contour>
  </outline>
</glyph>
<glyph name="mu" format="1">
  <advance width="991"/>
  <unicode hex="00B5"/>
  <outline>
    <contour>
      <point x="768" y="203" type="line"/>
      <point x="756" y="161"/>
      <point x="756" y="141" type="qcurve"/>
      <point x="756" y="102"/>
      <point x="786" y="102" type="qcurve"/>
      <point x="822" y="102"/>
      <point x="915" y="195" type="qcurve"/>
      <point x="924" y="204"/>
      <point x="946" y="185" type="qcurve"/>
      <point x="967" y="168"/>
      <point x="957" y="157" type="qcurve"/>
      <point x="793" y="-27"/>
      <point x="672" y="-27" type="qcurve"/>
      <point x="614" y="-27"/>
      <point x="614" y="63" type="qcurve"/>
      <point x="614" y="99"/>
      <point x="625" y="137" type="qcurve"/>
      <point x="707" y="424" type="line"/>
      <point x="547" y="222"/>
      <point x="494" y="165" type="qcurve"/>
      <point x="318" y="-27"/>
      <point x="231" y="-27" type="qcurve"/>
      <point x="217" y="-27"/>
      <point x="202" y="-23" type="qcurve"/>
      <point x="174" y="-86"/>
      <point x="160" y="-166" type="qcurve"/>
      <point x="149" y="-230"/>
      <point x="149" y="-276" type="qcurve"/>
      <point x="149" y="-301"/>
      <point x="154" y="-362"/>
      <point x="154" y="-397" type="qcurve"/>
      <point x="154" y="-557"/>
      <point x="8" y="-557" type="qcurve"/>
      <point x="-32" y="-556"/>
      <point x="-32" y="-528" type="qcurve"/>
      <point x="-32" y="-499"/>
      <point x="-20" y="-459" type="qcurve"/>
      <point x="289" y="625" type="line"/>
      <point x="295" y="646"/>
      <point x="295" y="666" type="qcurve"/>
      <point x="295" y="711"/>
      <point x="266" y="711" type="qcurve"/>
      <point x="244" y="711"/>
      <point x="158" y="625" type="qcurve"/>
      <point x="149" y="616"/>
      <point x="128" y="632" type="qcurve"/>
      <point x="107" y="648"/>
      <point x="117" y="662" type="qcurve"/>
      <point x="271" y="852"/>
      <point x="385" y="852" type="qcurve"/>
      <point x="440" y="852"/>
      <point x="440" y="770" type="qcurve"/>
      <point x="440" y="725"/>
      <point x="430" y="690" type="qcurve"/>
      <point x="328" y="334" type="line"/>
      <point x="287" y="191"/>
      <point x="287" y="146" type="qcurve"/>
      <point x="287" y="102"/>
      <point x="315" y="102" type="qcurve"/>
      <point x="359" y="102"/>
      <point x="473" y="222" type="qcurve"/>
      <point x="587" y="342"/>
      <point x="678.5" y="499.5" type="qcurve"/>
      <point x="770" y="657"/>
      <point x="823" y="829" type="qcurve"/>
      <point x="830" y="852"/>
      <point x="891" y="852" type="qcurve"/>
      <point x="952" y="852"/>
      <point x="945" y="828" type="qcurve"/>
    </contour>
  </outline>
</glyph>
<glyph name="paragraph" format="1">
  <advance width="997"/>
  <unicode hex="00B6"/>
  <outline>
    <contour>
      <point x="555" y="-283" type="line" smooth="yes"/>
      <point x="551" y="-299"/>
      <point x="458" y="-299"/>
      <point x="462" y="-285" type="qcurve" smooth="yes"/>
      <point x="898" y="1324" type="line" smooth="yes"/>
      <point x="901" y="1335"/>
      <point x="901" y="1348" type="qcurve" smooth="yes"/>
      <point x="901" y="1398"/>
      <point x="842" y="1398" type="qcurve" smooth="yes"/>
      <point x="754" y="1398"/>
      <point x="734" y="1324" type="qcurve" smooth="yes"/>
      <point x="298" y="-285" type="line" smooth="yes"/>
      <point x="294" y="-299"/>
      <point x="202" y="-299"/>
      <point x="206" y="-285" type="qcurve" smooth="yes"/>
      <point x="469" y="677" type="line"/>
      <point x="261" y="677"/>
      <point x="86" y="838"/>
      <point x="86" y="970" type="qcurve" smooth="yes"/>
      <point x="86" y="1175"/>
      <point x="444" y="1456"/>
      <point x="654" y="1456" type="qcurve"/>
      <point x="891" y="1452"/>
      <point x="1063" y="1452"/>
      <point x="1143" y="1456" type="qcurve"/>
      <point x="1153" y="1456"/>
      <point x="1153" y="1429"/>
      <point x="1143" y="1397"/>
      <point x="1128" y="1398" type="qcurve" smooth="yes"/>
      <point x="1009" y="1398"/>
      <point x="989" y="1324" type="qcurve" smooth="yes"/>
    </contour>
  </outline>
</glyph>
<glyph name="periodcentered" format="1">
  <advance width="520"/>
  <unicode hex="00B7"/>
  <outline>
    <contour>
      <point x="438" y="463"/>
      <point x="368" y="399"/>
      <point x="272" y="399"/>
      <point x="195" y="463"/>
      <point x="195" y="568"/>
      <point x="262" y="637"/>
      <point x="372" y="637"/>
      <point x="438" y="567"/>
    </contour>
  </outline>
</glyph>
<glyph name="cedilla" format="1">
  <advance width="737"/>
  <unicode hex="00B8"/>
  <outline>
    <contour>
      <point x="383" y="-256" type="qcurve" smooth="yes"/>
      <point x="383" y="-326"/>
      <point x="251" y="-424"/>
      <point x="174" y="-424" type="qcurve" smooth="yes"/>
      <point x="72" y="-424"/>
      <point x="72" y="-358" type="qcurve" smooth="yes"/>
      <point x="72" y="-309"/>
      <point x="123" y="-309" type="qcurve" smooth="yes"/>
      <point x="143" y="-309"/>
      <point x="203" y="-369"/>
      <point x="215" y="-369" type="qcurve" smooth="yes"/>
      <point x="272" y="-368"/>
      <point x="272" y="-298" type="qcurve" smooth="yes"/>
      <point x="272" y="-235"/>
      <point x="181" y="-187" type="qcurve" smooth="yes"/>
      <point x="160" y="-176"/>
      <point x="173" y="-157" type="qcurve" smooth="yes"/>
      <point x="291" y="0" type="line"/>
      <point x="358" y="0" type="line"/>
      <point x="297" y="-80" type="line" smooth="yes"/>
      <point x="279" y="-103"/>
      <point x="307" y="-125" type="qcurve" smooth="yes"/>
      <point x="383" y="-186"/>
    </contour>
  </outline>
</glyph>
<glyph name="uni00B9" format="1">
  <advance width="621"/>
  <unicode hex="00B9"/>
  <outline>
    <contour>
      <point x="515" y="713" type="line" smooth="yes"/>
      <point x="497" y="647"/>
      <point x="497" y="589"/>
      <point x="538" y="572"/>
      <point x="594" y="572" type="qcurve" smooth="yes"/>
      <point x="601" y="572"/>
      <point x="601" y="552"/>
      <point x="595" y="535"/>
      <point x="585" y="535" type="qcurve"/>
      <point x="529" y="540"/>
      <point x="293" y="540"/>
      <point x="237" y="535" type="qcurve"/>
      <point x="230" y="535"/>
      <point x="230" y="555"/>
      <point x="237" y="572"/>
      <point x="247" y="572" type="qcurve" smooth="yes"/>
      <point x="330" y="572"/>
      <point x="388" y="617"/>
      <point x="413" y="712" type="qcurve" smooth="yes"/>
      <point x="567" y="1286" type="line" smooth="yes"/>
      <point x="570" y="1298"/>
      <point x="570" y="1304" type="qcurve" smooth="yes"/>
      <point x="570" y="1316"/>
      <point x="553" y="1316"/>
      <point x="544" y="1312" type="qcurve" smooth="yes"/>
      <point x="450" y="1274" type="line" smooth="yes"/>
      <point x="440" y="1270"/>
      <point x="436" y="1299"/>
      <point x="445" y="1304" type="qcurve" smooth="yes"/>
      <point x="551" y="1350"/>
      <point x="693" y="1442" type="qcurve" smooth="yes"/>
      <point x="702" y="1447"/>
      <point x="715" y="1447"/>
      <point x="715" y="1440" type="qcurve"/>
      <point x="692" y="1375"/>
      <point x="678" y="1324" type="qcurve" smooth="yes"/>
    </contour>
  </outline>
</glyph>
<glyph name="ordmasculine" format="1">
  <advance width="568"/>
  <unicode hex="00BA"/>
  <outline>
    <contour>
      <point x="645.4" y="840.8" type="qcurve" smooth="yes"/>
      <point x="645.4" y="715.4"/>
      <point x="467.2" y="507.8"/>
      <point x="334.6" y="507.8" type="qcurve" smooth="yes"/>
      <point x="251.2" y="507.8"/>
      <point x="167.8" y="624.8"/>
      <point x="167.8" y="713" type="qcurve" smooth="yes"/>
      <point x="167.8" y="827.6"/>
      <point x="362.8" y="1035.2"/>
      <point x="478.6" y="1035.2" type="qcurve" smooth="yes"/>
      <point x="562" y="1035.2"/>
      <point x="645.4" y="927.2"/>
    </contour>
    <contour>
      <point x="538.6" y="901.4" type="qcurve" smooth="yes"/>
      <point x="538.6" y="972.8"/>
      <point x="484.6" y="972.8" type="qcurve" smooth="yes"/>
      <point x="421.6" y="972.8"/>
      <point x="277" y="731.6"/>
      <point x="277" y="645.8" type="qcurve" smooth="yes"/>
      <point x="277" y="575.6"/>
      <point x="334.6" y="575.6" type="qcurve" smooth="yes"/>
      <point x="391.6" y="575.6"/>
      <point x="538.6" y="816.8"/>
    </contour>
  </outline>
</glyph>
<glyph name="guillemotright" format="1">
  <advance width="803"/>
  <unicode hex="00BB"/>
  <outline>
    <contour>
      <point x="565" y="756" type="line"/>
      <point x="561" y="766"/>
      <point x="576" y="779.5" type="qcurve"/>
      <point x="591" y="793"/>
      <point x="600" y="793" type="qcurve"/>
      <point x="609" y="793"/>
      <point x="612" y="790" type="qcurve"/>
      <point x="828" y="478" type="line"/>
      <point x="841" y="459"/>
      <point x="841" y="432.5" type="qcurve"/>
      <point x="841" y="406"/>
      <point x="799" y="372" type="qcurve"/>
      <point x="416" y="60" type="line"/>
      <point x="412" y="56"/>
      <point x="406" y="57" type="qcurve"/>
      <point x="383" y="57"/>
      <point x="384" y="81" type="qcurve"/>
      <point x="384" y="87"/>
      <point x="387" y="90" type="qcurve"/>
      <point x="664" y="384" type="line"/>
      <point x="689" y="410"/>
      <point x="689" y="435.5" type="qcurve"/>
      <point x="689" y="461"/>
      <point x="682" y="477" type="qcurve"/>
    </contour>
    <contour>
      <point x="214" y="756" type="line"/>
      <point x="210" y="766"/>
      <point x="225" y="779.5" type="qcurve"/>
      <point x="240" y="793"/>
      <point x="249" y="793" type="qcurve"/>
      <point x="258" y="793"/>
      <point x="260" y="790" type="qcurve"/>
      <point x="476" y="478" type="line"/>
      <point x="490" y="459"/>
      <point x="490" y="432.5" type="qcurve"/>
      <point x="490" y="406"/>
      <point x="448" y="372" type="qcurve"/>
      <point x="65" y="60" type="line"/>
      <point x="61" y="56"/>
      <point x="55" y="57" type="qcurve"/>
      <point x="32" y="57"/>
      <point x="32" y="81" type="qcurve"/>
      <point x="32" y="87"/>
      <point x="36" y="90" type="qcurve"/>
      <point x="313" y="384" type="line"/>
      <point x="338" y="410"/>
      <point x="338" y="435.5" type="qcurve"/>
      <point x="338" y="461"/>
      <point x="331" y="477" type="qcurve"/>
    </contour>
  </outline>
</glyph>
<glyph name="onequarter" format="1">
  <advance width="1690"/>
  <unicode hex="00BC"/>
  <outline>
    <contour>
      <point x="1405" y="78" type="line" smooth="yes"/>
      <point x="1403" y="71"/>
      <point x="1403" y="65" type="qcurve" smooth="yes"/>
      <point x="1403" y="29"/>
      <point x="1467" y="29" type="qcurve" smooth="yes"/>
      <point x="1473" y="29"/>
      <point x="1474" y="9"/>
      <point x="1468" y="-7"/>
      <point x="1458" y="-7" type="qcurve"/>
      <point x="1404" y="-2"/>
      <point x="1239" y="-2"/>
      <point x="1186" y="-7" type="qcurve"/>
      <point x="1180" y="-7"/>
      <point x="1179" y="13"/>
      <point x="1186" y="29"/>
      <point x="1195" y="29" type="qcurve" smooth="yes"/>
      <point x="1295" y="29"/>
      <point x="1308" y="78" type="qcurve" smooth="yes"/>
      <point x="1350" y="233" type="line" smooth="yes"/>
      <point x="1353" y="246"/>
      <point x="1340" y="246" type="qcurve" smooth="yes"/>
      <point x="1038" y="246" type="line" smooth="yes"/>
      <point x="1001" y="246"/>
      <point x="1001" y="282"/>
      <point x="1046" y="327" type="qcurve" smooth="yes"/>
      <point x="1238" y="518" type="line" smooth="yes"/>
      <point x="1472" y="752"/>
      <point x="1606" y="900" type="qcurve" smooth="yes"/>
      <point x="1615" y="908"/>
      <point x="1665" y="908"/>
      <point x="1665" y="893" type="qcurve" smooth="yes"/>
      <point x="1665" y="890"/>
      <point x="1664" y="889" type="qcurve" smooth="yes"/>
      <point x="1103" y="321" type="line" smooth="yes"/>
      <point x="1094" y="312"/>
      <point x="1094" y="300"/>
      <point x="1108" y="300" type="qcurve" smooth="yes"/>
      <point x="1355" y="300" type="line" smooth="yes"/>
      <point x="1368" y="300"/>
      <point x="1371" y="313" type="qcurve" smooth="yes"/>
      <point x="1446" y="595" type="line" smooth="yes"/>
      <point x="1449" y="604"/>
      <point x="1544" y="604"/>
      <point x="1544" y="595" type="qcurve" smooth="yes"/>
      <point x="1469" y="313" type="line" smooth="yes"/>
      <point x="1465" y="300"/>
      <point x="1478" y="300" type="qcurve" smooth="yes"/>
      <point x="1553" y="300" type="line" smooth="yes"/>
      <point x="1558" y="300"/>
      <point x="1558" y="271"/>
      <point x="1543" y="246"/>
      <point x="1538" y="246" type="qcurve" smooth="yes"/>
      <point x="1463" y="246" type="line" smooth="yes"/>
      <point x="1450" y="246"/>
      <point x="1447" y="233" type="qcurve" smooth="yes"/>
    </contour>
    <contour>
      <point x="391" y="687" type="line" smooth="yes"/>
      <point x="374" y="625"/>
      <point x="374" y="571"/>
      <point x="413" y="555"/>
      <point x="466" y="555" type="qcurve" smooth="yes"/>
      <point x="472" y="555"/>
      <point x="472" y="537"/>
      <point x="467" y="520"/>
      <point x="457" y="520" type="qcurve"/>
      <point x="404" y="525"/>
      <point x="183" y="525"/>
      <point x="130" y="520" type="qcurve"/>
      <point x="124" y="520"/>
      <point x="124" y="539"/>
      <point x="130" y="555"/>
      <point x="140" y="555" type="qcurve" smooth="yes"/>
      <point x="218" y="555"/>
      <point x="272" y="598"/>
      <point x="296" y="686" type="qcurve" smooth="yes"/>
      <point x="440" y="1226" type="line" smooth="yes"/>
      <point x="443" y="1237"/>
      <point x="443" y="1243" type="qcurve" smooth="yes"/>
      <point x="443" y="1254"/>
      <point x="428" y="1254"/>
      <point x="418" y="1250" type="qcurve" smooth="yes"/>
      <point x="330" y="1214" type="line" smooth="yes"/>
      <point x="321" y="1210"/>
      <point x="317" y="1238"/>
      <point x="325" y="1242" type="qcurve" smooth="yes"/>
      <point x="425" y="1285"/>
      <point x="559" y="1372" type="qcurve" smooth="yes"/>
      <point x="568" y="1377"/>
      <point x="580" y="1377"/>
      <point x="580" y="1371" type="qcurve"/>
      <point x="558" y="1310"/>
      <point x="545" y="1262" type="qcurve" smooth="yes"/>
    </contour>
    <contour>
      <point x="329" y="-82" type="line" smooth="yes"/>
      <point x="324" y="-88"/>
      <point x="300" y="-88"/>
      <point x="269" y="-56"/>
      <point x="269" y="-33"/>
      <point x="273" y="-29" type="qcurve" smooth="yes"/>
      <point x="1414" y="1339" type="line" smooth="yes"/>
      <point x="1418" y="1343"/>
      <point x="1439" y="1343"/>
      <point x="1476" y="1310"/>
      <point x="1476" y="1292"/>
      <point x="1473" y="1288" type="qcurve" smooth="yes"/>
    </contour>
  </outline>
</glyph>
<glyph name="onehalf" format="1">
  <advance width="1690"/>
  <unicode hex="00BD"/>
  <outline>
    <contour>
      <point x="1145" y="110" type="qcurve" smooth="yes"/>
      <point x="1131" y="98"/>
      <point x="1131" y="83"/>
      <point x="1147" y="83" type="qcurve" smooth="yes"/>
      <point x="1332" y="83" type="line" smooth="yes"/>
      <point x="1431" y="83"/>
      <point x="1479" y="119" type="qcurve" smooth="yes"/>
      <point x="1501" y="135"/>
      <point x="1520" y="160" type="qcurve" smooth="yes"/>
      <point x="1522" y="164"/>
      <point x="1553" y="164"/>
      <point x="1553" y="152" type="qcurve" smooth="yes"/>
      <point x="1553" y="150"/>
      <point x="1552" y="150" type="qcurve" smooth="yes"/>
      <point x="1454" y="14" type="line" smooth="yes"/>
      <point x="1439" y="-7"/>
      <point x="1416" y="-7" type="qcurve"/>
      <point x="1340" y="-2"/>
      <point x="1075" y="-2"/>
      <point x="994" y="-7" type="qcurve"/>
      <point x="973" y="-7"/>
      <point x="973" y="12" type="qcurve" smooth="yes"/>
      <point x="973" y="22"/>
      <point x="982" y="28" type="qcurve" smooth="yes"/>
      <point x="1159" y="173"/>
      <point x="1399" y="410"/>
      <point x="1524" y="586"/>
      <point x="1524" y="650" type="qcurve" smooth="yes"/>
      <point x="1524" y="701"/>
      <point x="1466" y="748"/>
      <point x="1423" y="748" type="qcurve" smooth="yes"/>
      <point x="1332" y="748"/>
      <point x="1240" y="635" type="qcurve" smooth="yes"/>
      <point x="1237" y="632"/>
      <point x="1221" y="632"/>
      <point x="1208" y="647"/>
      <point x="1208" y="652"/>
      <point x="1210" y="653" type="qcurve" smooth="yes"/>
      <point x="1265" y="726"/>
      <point x="1418" y="827"/>
      <point x="1499" y="827" type="qcurve" smooth="yes"/>
      <point x="1566" y="827"/>
      <point x="1642" y="746"/>
      <point x="1642" y="683" type="qcurve" smooth="yes"/>
      <point x="1642" y="595"/>
      <point x="1495" y="404"/>
    </contour>
    <contour>
      <point x="397" y="688" type="line" smooth="yes"/>
      <point x="380" y="625"/>
      <point x="380" y="570"/>
      <point x="419" y="555"/>
      <point x="473" y="555" type="qcurve" smooth="yes"/>
      <point x="479" y="555"/>
      <point x="479" y="536"/>
      <point x="473" y="519"/>
      <point x="463" y="519" type="qcurve"/>
      <point x="410" y="524"/>
      <point x="186" y="524"/>
      <point x="133" y="519" type="qcurve"/>
      <point x="127" y="519"/>
      <point x="127" y="538"/>
      <point x="133" y="555"/>
      <point x="143" y="555" type="qcurve" smooth="yes"/>
      <point x="222" y="555"/>
      <point x="276" y="597"/>
      <point x="300" y="687" type="qcurve" smooth="yes"/>
      <point x="446" y="1234" type="line" smooth="yes"/>
      <point x="449" y="1245"/>
      <point x="450" y="1250" type="qcurve" smooth="yes"/>
      <point x="450" y="1261"/>
      <point x="434" y="1262"/>
      <point x="424" y="1257" type="qcurve" smooth="yes"/>
      <point x="335" y="1222" type="line" smooth="yes"/>
      <point x="326" y="1218"/>
      <point x="322" y="1246"/>
      <point x="330" y="1250" type="qcurve" smooth="yes"/>
      <point x="431" y="1294"/>
      <point x="567" y="1381" type="qcurve" smooth="yes"/>
      <point x="576" y="1386"/>
      <point x="587" y="1386"/>
      <point x="587" y="1380" type="qcurve"/>
      <point x="565" y="1318"/>
      <point x="552" y="1269" type="qcurve" smooth="yes"/>
    </contour>
    <contour>
      <point x="292" y="-82" type="line" smooth="yes"/>
      <point x="287" y="-88"/>
      <point x="263" y="-88"/>
      <point x="232" y="-56"/>
      <point x="232" y="-33"/>
      <point x="236" y="-29" type="qcurve" smooth="yes"/>
      <point x="1377" y="1339" type="line" smooth="yes"/>
      <point x="1381" y="1343"/>
      <point x="1402" y="1343"/>
      <point x="1439" y="1310"/>
      <point x="1439" y="1292"/>
      <point x="1436" y="1288" type="qcurve" smooth="yes"/>
    </contour>
  </outline>
</glyph>
<glyph name="threequarters" format="1">
  <advance width="1690"/>
  <unicode hex="00BE"/>
  <outline>
    <contour>
      <point x="620" y="807" type="qcurve" smooth="yes"/>
      <point x="620" y="665"/>
      <point x="376" y="442"/>
      <point x="71" y="442"/>
      <point x="71" y="525" type="qcurve" smooth="yes"/>
      <point x="71" y="556"/>
      <point x="122" y="591"/>
      <point x="143" y="591" type="qcurve" smooth="yes"/>
      <point x="164" y="591"/>
      <point x="228" y="492"/>
      <point x="280" y="492" type="qcurve" smooth="yes"/>
      <point x="365" y="492"/>
      <point x="500" y="688"/>
      <point x="500" y="780" type="qcurve" smooth="yes"/>
      <point x="500" y="918"/>
      <point x="356" y="918" type="qcurve" smooth="yes"/>
      <point x="312" y="918"/>
      <point x="278" y="908" type="qcurve" smooth="yes"/>
      <point x="273" y="908"/>
      <point x="273" y="938"/>
      <point x="287" y="961"/>
      <point x="292" y="961" type="qcurve" smooth="yes"/>
      <point x="402" y="961"/>
      <point x="578" y="1083"/>
      <point x="578" y="1183" type="qcurve" smooth="yes"/>
      <point x="578" y="1230"/>
      <point x="524" y="1278"/>
      <point x="483" y="1278" type="qcurve" smooth="yes"/>
      <point x="403" y="1278"/>
      <point x="320" y="1186" type="qcurve" smooth="yes"/>
      <point x="318" y="1184"/>
      <point x="303" y="1184"/>
      <point x="290" y="1203"/>
      <point x="290" y="1210"/>
      <point x="292" y="1213" type="qcurve" smooth="yes"/>
      <point x="419" y="1348"/>
      <point x="546" y="1349" type="qcurve" smooth="yes"/>
      <point x="611" y="1349"/>
      <point x="685" y="1273"/>
      <point x="685" y="1215" type="qcurve" smooth="yes"/>
      <point x="685" y="1065"/>
      <point x="508" y="980" type="qcurve" smooth="yes"/>
      <point x="481" y="967"/>
      <point x="481" y="957"/>
      <point x="498" y="953" type="qcurve" smooth="yes"/>
      <point x="620" y="925"/>
    </contour>
    <contour>
      <point x="336" y="-82" type="line" smooth="yes"/>
      <point x="331" y="-88"/>
      <point x="307" y="-88"/>
      <point x="276" y="-56"/>
      <point x="276" y="-33"/>
      <point x="280" y="-29" type="qcurve" smooth="yes"/>
      <point x="1421" y="1339" type="line" smooth="yes"/>
      <point x="1425" y="1343"/>
      <point x="1446" y="1343"/>
      <point x="1483" y="1310"/>
      <point x="1483" y="1292"/>
      <point x="1480" y="1288" type="qcurve" smooth="yes"/>
    </contour>
    <contour>
      <point x="1304" y="87" type="line" smooth="yes"/>
      <point x="1302" y="79"/>
      <point x="1303" y="73" type="qcurve" smooth="yes"/>
      <point x="1303" y="34"/>
      <point x="1361" y="34" type="qcurve" smooth="yes"/>
      <point x="1367" y="34"/>
      <point x="1366" y="12"/>
      <point x="1361" y="-5"/>
      <point x="1352" y="-5" type="qcurve"/>
      <point x="1303" y="0"/>
      <point x="1153" y="0"/>
      <point x="1104" y="-5" type="qcurve"/>
      <point x="1098" y="-5"/>
      <point x="1099" y="17"/>
      <point x="1105" y="34"/>
      <point x="1113" y="34" type="qcurve" smooth="yes"/>
      <point x="1204" y="34"/>
      <point x="1216" y="87" type="qcurve" smooth="yes"/>
      <point x="1254" y="255" type="line" smooth="yes"/>
      <point x="1257" y="269"/>
      <point x="1245" y="269" type="qcurve" smooth="yes"/>
      <point x="970" y="269" type="line" smooth="yes"/>
      <point x="936" y="269"/>
      <point x="936" y="308"/>
      <point x="978" y="357" type="qcurve" smooth="yes"/>
      <point x="1152" y="564" type="line" smooth="yes"/>
      <point x="1364" y="818"/>
      <point x="1487" y="979" type="qcurve" smooth="yes"/>
      <point x="1495" y="987"/>
      <point x="1540" y="987"/>
      <point x="1540" y="971" type="qcurve" smooth="yes"/>
      <point x="1540" y="968"/>
      <point x="1540" y="967" type="qcurve" smooth="yes"/>
      <point x="1029" y="350" type="line" smooth="yes"/>
      <point x="1021" y="340"/>
      <point x="1021" y="328"/>
      <point x="1034" y="328" type="qcurve" smooth="yes"/>
      <point x="1258" y="328" type="line" smooth="yes"/>
      <point x="1270" y="328"/>
      <point x="1273" y="342" type="qcurve" smooth="yes"/>
      <point x="1342" y="647" type="line" smooth="yes"/>
      <point x="1344" y="657"/>
      <point x="1430" y="658"/>
      <point x="1430" y="647" type="qcurve" smooth="yes"/>
      <point x="1362" y="342" type="line" smooth="yes"/>
      <point x="1359" y="328"/>
      <point x="1370" y="328" type="qcurve" smooth="yes"/>
      <point x="1438" y="328" type="line" smooth="yes"/>
      <point x="1443" y="328"/>
      <point x="1443" y="296"/>
      <point x="1429" y="269"/>
      <point x="1425" y="269" type="qcurve" smooth="yes"/>
      <point x="1357" y="269" type="line" smooth="yes"/>
      <point x="1345" y="269"/>
      <point x="1342" y="255" type="qcurve" smooth="yes"/>
    </contour>
  </outline>
</glyph>
